<?xml version="1.0" standalone="no"?>
<!DOCTYPE svg PUBLIC "-//W3C//DTD SVG 1.1//EN" "http://www.w3.org/Graphics/SVG/1.1/DTD/svg11.dtd" >
<svg xmlns="http://www.w3.org/2000/svg" xmlns:xlink="http://www.w3.org/1999/xlink" version="1.1">
<metadata>
Created by FontForge 20201107 at Fri May  7 03:55:36 2010
 By 
Copyright (c) 2007 by The Font Bureau, Inc.. All rights reserved.
</metadata>
<defs>
<font id="EYInterstate-BoldItalic" horiz-adv-x="1270" >
  <font-face 
    font-family="EYInterstate Regular"
    font-weight="700"
    font-style="italic"
    font-stretch="normal"
    units-per-em="2048"
    panose-1="2 0 8 3 3 0 0 9 0 4"
    ascent="1638"
    descent="-410"
    x-height="1075"
    cap-height="1434"
    bbox="-414 -491 2832 2201"
    underline-thickness="41"
    underline-position="-271"
    slope="-10"
    unicode-range="U+0020-FB02"
  />
<missing-glyph horiz-adv-x="1024" 
 />
    <glyph glyph-name="fi" unicode="fi" horiz-adv-x="1317" 
d="M1325 1325q0 -33 -13 -62.5t-35 -51.5t-51.5 -35t-62.5 -13t-62.5 13t-51.5 35t-35 51.5t-13 62.5t13 62.5t35 51.5t51.5 35t62.5 13t62.5 -13t51.5 -35t35 -51.5t13 -62.5zM805 1223q-16 9 -47.5 18.5t-65.5 9.5q-46 0 -64.5 -19.5t-27.5 -66.5l-16 -90h174l-47 -266
h-174l-142 -809h-282l141 809h-129l47 266h129l23 129q13 78 38 131.5t63.5 87.5t93 49t128.5 15q28 0 57 -3.5t55.5 -10t49 -14.5t37.5 -17zM1075 0h-282l188 1075h283z" />
    <glyph glyph-name="fl" unicode="fl" horiz-adv-x="1317" 
d="M1075 0h-282l237 1352l307 141zM805 1223q-16 9 -47.5 18.5t-65.5 9.5q-46 0 -64.5 -19.5t-27.5 -66.5l-16 -90h174l-47 -266h-174l-142 -809h-282l141 809h-129l47 266h129l23 129q13 78 38 131.5t63.5 87.5t93 49t128.5 15q28 0 57 -3.5t55.5 -10t49 -14.5t37.5 -17z
" />
    <glyph glyph-name=".notdef" horiz-adv-x="1024" 
 />
    <glyph glyph-name=".null" horiz-adv-x="0" 
 />
    <glyph glyph-name="nonmarkingreturn" horiz-adv-x="594" 
 />
    <glyph glyph-name="space" unicode=" " horiz-adv-x="594" 
 />
    <glyph glyph-name="space" unicode="&#xa0;" horiz-adv-x="594" 
 />
    <glyph glyph-name="exclam" unicode="!" horiz-adv-x="696" 
d="M545 844l-115 -393h-192l20 393l104 590h287zM453 152q0 -36 -14 -67.5t-38 -55.5t-55.5 -38t-66.5 -14q-36 0 -67.5 14t-55.5 38t-38 55.5t-14 67.5q0 35 14 66.5t38 55.5t55.5 38t67.5 14q35 0 66.5 -14t55.5 -38t38 -55.5t14 -66.5z" />
    <glyph glyph-name="quotedbl" unicode="&#x22;" horiz-adv-x="1081" 
d="M954 764h-195l47 670h338zM444 764h-195l47 670h338z" />
    <glyph glyph-name="numbersign" unicode="#" 
d="M241 311h-168l39 221h166l66 369h-168l41 221h165l54 312h233l-53 -312h223l53 312h234l-53 -312h166l-39 -221h-168l-64 -369h166l-37 -221h-168l-55 -311h-233l55 311h-223l-56 -311h-233zM741 528l65 379h-235l-68 -379h238z" />
    <glyph glyph-name="dollar" unicode="$" 
d="M573 229q51 0 92 10t70 31t45 53t16 76q0 31 -8.5 53t-27.5 40t-50 35t-77 39q-104 49 -179 97t-124 101t-72 114t-23 136q0 90 30.5 162t84.5 125t129 87t164 46l32 188h277l-35 -197q102 -20 172 -61.5t123 -93.5l-195 -195q-23 24 -52 47.5t-64.5 42t-76 30
t-85.5 11.5q-67 0 -108 -13.5t-63.5 -35.5t-30 -48.5t-7.5 -53.5q0 -44 15 -73.5t43.5 -52t70.5 -42t96 -42.5q73 -31 135 -69t107.5 -87t71.5 -110t26 -137q0 -101 -32 -178t-89 -131.5t-136 -87.5t-173 -45l-33 -188h-276l35 192q-111 20 -193.5 67t-148.5 113l198 203
q69 -73 148 -115t178 -43z" />
    <glyph glyph-name="percent" unicode="%" 
d="M311 606q-64 0 -105.5 32t-63 90.5t-23 139.5t15.5 179q20 107 49 181t67.5 125t87 77t105.5 26q64 0 106.5 -32.5t64.5 -91t24 -139t-15 -177.5q-17 -98 -45.5 -174t-68.5 -128.5t-90 -80t-109 -27.5zM997 1434h147l-831 -1434h-146zM862 -23q-65 0 -106.5 32.5
t-62.5 91t-22.5 139.5t15.5 178q19 106 48 180.5t69 127.5t88.5 77t101.5 24q64 0 107 -32t65.5 -90.5t24.5 -139.5t-15 -178q-18 -98 -47 -174t-69 -128.5t-89.5 -80t-107.5 -27.5zM331 760q18 0 33 9.5t29 38t28 81t29 139.5q15 86 19.5 139.5t0 83.5t-16 41t-27.5 11
q-17 0 -31.5 -9.5t-28.5 -38t-28 -81.5t-29 -140q-15 -86 -19.5 -139.5t-0.5 -83.5t15.5 -40.5t26.5 -10.5zM882 131q18 0 32.5 9.5t28 38t27.5 81t29 139.5q15 86 19.5 140t0.5 84t-15.5 40.5t-27.5 10.5t-30.5 -9.5t-28.5 -38t-28 -80.5t-29 -138q-15 -87 -19.5 -141
t-0.5 -84.5t15.5 -41t26.5 -10.5z" />
    <glyph glyph-name="ampersand" unicode="&#x26;" horiz-adv-x="1425" 
d="M748 1456q78 0 141 -19.5t108 -56.5t69.5 -90t25.5 -119q0 -71 -23 -133.5t-64 -116.5t-97 -99.5t-122 -84.5l168 -252q35 48 69 103.5t64 120.5l218 -91q-48 -100 -101.5 -183.5t-111.5 -151.5l186 -283h-315l-72 102q-92 -61 -189 -93t-221 -32q-101 0 -181.5 25
t-137 72.5t-87 117t-30.5 158.5q0 83 26.5 149t74.5 119.5t115.5 97t148.5 81.5l-9 14q-52 78 -74 149.5t-22 139.5q0 86 31.5 152.5t89 111.5t139.5 68.5t183 23.5zM543 608q-45 -18 -83 -41.5t-65 -52t-42 -63t-15 -74.5q0 -74 48 -110t136 -36q72 0 126.5 14.5
t111.5 49.5zM588 1102q0 -31 15.5 -70t41.5 -80l25 -37q30 18 59.5 39.5t53.5 47t38.5 55.5t14.5 65q0 45 -28.5 68.5t-78.5 23.5q-38 0 -64.5 -9t-43.5 -24t-25 -35.5t-8 -43.5z" />
    <glyph glyph-name="quotesingle" unicode="'" horiz-adv-x="582" 
d="M452 764h-205l47 670h349z" />
    <glyph glyph-name="parenleft" unicode="(" horiz-adv-x="758" 
d="M340 -227q-64 64 -128.5 142.5t-116 170.5t-84 198t-32.5 224q0 115 26.5 217.5t73 193t109.5 170t136 150t151.5 131.5t157.5 115l147 -152q-98 -81 -185.5 -168.5t-152.5 -189.5t-103 -223t-38 -269q0 -95 16.5 -175.5t45.5 -151t67.5 -134t83.5 -124.5z" />
    <glyph glyph-name="parenright" unicode=")" horiz-adv-x="758" 
d="M-21 -76q98 81 185 168t152.5 189.5t103.5 223.5t38 269q0 94 -16.5 174.5t-45.5 151t-67.5 134t-83.5 124.5l174 127q64 -64 128 -142.5t116 -171.5t84.5 -199t32.5 -224q0 -115 -26.5 -217t-73 -192.5t-109.5 -170t-136 -149.5t-152 -131t-157 -115z" />
    <glyph glyph-name="asterisk" unicode="*" horiz-adv-x="1024" 
d="M805 764l-217 145l18 -260h-188l18 264l-219 -145l-90 160l250 112l-250 117l90 164l219 -150l-18 263h188l-18 -260l217 147l94 -162l-256 -117l256 -116z" />
    <glyph glyph-name="plus" unicode="+" 
d="M505 565h-372v279h372v387h295v-387h373v-279h-373v-387h-295v387z" />
    <glyph glyph-name="comma" unicode="," horiz-adv-x="635" 
d="M202 -258h-192l137 604h334z" />
    <glyph glyph-name="hyphen" unicode="-" horiz-adv-x="834" 
d="M723 602h-588l49 283h588z" />
    <glyph glyph-name="hyphen" unicode="&#xad;" horiz-adv-x="834" 
d="M723 602h-588l49 283h588z" />
    <glyph glyph-name="period" unicode="." horiz-adv-x="635" 
d="M454 170q0 -39 -15.5 -74t-41.5 -61.5t-61 -42t-74 -15.5t-74.5 15.5t-61.5 42t-41.5 61.5t-15.5 74t15.5 74t41.5 61t61.5 41.5t74.5 15.5t74 -15.5t61 -41.5t41.5 -61t15.5 -74z" />
    <glyph glyph-name="slash" unicode="/" horiz-adv-x="963" 
d="M160 -184h-279l987 1802h279z" />
    <glyph glyph-name="zero" unicode="0" 
d="M1240 916q0 -217 -51 -390.5t-142 -295.5t-216.5 -187.5t-273.5 -65.5q-113 0 -200.5 37t-147.5 108.5t-91 174.5t-31 235q0 211 52 382t143 291.5t214 185.5t266 65q117 0 206.5 -37t150 -106.5t91 -170t30.5 -226.5zM945 875q0 68 -10 127.5t-34.5 103.5t-65.5 70
t-102 25q-84 0 -149 -54t-109.5 -142t-68.5 -202.5t-24 -237.5q0 -73 11 -134t36 -105t65.5 -68.5t99.5 -24.5q84 0 149.5 54t110 144t68 205.5t23.5 238.5z" />
    <glyph glyph-name="one" unicode="1" 
d="M195 227h285l143 824h-293l35 198q81 3 141 14.5t104.5 33.5t74.5 55.5t51 81.5h239l-210 -1207h299l-41 -227h-869z" />
    <glyph glyph-name="two" unicode="2" 
d="M12 0q30 165 87.5 290t137 221.5t179 169.5t213.5 133q85 45 142 79t91 65t48 62t14 70q0 58 -51 90t-154 32q-91 0 -177.5 -36.5t-164.5 -94.5l-137 199q102 87 230.5 131.5t304.5 44.5q108 0 189.5 -23.5t137 -66.5t83.5 -104t28 -136q0 -78 -26 -144t-79.5 -126
t-134.5 -116.5t-191 -113.5q-108 -56 -179.5 -103.5t-118 -92.5t-72.5 -89.5t-43 -94.5h712l-44 -246h-1025z" />
    <glyph glyph-name="three" unicode="3" 
d="M1183 1112q0 -76 -21.5 -133.5t-57 -100t-80.5 -71.5t-92 -49q81 -26 134 -100.5t53 -178.5q0 -117 -42.5 -210t-120 -158t-186.5 -99.5t-242 -34.5q-90 0 -167 19.5t-139.5 52.5t-109.5 76.5t-78 91.5l209 162q51 -79 125.5 -117.5t185.5 -38.5q63 0 115 17t88.5 49.5
t56.5 78.5t20 105q0 76 -48 116t-151 40h-165l41 235h156q57 0 99.5 15t71 42t43 64t14.5 81q0 73 -49 110.5t-141 37.5q-88 0 -164.5 -28.5t-148.5 -79.5l-133 184q40 36 92.5 66.5t114 52.5t130 34.5t141.5 12.5q102 0 184.5 -23t140.5 -67.5t89.5 -108.5t31.5 -145z" />
    <glyph glyph-name="four" unicode="4" 
d="M741 293h-706l38 215l839 926h280l-159 -904h164l-42 -237h-164l-52 -293h-252zM781 530l98 556l-495 -556h397z" />
    <glyph glyph-name="five" unicode="5" 
d="M1197 1190h-653l-74 -305q28 19 62.5 32.5t71.5 22.5t73.5 13.5t69.5 4.5q192 0 296 -103t104 -300q0 -134 -47 -241t-128.5 -182t-192.5 -115t-239 -40q-84 0 -159 15t-138.5 41.5t-116 63.5t-92.5 81l182 191q61 -71 140 -110.5t190 -39.5q80 0 139.5 25t99.5 67.5
t59.5 98.5t19.5 118q0 103 -50 150t-151 47q-75 0 -144 -27t-118 -84l-219 82l172 738h886z" />
    <glyph glyph-name="six" unicode="6" 
d="M1179 522q0 -117 -45.5 -217t-124.5 -173t-185.5 -114t-227.5 -41q-122 0 -214.5 31.5t-155 90t-94.5 142.5t-32 189q0 142 39.5 270.5t109 239t166 201.5t210.5 157.5t241.5 107.5t259.5 52l-8 -244q-107 -18 -209 -48.5t-191 -79.5t-162 -119.5t-123 -169.5
q25 24 61 44t78 34t88.5 22t93.5 8q110 0 190.5 -27t132.5 -77.5t77 -121t25 -157.5zM898 484q0 94 -57.5 147t-178.5 53q-61 0 -114.5 -21t-93 -58t-62 -87t-22.5 -108q0 -94 61 -145t176 -51q64 0 117.5 20t92 56t60 85.5t21.5 108.5z" />
    <glyph glyph-name="seven" unicode="7" 
d="M1230 1206q-147 -135 -253.5 -268t-183 -277t-128 -306t-86.5 -355h-291q34 181 89 343.5t131 309.5t174 281.5t221 255.5h-660l41 244h987z" />
    <glyph glyph-name="eight" unicode="8" 
d="M1226 1100q0 -67 -19.5 -120.5t-52.5 -94.5t-77.5 -70.5t-93.5 -48.5q34 -15 66.5 -41t58 -63.5t40.5 -87t15 -111.5q0 -121 -44 -212t-120.5 -152t-180 -91.5t-222.5 -30.5q-126 0 -220.5 29.5t-158.5 82.5t-96 126t-32 160q0 89 26.5 155.5t69.5 115t96.5 81.5
t107.5 55q-75 42 -109 109t-34 141q0 97 39.5 175.5t109 134t164 85t203.5 29.5q118 0 205.5 -27t145 -75t85.5 -113t28 -141zM952 1077q0 33 -12.5 62t-37.5 50t-63 33.5t-89 12.5q-58 0 -101 -15t-72 -41.5t-43.5 -63.5t-14.5 -81q0 -33 12 -62.5t37 -51.5t62 -35t87 -13
q55 0 98.5 15t74 42t46.5 65t16 83zM884 459q0 40 -14 76t-43 63t-73.5 43t-106.5 16q-65 0 -117.5 -17.5t-89.5 -50t-57 -79t-20 -104.5q0 -48 16.5 -84.5t51 -64t76.5 -39t97 -11.5q71 0 122.5 17.5t88 53t53 82t16.5 99.5z" />
    <glyph glyph-name="nine" unicode="9" 
d="M148 913q0 117 45.5 217t124.5 173t185.5 114t227.5 41q122 0 214.5 -31.5t155 -90t94.5 -142.5t32 -189q0 -142 -39.5 -270.5t-109 -239t-166 -201.5t-210.5 -157.5t-241.5 -107.5t-259.5 -52l8 244q107 18 209 48.5t191 79.5t162 119.5t123 169.5q-25 -24 -61 -44
t-78 -34t-88.5 -22t-93.5 -8q-110 0 -190.5 27t-132.5 77.5t-77 121t-25 157.5zM429 951q0 -94 57.5 -147t178.5 -53q61 0 114.5 21t93 58t62 87t22.5 108q0 94 -61 145t-176 51q-64 0 -117.5 -20t-92 -56t-60 -85.5t-21.5 -108.5z" />
    <glyph glyph-name="colon" unicode=":" horiz-adv-x="635" 
d="M583 905q0 -39 -15.5 -74t-41.5 -61t-61 -41.5t-74 -15.5t-74.5 15.5t-61.5 41.5t-41.5 61t-15.5 74t15.5 74.5t41.5 61.5t61.5 41.5t74.5 15.5t74 -15.5t61 -41.5t41.5 -61.5t15.5 -74.5zM454 170q0 -39 -15.5 -74t-41.5 -61.5t-61 -42t-74 -15.5t-74.5 15.5t-61.5 42
t-41.5 61.5t-15.5 74t15.5 74t41.5 61t61.5 41.5t74.5 15.5t74 -15.5t61 -41.5t41.5 -61t15.5 -74z" />
    <glyph glyph-name="semicolon" unicode=";" horiz-adv-x="635" 
d="M581 905q0 -39 -15.5 -74t-41.5 -61t-61 -41.5t-74 -15.5t-74.5 15.5t-61.5 41.5t-41.5 61t-15.5 74t15.5 74.5t41.5 61.5t61.5 41.5t74.5 15.5t74 -15.5t61 -41.5t41.5 -61.5t15.5 -74.5zM188 -258h-193l138 604h333z" />
    <glyph glyph-name="less" unicode="&#x3c;" 
d="M163 596v231l981 584v-315l-686 -381l686 -381v-322z" />
    <glyph glyph-name="equal" unicode="=" 
d="M163 821v273h983v-273h-983zM163 315v273h983v-273h-983z" />
    <glyph glyph-name="greater" unicode="&#x3e;" 
d="M165 12v316l686 381l-686 381v321l981 -584v-231z" />
    <glyph glyph-name="question" unicode="?" horiz-adv-x="1188" 
d="M1206 1090q0 -83 -18 -147t-57.5 -116t-102 -93.5t-151.5 -78.5q-48 -20 -83 -40t-60 -43.5t-39.5 -53t-20.5 -67.5h-281q9 90 32.5 151.5t62 105t93.5 74.5t128 60q51 20 89 39.5t63 41.5t37.5 48.5t12.5 60.5q0 63 -53.5 103.5t-150.5 40.5q-45 0 -95 -9t-101 -27
t-101.5 -46.5t-98.5 -67.5l-145 225q125 100 269.5 152.5t303.5 52.5q120 0 208 -30t145.5 -80.5t85.5 -116.5t28 -139zM655 152q0 -36 -14 -67.5t-38 -55.5t-55.5 -38t-66.5 -14t-66.5 14t-55.5 38t-38 55.5t-14 67.5q0 35 14 66.5t38 55.5t55.5 38t66.5 14t66.5 -14
t55.5 -38t38 -55.5t14 -66.5z" />
    <glyph glyph-name="at" unicode="@" horiz-adv-x="1712" 
d="M1595 737q0 -114 -23 -194.5t-64 -131t-98 -73.5t-124 -23q-47 0 -83 8t-64.5 22.5t-50.5 35.5t-41 47q-51 -57 -113 -86t-150 -29q-55 0 -108 17t-94.5 52t-67 88.5t-25.5 125.5q0 65 25 114t68.5 82t102 49.5t126.5 16.5q55 0 93 -11t67 -28v51q0 47 -29.5 79t-91.5 32
q-74 0 -126.5 -15t-92.5 -38l-76 135q61 37 128.5 58.5t166.5 21.5q71 0 130 -18.5t101.5 -53.5t66 -86.5t23.5 -118.5v-293q0 -29 7 -54t22 -43.5t39 -29t59 -10.5q95 0 137 79.5t42 223.5q0 122 -47 231t-130 191t-197 130t-247 48q-134 0 -248 -47t-196.5 -129.5
t-129 -196.5t-46.5 -247q0 -135 46.5 -249t129 -197t196.5 -130t248 -47q69 0 133 13t133 47l49 -109q-44 -20 -82 -33.5t-75 -21.5t-75.5 -11.5t-82.5 -3.5q-107 0 -203.5 25t-178.5 71.5t-148 113t-112.5 148.5t-71.5 178.5t-25 203.5t25 203.5t71.5 178.5t112.5 148
t148 112.5t178.5 71.5t203.5 25q109 0 206 -26t179 -73.5t148 -114t111.5 -146.5t70 -171t24.5 -188zM971 668q-33 19 -68 28t-86 9q-62 0 -95.5 -28t-33.5 -81q0 -51 33 -82t96 -31q54 0 95 24t59 56v105z" />
    <glyph glyph-name="A" unicode="A" horiz-adv-x="1528" 
d="M1049 0l-56 319h-518l-168 -319h-317l796 1434h279l289 -1434h-305zM863 1058l-245 -466h326z" />
    <glyph glyph-name="B" unicode="B" horiz-adv-x="1446" 
d="M1389 1100q0 -68 -18 -121.5t-47.5 -95.5t-67 -73t-76.5 -52q69 -44 110 -113t41 -162q0 -117 -41.5 -207t-117 -151.5t-180 -93t-230.5 -31.5h-672l254 1434h600q108 0 191.5 -24.5t139.5 -68.5t85 -105.5t29 -135.5zM1090 1055q0 55 -42.5 84.5t-136.5 29.5h-333
l-50 -272h381q84 0 132.5 39.5t48.5 118.5zM1034 479q0 84 -52.5 124t-164.5 40h-332l-65 -371h383q51 0 93.5 13.5t73 40t47.5 65t17 88.5z" />
    <glyph glyph-name="C" unicode="C" horiz-adv-x="1364" 
d="M1085 985q-22 42 -47.5 76.5t-57.5 59.5t-74 39t-97 14q-87 0 -158.5 -47t-122.5 -125.5t-79.5 -180.5t-28.5 -213q0 -87 21 -152t58.5 -108t89.5 -64.5t113 -21.5q85 0 152.5 46t132.5 134l230 -166q-57 -77 -117.5 -133t-127 -93t-141 -55t-159.5 -18q-103 0 -202 32.5
t-176.5 103t-125 182.5t-47.5 272q0 159 35.5 291t83 216t101 147t131.5 118t173.5 86t194.5 31q106 0 187.5 -21.5t144 -63.5t109 -103t83.5 -140z" />
    <glyph glyph-name="D" unicode="D" horiz-adv-x="1440" 
d="M1389 868q0 -152 -28 -267t-80 -211.5t-124.5 -166.5t-148 -113t-194.5 -76.5t-273 -33.5h-451l254 1434h328q193 0 329 -40t222 -114t126 -178.5t40 -233.5zM1087 815q0 80 -23 143t-73 107t-130.5 67t-194.5 23h-84l-156 -876h188q108 0 195.5 36t149 105t95 168.5
t33.5 226.5z" />
    <glyph glyph-name="E" unicode="E" horiz-adv-x="1323" 
d="M90 0l252 1434h987l-49 -281h-700l-43 -248h567l-49 -278h-568l-61 -346h731l-49 -281h-1018z" />
    <glyph glyph-name="F" unicode="F" horiz-adv-x="1272" 
d="M1311 1153h-731l-48 -270h424l-49 -279h-424l-106 -604h-287l252 1434h1018z" />
    <glyph glyph-name="G" unicode="G" horiz-adv-x="1421" 
d="M1087 965q-18 48 -41 86t-53.5 64.5t-70.5 41t-91 14.5q-92 0 -167 -46t-128.5 -123.5t-82.5 -178t-29 -209.5q0 -90 23 -157.5t64 -112t96 -66.5t120 -22q102 0 168 54t92 157l2 8h-203l48 268h507l-22 -133q-29 -167 -82 -286.5t-131.5 -196.5t-181.5 -113.5
t-230 -36.5q-120 0 -223.5 39t-180.5 114.5t-121 187t-44 255.5q0 127 25 242t71 213.5t111 177.5t146 134.5t175 85.5t197 30q202 0 335 -90t193 -283z" />
    <glyph glyph-name="H" unicode="H" horiz-adv-x="1522" 
d="M1243 0h-287l105 602h-580l-104 -602h-287l252 1434h287l-97 -549h580l96 549h287z" />
    <glyph glyph-name="I" unicode="I" horiz-adv-x="696" 
d="M395 0h-286l253 1434h287z" />
    <glyph glyph-name="J" unicode="J" horiz-adv-x="1323" 
d="M1143 516q-31 -171 -100 -290t-187 -182q-126 -67 -305 -67q-108 0 -193 32t-147 91t-102 142t-58 184l277 66q14 -56 33.5 -98.5t49 -72t71 -44.5t98.5 -15q62 0 109 19.5t81.5 60t58.5 102.5t39 146l150 844h287z" />
    <glyph glyph-name="K" unicode="K" horiz-adv-x="1466" 
d="M979 932l352 -932h-303l-268 711l-316 -318l-67 -393h-287l252 1434h287l-112 -633l613 633h347z" />
    <glyph glyph-name="L" unicode="L" horiz-adv-x="1262" 
d="M1087 0h-997l252 1434h287l-203 -1151h711z" />
    <glyph glyph-name="M" unicode="M" horiz-adv-x="1702" 
d="M1423 0h-286l141 807l-526 -840l-240 840l-141 -807h-281l252 1434h276l228 -869l536 869h293z" />
    <glyph glyph-name="N" unicode="N" horiz-adv-x="1522" 
d="M1243 0h-256l-446 958l-168 -958h-283l252 1434h274l434 -921l162 921h283z" />
    <glyph glyph-name="O" unicode="O" horiz-adv-x="1464" 
d="M1409 866q0 -121 -23.5 -233.5t-68 -211.5t-108.5 -180.5t-144 -140t-175 -91t-202 -32.5q-132 0 -237 40.5t-178.5 116.5t-112.5 185.5t-39 247.5q0 121 23.5 234t68 211.5t108.5 180.5t144 140.5t175 90.5t202 32q132 0 237 -40.5t178.5 -116.5t112.5 -185.5t39 -247.5
zM1110 825q0 89 -22.5 154.5t-61.5 108t-91.5 63t-113.5 20.5q-83 0 -156 -40.5t-127.5 -114.5t-86 -177.5t-31.5 -230.5q0 -89 22.5 -154t61.5 -108t91.5 -63.5t113.5 -20.5q83 0 156 40.5t127.5 114.5t86 177.5t31.5 230.5z" />
    <glyph glyph-name="P" unicode="P" horiz-adv-x="1384" 
d="M1384 1044q0 -126 -38.5 -225.5t-112.5 -168.5t-183.5 -105.5t-250.5 -36.5h-332l-90 -508h-287l254 1434h551q119 0 210 -26.5t153 -77t94 -123t32 -163.5zM1083 999q0 34 -10.5 62.5t-34.5 49.5t-63 32.5t-96 11.5h-297l-66 -369h334q54 0 97.5 15t73.5 42.5t46 67
t16 88.5z" />
    <glyph glyph-name="Q" unicode="Q" horiz-adv-x="1454" 
d="M1171 -12l-243 -127l-70 145q-80 -24 -170 -24q-132 0 -237 39.5t-178.5 115t-112.5 184t-39 246.5q0 121 23.5 234t68 211.5t108.5 180.5t144 140.5t175 90.5t202 32q132 0 237 -40.5t178.5 -116.5t112.5 -185.5t39 -247.5q0 -113 -22 -218.5t-62 -199t-97.5 -172.5
t-127.5 -139zM664 408l243 127l72 -152q60 72 95.5 182.5t35.5 259.5q0 89 -22.5 154.5t-61.5 108t-91.5 63t-113.5 20.5q-83 0 -156 -40.5t-127.5 -114.5t-86 -177.5t-31.5 -230.5q0 -89 22.5 -155.5t61.5 -110.5t91.5 -66t113.5 -22h14t14 2z" />
    <glyph glyph-name="R" unicode="R" horiz-adv-x="1454" 
d="M1425 1042q0 -103 -28.5 -183.5t-77.5 -140.5t-114 -100t-138 -61l176 -557h-307l-166 516h-303l-90 -516h-287l252 1434h600q121 0 211.5 -27t151 -78t90.5 -123.5t30 -163.5zM1124 1004q0 74 -52 112.5t-159 38.5h-333l-64 -369h377q104 0 167.5 56.5t63.5 161.5z" />
    <glyph glyph-name="S" unicode="S" horiz-adv-x="1346" 
d="M1079 1014q-28 35 -62 66.5t-74.5 55.5t-88 38t-104.5 14q-56 0 -96 -11t-65 -30.5t-36.5 -45t-11.5 -54.5q0 -31 12.5 -53.5t42.5 -42.5t80.5 -40t126.5 -45q74 -24 147 -57t130.5 -81t93.5 -113.5t36 -155.5q0 -122 -43 -212.5t-119.5 -150.5t-181 -89.5t-227.5 -29.5
q-109 0 -201.5 24.5t-166.5 65.5t-129 94.5t-89 112.5l234 166q39 -53 85 -89t96.5 -58t104.5 -31.5t109 -9.5q46 0 87.5 9.5t72.5 30t49 53t18 79.5q0 28 -14.5 52.5t-48 47t-89 45.5t-136.5 49q-83 25 -152 59.5t-119 81t-78 107t-28 138.5q0 120 44 205.5t118.5 140
t171.5 80.5t204 26q95 0 174.5 -20.5t145 -56t117.5 -83.5t92 -104z" />
    <glyph glyph-name="T" unicode="T" horiz-adv-x="1286" 
d="M1305 1151h-408l-203 -1151h-286l202 1151h-407l49 283h1102z" />
    <glyph glyph-name="U" unicode="U" horiz-adv-x="1501" 
d="M1337 594q-27 -152 -76 -267t-126 -193t-185 -117.5t-252 -39.5q-114 0 -209 29.5t-163.5 90t-107 153.5t-38.5 221q0 35 3.5 86.5t13.5 104.5l135 772h286l-131 -742q-6 -37 -11 -85.5t-5 -100.5q0 -125 66 -186.5t196 -61.5q62 0 114 19t92.5 60t69 105.5t44.5 155.5
l145 836h287z" />
    <glyph glyph-name="V" unicode="V" horiz-adv-x="1454" 
d="M764 0h-277l-247 1434h301l151 -1042l520 1042h312z" />
    <glyph glyph-name="W" unicode="W" horiz-adv-x="1792" 
d="M1305 0h-283l-55 941l-389 -941h-271l-45 1434h295v-902l371 902h250l59 -902l317 902h299z" />
    <glyph glyph-name="X" unicode="X" horiz-adv-x="1438" 
d="M317 0h-321l592 741l-324 693h309l206 -443l351 443h322l-559 -701l342 -733h-309l-225 486z" />
    <glyph glyph-name="Y" unicode="Y" horiz-adv-x="1454" 
d="M877 567l-101 -567h-287l99 561l-385 873h311l251 -606l470 606h332z" />
    <glyph glyph-name="Z" unicode="Z" horiz-adv-x="1401" 
d="M1366 1180l-905 -918h753l-47 -262h-1122l45 254l911 917h-708l47 263h1071z" />
    <glyph glyph-name="bracketleft" unicode="[" horiz-adv-x="842" 
d="M831 1208h-241l-213 -1208h241l-38 -225h-519l291 1659h518z" />
    <glyph glyph-name="backslash" unicode="\" horiz-adv-x="963" 
d="M549 -184l-348 1802h278l348 -1802h-278z" />
    <glyph glyph-name="bracketright" unicode="]" horiz-adv-x="842" 
d="M512 -225h-518l39 225h241l213 1208h-241l39 226h518z" />
    <glyph glyph-name="asciicircum" unicode="^" horiz-adv-x="1184" 
d="M797 782l-207 381l-207 -381h-287l383 652h226l382 -652h-290z" />
    <glyph glyph-name="underscore" unicode="_" horiz-adv-x="1024" 
d="M862 -383h-1024l41 236h1024z" />
    <glyph glyph-name="grave" unicode="`" horiz-adv-x="1024" 
d="M623 1219l-240 327h358l121 -327h-239z" />
    <glyph glyph-name="a" unicode="a" horiz-adv-x="1130" 
d="M1038 778q0 -21 -1.5 -43t-6.5 -47l-121 -688h-282l14 72q-42 -39 -99 -67t-132 -28q-72 0 -137.5 19.5t-115.5 60t-80 104t-30 150.5q0 91 31.5 165.5t89.5 128t140 83t184 29.5q73 0 146 -13.5t107 -29.5l7 43q2 13 2 20v15q0 56 -43 84t-144 28q-68 0 -131.5 -16
t-111.5 -39l-74 201q72 40 166 64t188 24q95 0 175 -18t137.5 -57t89.5 -99.5t32 -145.5zM707 451q-34 18 -84 31.5t-119 13.5q-42 0 -73.5 -12t-52.5 -33t-31.5 -49t-10.5 -60q0 -60 38.5 -92.5t117.5 -32.5q33 0 62 9t53.5 23t43.5 31.5t31 34.5z" />
    <glyph glyph-name="b" unicode="b" horiz-adv-x="1143" 
d="M1069 686q0 -127 -27 -243.5t-89 -226.5t-162 -174.5t-222 -64.5q-41 0 -73 6t-60 17.5t-53 28t-51 37.5l-13 -66h-278l238 1352l307 141l-84 -485q45 40 96.5 65t116.5 25q85 0 151 -28.5t111 -81.5t68.5 -129.5t23.5 -172.5zM778 639q0 96 -38.5 144t-110.5 48
q-28 0 -52 -7.5t-45.5 -20t-40.5 -28.5t-36 -34l-72 -405q20 -23 39.5 -40.5t40.5 -29t45.5 -17t54.5 -5.5q50 0 90 31.5t67.5 85.5t42.5 125.5t15 152.5z" />
    <glyph glyph-name="c" unicode="c" horiz-adv-x="1092" 
d="M854 653q-58 92 -110.5 132t-122.5 40q-59 0 -107 -29.5t-82 -77.5t-53 -110.5t-19 -128.5q0 -111 54.5 -170t142.5 -59q59 0 120 30.5t130 92.5l160 -187q-93 -95 -203 -152t-242 -57q-95 0 -177.5 33t-143 95t-95 151t-34.5 201q0 127 41 243t117 204.5t183 141
t238 52.5q84 0 149.5 -20t117.5 -55.5t91 -84.5t70 -107z" />
    <glyph glyph-name="d" unicode="d" horiz-adv-x="1143" 
d="M68 389q0 128 29 250.5t90.5 226t158.5 168t221 64.5q41 0 73 -6t59.5 -17.5t52.5 -27.5t51 -37l59 342l307 141l-264 -1493h-282l12 68q-45 -41 -96.5 -66t-116.5 -25q-85 0 -151 28.5t-111 81.5t-68.5 129.5t-23.5 172.5zM358 436q0 -96 39 -144t111 -48q28 0 52 7.5
t45.5 20t40.5 28.5t36 34l72 405q-20 23 -39.5 40.5t-41 29t-46 17t-54.5 5.5q-50 0 -90 -31.5t-67.5 -85.5t-42.5 -125.5t-15 -152.5z" />
    <glyph glyph-name="e" unicode="e" horiz-adv-x="1094" 
d="M1018 662q0 -53 -8.5 -106.5t-24.5 -109.5h-635q-6 -55 11 -93.5t47 -62.5t68 -35t75 -11q54 0 107.5 17t107.5 54l137 -196q-97 -76 -190.5 -109t-192.5 -33q-104 0 -187.5 32t-142 92.5t-90.5 147t-32 195.5q0 138 43.5 257.5t119 207.5t177.5 138.5t219 50.5
q101 0 175 -34.5t122 -94t71 -138.5t23 -169zM752 659q4 39 -3.5 74t-28 61.5t-53.5 42t-81 15.5q-39 0 -70 -15t-55.5 -41t-43 -61t-30.5 -76h365z" />
    <glyph glyph-name="f" unicode="f" horiz-adv-x="750" 
d="M805 1223q-16 9 -47.5 18.5t-65.5 9.5q-46 0 -64.5 -19.5t-27.5 -66.5l-16 -90h174l-47 -266h-174l-142 -809h-282l141 809h-129l47 266h129l23 129q13 78 38 131.5t63.5 87.5t93 49t128.5 15q28 0 57 -3.5t55.5 -10t49 -14.5t37.5 -17z" />
    <glyph glyph-name="g" unicode="g" horiz-adv-x="1143" 
d="M422 -23q-85 0 -151 28.5t-111 81.5t-68.5 129.5t-23.5 172.5q0 163 41 297t107 224t155 139t196 49q41 0 73 -6t59.5 -17.5t52.5 -27.5t51 -37l10 65h283l-156 -893q-40 -220 -87 -314t-114 -148.5t-169 -84.5t-248 -34l-48 227q91 4 155 18.5t106.5 42t66 69t33.5 99.5
l2 13q-40 -41 -96 -67t-119 -26zM358 436q0 -96 39 -144t111 -48q28 0 52 7.5t45.5 20t40.5 28.5t36 34l72 405q-20 23 -39.5 40.5t-41 29t-46 17t-54.5 5.5q-50 0 -90 -31.5t-67.5 -85.5t-42.5 -125.5t-15 -152.5z" />
    <glyph glyph-name="h" unicode="h" horiz-adv-x="1188" 
d="M1087 764q0 -34 -4 -76t-10 -82l-106 -606h-283l102 582q5 27 7 50.5t2 43.5q0 75 -36 115t-114 40q-42 0 -77 -13t-62 -42t-46.5 -75t-31.5 -113l-102 -588h-283l238 1352l307 141l-86 -489q41 38 100.5 66t142.5 28q92 0 156 -23.5t104.5 -65.5t61 -103t20.5 -142z" />
    <glyph glyph-name="i" unicode="i" horiz-adv-x="578" 
d="M586 1325q0 -33 -13 -62.5t-35 -51.5t-51.5 -35t-62.5 -13t-62.5 13t-51.5 35t-35 51.5t-13 62.5t13 62.5t35 51.5t51.5 35t62.5 13t62.5 -13t51.5 -35t35 -51.5t13 -62.5zM336 0h-283l189 1075h282z" />
    <glyph glyph-name="j" unicode="j" horiz-adv-x="578" 
d="M588 1325q0 -33 -13 -62.5t-35 -51.5t-51.5 -35t-62.5 -13t-62.5 13t-51.5 35t-35 51.5t-13 62.5t13 62.5t35 51.5t51.5 35t62.5 13t62.5 -13t51.5 -35t35 -51.5t13 -62.5zM344 61q-20 -113 -50 -193.5t-86 -134.5t-145 -84.5t-227 -43.5l-59 221q80 11 130.5 26.5
t81 42.5t47 68.5t27.5 104.5l179 1007h282z" />
    <glyph glyph-name="k" unicode="k" horiz-adv-x="1120" 
d="M795 741l174 -741h-295l-113 506l-178 -180l-57 -326h-283l238 1352l309 141l-144 -795l347 377h333z" />
    <glyph glyph-name="l" unicode="l" horiz-adv-x="578" 
d="M336 0h-283l238 1352l307 141z" />
    <glyph glyph-name="m" unicode="m" horiz-adv-x="1796" 
d="M1696 758q0 -35 -3.5 -72.5t-11.5 -79.5l-106 -606h-281l103 582q5 29 7.5 54.5t2.5 47.5q0 83 -41 115t-111 32q-77 0 -128 -57.5t-72 -185.5l-103 -588h-284l102 582q5 29 7.5 53.5t2.5 46.5q0 42 -10.5 71t-30.5 46t-48 24.5t-62 7.5q-78 0 -128.5 -57.5t-72.5 -185.5
l-102 -588h-283l188 1075h283l-12 -71q19 18 43 34.5t52.5 30t62.5 21.5t73 8q103 0 172 -34t117 -103q23 19 55.5 43t75.5 45t96 35t117 14q165 0 247.5 -87.5t82.5 -252.5z" />
    <glyph glyph-name="n" unicode="n" horiz-adv-x="1188" 
d="M1087 764q0 -34 -4 -76t-10 -82l-106 -606h-283l102 582q5 27 7 50.5t2 43.5q0 75 -36 115t-114 40q-42 0 -77 -13t-62 -42t-46.5 -75t-31.5 -113l-102 -588h-283l188 1075h283l-12 -71q41 38 100.5 66t142.5 28q174 0 258 -86.5t84 -247.5z" />
    <glyph glyph-name="o" unicode="o" horiz-adv-x="1128" 
d="M72 440q0 132 41.5 251.5t115.5 210t177.5 143.5t228.5 53q94 0 172 -32.5t133.5 -92.5t86 -145.5t30.5 -192.5q0 -108 -29 -212.5t-99.5 -210t-185.5 -170.5t-249 -65q-95 0 -172.5 32.5t-133 92.5t-86 145.5t-30.5 192.5zM362 459q0 -50 12.5 -89t34 -65.5t51 -40.5
t64.5 -14q48 0 91.5 24.5t77 71.5t53.5 115t20 155q0 50 -12.5 89t-34 65.5t-51.5 40.5t-64 14q-48 0 -91.5 -24.5t-77 -71.5t-53.5 -115t-20 -155z" />
    <glyph glyph-name="p" unicode="p" horiz-adv-x="1143" 
d="M1069 686q0 -114 -25 -233.5t-86.5 -230.5t-162.5 -178t-226 -67q-41 0 -73 6t-59.5 17.5t-52 28t-50.5 37.5l-55 -320l-308 -141l260 1470h283l-12 -67q45 40 96.5 65t116.5 25q85 0 151 -28.5t111 -81.5t68.5 -129.5t23.5 -172.5zM778 639q0 96 -38.5 144t-110.5 48
q-28 0 -52 -7.5t-45.5 -20t-40.5 -28.5t-36 -34l-72 -405q20 -23 39.5 -40.5t40.5 -29t45.5 -17t54.5 -5.5q50 0 90 31.5t67.5 85.5t42.5 125.5t15 152.5z" />
    <glyph glyph-name="q" unicode="q" horiz-adv-x="1143" 
d="M68 389q0 159 45.5 306.5t126.5 241t164 127.5t163 34q41 0 73 -6t59.5 -17.5t52.5 -27.5t51 -37l10 65h283l-234 -1329l-309 -141l82 463q-45 -41 -96.5 -66t-116.5 -25q-85 0 -151 28.5t-111 81.5t-68.5 129.5t-23.5 172.5zM358 436q0 -96 39 -144t111 -48q28 0 52 7.5
t45.5 20t40.5 28.5t36 34l72 405q-20 23 -39.5 40.5t-41 29t-46 17t-54.5 5.5q-50 0 -90 -31.5t-67.5 -85.5t-42.5 -125.5t-15 -152.5z" />
    <glyph glyph-name="r" unicode="r" horiz-adv-x="868" 
d="M793 741q-28 30 -73.5 52t-92.5 22q-36 0 -67 -8.5t-56.5 -36t-46 -78.5t-35.5 -135l-98 -557h-283l190 1075h283l-12 -71q37 42 89 68t118 26q72 0 126 -26.5t83 -63.5z" />
    <glyph glyph-name="s" unicode="s" horiz-adv-x="1092" 
d="M897 745q-32 21 -71.5 41t-83.5 35.5t-91 25t-92 9.5q-60 0 -86.5 -19.5t-26.5 -48.5q0 -13 5.5 -24.5t25.5 -26t60 -34.5t108 -48q67 -28 122.5 -58.5t94.5 -68.5t60.5 -85.5t21.5 -108.5q0 -94 -33.5 -161.5t-91.5 -111t-136.5 -64t-168.5 -20.5q-154 0 -285.5 49
t-208.5 113l134 205q71 -50 171 -87.5t220 -37.5q55 0 84.5 23t29.5 61q0 15 -6 28.5t-21.5 26t-41.5 26t-66 28.5q-91 36 -159 70t-113 73t-67.5 86t-22.5 109q0 168 108.5 258t309.5 90q73 0 137.5 -11.5t120 -29.5t103 -41t85.5 -47z" />
    <glyph glyph-name="t" unicode="t" horiz-adv-x="897" 
d="M813 809h-250l-76 -432q-2 -14 -3 -25t-1 -22q0 -48 26 -65t73 -17q42 0 78.5 17t74.5 48l-92 -280q-36 -25 -96 -40.5t-107 -15.5q-114 0 -185 65.5t-71 184.5q0 33 6 74l91 508h-181l47 266h181l49 277l307 141l-74 -418h250z" />
    <glyph glyph-name="u" unicode="u" horiz-adv-x="1188" 
d="M100 311q0 34 4 76t11 82l106 606h283l-103 -581q-5 -28 -6.5 -51.5t-1.5 -43.5q0 -76 36.5 -115.5t113.5 -39.5q42 0 77 13t62 42t46.5 75t31.5 113l102 588h283l-189 -1075h-282l12 72q-51 -48 -111.5 -71.5t-132.5 -23.5q-173 0 -257.5 86t-84.5 248z" />
    <glyph glyph-name="v" unicode="v" horiz-adv-x="1155" 
d="M629 0h-289l-193 1075h304l96 -714l348 714h307z" />
    <glyph glyph-name="w" unicode="w" horiz-adv-x="1511" 
d="M1073 0h-252l-44 656l-275 -656h-236l-121 1075h281l36 -613l269 613h234l53 -613l252 613h284z" />
    <glyph glyph-name="x" unicode="x" horiz-adv-x="1176" 
d="M997 0h-299l-163 340l-273 -340h-305l469 575l-248 500h299l130 -273l216 273h305l-413 -506z" />
    <glyph glyph-name="y" unicode="y" horiz-adv-x="1200" 
d="M440 -379h-282l209 379l-220 1075h308l111 -730l372 730h307z" />
    <glyph glyph-name="z" unicode="z" horiz-adv-x="1126" 
d="M1063 870l-593 -614h484l-45 -256h-880l34 205l619 614h-475l45 256h846z" />
    <glyph glyph-name="braceleft" unicode="{" horiz-adv-x="934" 
d="M952 1257q-78 -2 -130 -18t-85 -48.5t-51 -81.5t-29 -118l-10 -63q-14 -85 -36.5 -143t-53.5 -95.5t-71.5 -56.5t-90.5 -25q48 -11 81 -30.5t50 -55.5t18.5 -92.5t-12.5 -140.5l-10 -62q-11 -64 -7 -109t27 -75.5t67 -50t114 -31.5l-33 -186q-120 8 -214 36.5t-155 81
t-85 130t-5 184.5l27 145q14 75 -8 108.5t-90 33.5h-45l41 229h45q39 0 64.5 7.5t41.5 24.5t25 44t16 65l27 148q21 117 65.5 202.5t118.5 140t179.5 77t246.5 12.5z" />
    <glyph glyph-name="bar" unicode="|" horiz-adv-x="584" 
d="M258 -379h-256l356 2017h256z" />
    <glyph glyph-name="braceright" unicode="}" horiz-adv-x="934" 
d="M801 496h-45q-39 0 -64.5 -7.5t-41.5 -24.5t-25.5 -44t-16.5 -66l-26 -147q-21 -117 -66 -202.5t-119 -140t-179.5 -77t-246.5 -12.5l33 186q78 2 129.5 18t84.5 48t51 81.5t30 118.5l10 64q14 85 36.5 143.5t53.5 95.5t71.5 55.5t90.5 24.5q-48 12 -81 31t-50.5 55
t-19 92t13.5 142l10 61q11 64 7 109.5t-26.5 76t-67 49.5t-114.5 31l33 187q121 -9 215 -37.5t154.5 -80.5t84.5 -130t5 -184l-27 -146q-14 -74 8.5 -107.5t90.5 -33.5h45z" />
    <glyph glyph-name="asciitilde" unicode="~" horiz-adv-x="1151" 
d="M1122 868q-40 -71 -81 -128t-84.5 -97t-91 -62t-99.5 -22q-33 0 -60.5 6.5t-51 17t-44 23.5t-39.5 27q-29 24 -67.5 51t-77.5 27q-21 0 -37.5 -5.5t-34.5 -21.5t-40.5 -44.5t-55.5 -74.5l-152 86q40 71 81.5 128t85 97.5t91 62.5t99.5 22q57 0 100 -18.5t78 -43.5
q27 -19 75 -54.5t87 -35.5q21 0 37.5 5.5t34.5 21t40.5 44t55.5 74.5z" />
    <glyph glyph-name="exclamdown" unicode="&#xa1;" horiz-adv-x="696" 
d="M651 1282q0 -35 -14 -66.5t-38 -55.5t-55.5 -38t-66.5 -14t-66.5 14t-55.5 38t-38 55.5t-14 66.5t14 66.5t38 55.5t55.5 38t66.5 14t66.5 -14t55.5 -38t38 -55.5t14 -66.5zM502 590l-105 -590h-286l104 590l115 393h192z" />
    <glyph glyph-name="cent" unicode="&#xa2;" 
d="M469 639q0 -118 52 -177.5t151 -59.5q65 0 123 36.5t106 91.5l172 -165q-73 -75 -152.5 -122.5t-175.5 -66.5l-35 -199h-287l39 216q-140 45 -215 157.5t-75 276.5q0 123 34.5 231t97.5 193t151 143.5t196 81.5l35 186h284l-35 -192q86 -23 143.5 -69t100.5 -107
l-219 -160q-39 63 -84 89.5t-112 26.5q-82 0 -138.5 -38.5t-91 -98.5t-50 -132.5t-15.5 -141.5z" />
    <glyph glyph-name="sterling" unicode="&#xa3;" 
d="M628 551q-18 -82 -62.5 -160t-119.5 -147h612l-43 -244h-934l35 205q41 31 79.5 67.5t70.5 80t57 93t39 105.5h-180l39 225h143q-7 35 -17 68t-19.5 67t-16 71t-6.5 79q0 93 34 166.5t98.5 124t157 77.5t209.5 27q155 0 258 -44.5t172 -123.5l-172 -186q-59 61 -123.5 90
t-156.5 29q-104 0 -148.5 -51t-44.5 -136q0 -31 6 -60.5t14 -60.5t16 -64.5t13 -72.5h275l-39 -225h-246z" />
    <glyph glyph-name="currency" unicode="&#xa4;" horiz-adv-x="1298" 
d="M424 774q-5 -29 -8.5 -58.5t-5.5 -58.5h448l-35 -188h-409q18 -108 81.5 -164.5t172.5 -56.5q44 0 84.5 14t78 38.5t72 58.5t66.5 75l225 -164q-51 -65 -110.5 -119t-128 -92.5t-146 -60t-164.5 -21.5q-125 0 -223 40t-165.5 115t-103.5 183t-36 244q0 116 21.5 228
t63 211.5t102 183.5t138.5 145t172 95t203 34q110 0 193 -27.5t143 -79.5t99.5 -125.5t62.5 -164.5l-277 -105q-12 51 -32 93.5t-50 73.5t-71.5 48t-96.5 17q-52 0 -97 -16t-83.5 -45.5t-69.5 -70.5t-55 -91h428l-34 -189h-453z" />
    <glyph glyph-name="yen" unicode="&#xa5;" 
d="M421 227h-262l39 226h264l19 106l-238 875h307l122 -620l331 620h317l-544 -871l-21 -110h264l-41 -226h-264l-39 -227h-293z" />
    <glyph glyph-name="brokenbar" unicode="&#xa6;" horiz-adv-x="643" 
d="M370 1638h260l-154 -874h-260zM169 496h260l-154 -875h-260z" />
    <glyph glyph-name="section" unicode="&#xa7;" horiz-adv-x="1434" 
d="M438 973q-25 51 -25 114q0 79 27 146.5t81.5 117t136 77.5t191.5 28q155 0 267 -43.5t196 -128.5l-176 -184q-31 26 -65 48t-73.5 38.5t-84.5 25.5t-98 9q-36 0 -60.5 -7t-40.5 -19.5t-23 -29t-7 -35.5t9.5 -35.5t41 -37.5t92 -50t162.5 -73q94 -41 160.5 -81t108 -85
t60.5 -97t19 -116q0 -75 -21 -134t-59.5 -105.5t-93 -83t-121.5 -66.5q12 -26 18.5 -54.5t6.5 -60.5q0 -79 -27 -146.5t-81.5 -116.5t-136.5 -77t-192 -28q-155 0 -266.5 43.5t-196.5 128.5l177 184q31 -26 65 -48.5t73.5 -38.5t84.5 -25t98 -9q70 0 100.5 26.5t30.5 63.5
q0 19 -9.5 36t-41 38t-92 50t-162.5 73q-95 40 -161 80.5t-107.5 85t-60.5 96.5t-19 117q0 75 21 134t59.5 105.5t93 83t121.5 66.5zM882 322q87 29 132.5 72.5t45.5 111.5q0 29 -12 53t-47.5 51t-101 60.5t-172.5 81.5q-38 17 -69 32.5t-60 32.5q-87 -29 -133 -72.5
t-46 -111.5q0 -29 12 -53t47.5 -51t101 -60.5t173.5 -81.5q37 -17 68.5 -32.5t60.5 -32.5z" />
    <glyph glyph-name="dieresis" unicode="&#xa8;" horiz-adv-x="1024" 
d="M1038 1376q0 -32 -12.5 -60t-34.5 -50t-50.5 -34.5t-59.5 -12.5q-33 0 -62.5 12.5t-51.5 34.5t-35 50t-13 60q0 33 13 62t35 51t51.5 34.5t62.5 12.5q31 0 59.5 -12.5t50.5 -34.5t34.5 -51t12.5 -62zM596 1376q0 -32 -13 -60t-35 -50t-51 -34.5t-61 -12.5t-61 12.5
t-51 34.5t-35 50t-13 60q0 33 13 62t35 51t51 34.5t61 12.5t61 -12.5t51 -34.5t35 -51t13 -62z" />
    <glyph glyph-name="copyright" unicode="&#xa9;" horiz-adv-x="1712" 
d="M1615 717q0 -158 -56.5 -293t-155.5 -234.5t-234 -156t-293 -56.5t-293 56.5t-234 156t-155.5 234.5t-56.5 293t56.5 293t155.5 234.5t235.5 155.5t291.5 56q158 0 294 -57t234 -155.5t154.5 -233.5t56.5 -293zM1484 717q0 130 -46.5 241t-128 192.5t-192.5 128
t-241 46.5t-241 -46.5t-192.5 -128t-128 -192.5t-46.5 -241t46.5 -241t128 -192.5t192.5 -128t241 -46.5t241 46.5t192.5 128t128 192.5t46.5 241zM1021 870q-24 44 -55.5 67.5t-79.5 23.5q-33 0 -64 -13.5t-53 -44.5t-33 -75.5t-11 -106.5q0 -63 11.5 -106.5t35 -74.5
t53 -44t63.5 -13q45 0 79.5 27t66.5 78l143 -99q-48 -89 -118 -136.5t-175 -47.5q-79 0 -144 29.5t-111 83.5t-71.5 131t-25.5 172q0 91 26 168t73.5 132.5t113 86.5t143.5 31q104 0 178 -45t117 -133z" />
    <glyph glyph-name="ordfeminine" unicode="&#xaa;" horiz-adv-x="969" 
d="M956 1214q0 -16 -1.5 -32t-4.5 -31l-104 -586h-223l12 64q-37 -32 -88.5 -56t-110.5 -24q-66 0 -118.5 19.5t-89.5 55t-56.5 84t-19.5 107.5q0 72 25 132.5t72.5 105t115.5 69.5t155 25q57 0 114.5 -11.5t84.5 -23.5l8 43q2 8 2 14.5v12.5q0 42 -38.5 65t-125.5 23
q-52 0 -100 -13t-90 -30l-58 164q54 25 131.5 45t149.5 20q174 0 266 -62.5t92 -179.5zM688 934q-28 14 -68 24.5t-100 10.5q-69 0 -104 -34.5t-35 -88.5q0 -48 30 -78.5t93 -30.5q28 0 53 7.5t45.5 19.5t37 27t28.5 30z" />
    <glyph glyph-name="guillemotleft" unicode="&#xab;" horiz-adv-x="1286" 
d="M881 539l229 -539h-293l-239 537l428 538h292zM365 539l229 -539h-293l-240 537l428 538h293z" />
    <glyph glyph-name="logicalnot" unicode="&#xac;" horiz-adv-x="1255" 
d="M1143 182h-281v389h-749v267h1030v-656z" />
    <glyph glyph-name="registered" unicode="&#xae;" horiz-adv-x="1712" 
d="M1616 717q0 -158 -56.5 -293t-155.5 -234.5t-234 -156t-293 -56.5t-293 56.5t-234 156t-155.5 234.5t-56.5 293t56.5 293t155.5 234.5t235.5 155.5t291.5 56q158 0 294 -57t234 -155.5t154.5 -233.5t56.5 -293zM1485 717q0 130 -46.5 241t-128 192.5t-192.5 128
t-241 46.5t-241 -46.5t-192.5 -128t-128 -192.5t-46.5 -241t46.5 -241t128 -192.5t192.5 -128t241 -46.5t241 46.5t192.5 128t128 192.5t46.5 241zM1229 881q0 -85 -37.5 -144.5t-121.5 -91.5l155 -317h-192l-146 295h-139v-295h-170v807h375q58 0 108.5 -15.5t87.5 -47
t58.5 -79.5t21.5 -112zM1055 877q0 54 -30 78t-84 24h-193v-207h193q55 0 84.5 27t29.5 78z" />
    <glyph glyph-name="macron" unicode="&#xaf;" horiz-adv-x="1024" 
d="M936 1249h-594l37 215h594z" />
    <glyph glyph-name="macron" unicode="&#x2c9;" horiz-adv-x="1024" 
d="M936 1249h-594l37 215h594z" />
    <glyph glyph-name="degree" unicode="&#xb0;" horiz-adv-x="995" 
d="M923 1053q0 -87 -31 -161.5t-85.5 -129.5t-128.5 -86t-160 -31t-160 31t-128.5 86t-86 129.5t-31.5 161.5q0 84 31.5 157.5t86 128t128.5 86t160 31.5t160 -31.5t128.5 -86t85.5 -128t31 -157.5zM708 1053q0 39 -14.5 73.5t-40 60.5t-60.5 41t-75 15t-75 -15t-60.5 -41
t-40.5 -60.5t-15 -73.5q0 -42 15 -77.5t40.5 -61.5t60.5 -41t75 -15t75 15t60.5 41t40 61.5t14.5 77.5z" />
    <glyph glyph-name="plusminus" unicode="&#xb1;" horiz-adv-x="1255" 
d="M768 797v-369h-281v369h-374v266h374v369h281v-369h375v-266h-375zM113 61v250h1030v-250h-1030z" />
    <glyph glyph-name="twosuperior" unicode="&#xb2;" horiz-adv-x="850" 
d="M-21 530q24 129 71 219.5t111.5 153t143.5 102.5t168 69q54 17 83.5 42t29.5 67q0 35 -32 54t-102 19q-66 0 -127 -26.5t-114 -67.5l-103 159q81 69 172 101t188 32q76 0 136.5 -17t102.5 -48.5t64 -77.5t22 -103q0 -61 -16.5 -107t-52.5 -83t-92 -67.5t-135 -60.5
q-48 -18 -84 -36t-61.5 -35.5t-46 -39.5t-37.5 -54h444l-34 -195h-699z" />
    <glyph glyph-name="threesuperior" unicode="&#xb3;" horiz-adv-x="801" 
d="M721 1220q0 -45 -13.5 -80t-34 -61t-46 -44t-49.5 -29q51 -21 79 -63t28 -109q0 -75 -25.5 -133t-73.5 -98.5t-116 -61.5t-152 -21q-132 0 -227.5 58.5t-159.5 154.5l167 100q55 -71 107 -98.5t126 -27.5q30 0 56.5 8.5t46.5 24t32 37.5t12 49q0 38 -23 62.5t-79 24.5
h-100l30 181h99q29 0 49.5 8t33 21t18.5 29.5t6 33.5q0 33 -26.5 58t-90.5 25q-42 0 -86.5 -18t-86.5 -51l-127 133q40 36 83 60t85 38t81 19.5t73 5.5q72 0 128.5 -16.5t95.5 -47.5t59.5 -74.5t20.5 -97.5z" />
    <glyph glyph-name="acute" unicode="&#xb4;" horiz-adv-x="1024" 
d="M643 1219h-240l236 327h358z" />
    <glyph glyph-name="mu" unicode="&#xb5;" horiz-adv-x="1198" 
d="M967 0h-283l12 72q-32 -29 -52.5 -41.5t-45.5 -24t-59 -20.5t-86 -9q-31 0 -68 3.5t-63 12.5l-43 -247l-308 -141l260 1470h283l-102 -581q-4 -26 -6.5 -50t-2.5 -45q0 -77 37 -116t113 -39q42 0 77 13t62 42t46.5 75t31.5 113l102 588h283z" />
    <glyph glyph-name="paragraph" unicode="&#xb6;" horiz-adv-x="1475" 
d="M1130 -379h-233l281 1596h-131l-281 -1596h-234l160 914h-65q-104 0 -188.5 27.5t-144.5 79.5t-93 125t-33 165q0 108 35.5 199.5t103 159t164.5 105.5t221 38h758z" />
    <glyph glyph-name="periodcentered" unicode="&#xb7;" horiz-adv-x="557" 
d="M506 752q0 -39 -15.5 -74.5t-41.5 -61.5t-61.5 -41.5t-74.5 -15.5t-74 15.5t-61 41.5t-41.5 61.5t-15.5 74.5t15.5 74t41.5 61t61 41.5t74 15.5t74.5 -15.5t61.5 -41.5t41.5 -61t15.5 -74z" />
    <glyph glyph-name="periodcentered" unicode="&#x2219;" horiz-adv-x="557" 
d="M506 752q0 -39 -15.5 -74.5t-41.5 -61.5t-61.5 -41.5t-74.5 -15.5t-74 15.5t-61 41.5t-41.5 61.5t-15.5 74.5t15.5 74t41.5 61t61 41.5t74 15.5t74.5 -15.5t61.5 -41.5t41.5 -61t15.5 -74z" />
    <glyph glyph-name="cedilla" unicode="&#xb8;" horiz-adv-x="1024" 
d="M641 -201q0 -45 -17 -81t-48.5 -61t-75.5 -38.5t-99 -13.5q-83 0 -158.5 26t-133.5 70l57 74q40 -28 91 -48t103 -20q45 0 74 18t29 52q0 29 -17 41t-49 12q-12 0 -26.5 -4t-26.5 -10l-70 28l97 232h114l-63 -162q17 5 35 9.5t43 4.5q62 0 101.5 -35t39.5 -94z" />
    <glyph glyph-name="onesuperior" unicode="&#xb9;" horiz-adv-x="625" 
d="M276 1161h-150l27 154q42 3 74 9.5t56.5 20t42.5 35t33 54.5h180l-161 -910h-215z" />
    <glyph glyph-name="ordmasculine" unicode="&#xba;" horiz-adv-x="997" 
d="M979 1083q0 -102 -34 -201.5t-98 -175.5t-143 -116.5t-174 -40.5q-72 0 -135.5 23.5t-110.5 70t-74.5 116.5t-27.5 163q0 97 34 197.5t95 175.5t142.5 118t177.5 43q72 0 135.5 -23.5t110.5 -70t74.5 -116.5t27.5 -163zM748 1069q0 85 -37 125.5t-99 40.5
q-51 0 -88.5 -27.5t-62 -71t-36 -96.5t-11.5 -104q0 -85 36.5 -125.5t98.5 -40.5q51 0 88.5 27.5t62 71t36.5 96.5t12 104z" />
    <glyph glyph-name="guillemotright" unicode="&#xbb;" horiz-adv-x="1286" 
d="M797 0h-293l418 537l-230 538h293l240 -536zM281 0h-293l418 537l-230 538h293l240 -536z" />
    <glyph glyph-name="onequarter" unicode="&#xbc;" horiz-adv-x="1905" 
d="M442 1161h-150l27 154q42 3 74 9.5t56.5 20t42.5 35t33 54.5h180l-161 -910h-215zM518 0h-303l1214 1434h303zM1442 191h-473l27 152l568 569h209l-96 -540h113l-32 -185h-113l-33 -184h-203zM1474 372l49 278l-272 -278h223z" />
    <glyph glyph-name="onehalf" unicode="&#xbd;" horiz-adv-x="1905" 
d="M393 1161h-150l27 154q42 3 74 9.5t56.5 20t42.5 35t33 54.5h180l-161 -910h-215zM437 0h-303l1214 1434h303zM1031 1q24 129 71 219.5t111.5 153t143.5 102.5t168 69q54 17 83.5 42t29.5 67q0 35 -32 54t-102 19q-66 0 -127 -26.5t-114 -67.5l-103 159q81 69 172 101
t188 32q76 0 136.5 -17t102.5 -48.5t64 -77.5t22 -103q0 -61 -16.5 -107t-52.5 -83t-92 -67.5t-135 -60.5q-48 -18 -84 -36t-61.5 -35.5t-46 -39.5t-37.5 -54h444l-34 -195h-699z" />
    <glyph glyph-name="threequarters" unicode="&#xbe;" horiz-adv-x="1905" 
d="M927 1220q0 -45 -13.5 -80t-34 -61t-46 -44t-49.5 -29q51 -21 79 -63t28 -109q0 -75 -25.5 -133t-73.5 -98.5t-116 -61.5t-152 -21q-132 0 -227.5 58.5t-159.5 154.5l167 100q55 -71 107 -98.5t126 -27.5q30 0 56.5 8.5t46.5 24t32 37.5t12 49q0 38 -23 62.5t-79 24.5
h-100l30 181h99q29 0 49.5 8t33 21t18.5 29.5t6 33.5q0 33 -26.5 58t-90.5 25q-42 0 -86.5 -18t-86.5 -51l-127 133q40 36 83 60t85 38t81 19.5t73 5.5q72 0 128.5 -16.5t95.5 -47.5t59.5 -74.5t20.5 -97.5zM667 0h-303l1214 1434h303zM1533 191h-473l27 152l568 569h209
l-96 -540h113l-32 -185h-113l-33 -184h-203zM1565 372l49 278l-272 -278h223z" />
    <glyph glyph-name="questiondown" unicode="&#xbf;" horiz-adv-x="1188" 
d="M45 344q0 82 18 146.5t57.5 116t102.5 93t152 78.5q48 20 83 40t59.5 44t39.5 53.5t21 67.5h280q-9 -90 -32 -151.5t-61.5 -105.5t-93.5 -75t-128 -59q-51 -20 -89.5 -39.5t-63.5 -42t-37.5 -49t-12.5 -60.5q0 -63 54 -103t151 -40q45 0 94.5 8.5t100.5 27t101.5 47
t98.5 67.5l145 -226q-125 -100 -269.5 -152.5t-303.5 -52.5q-120 0 -207.5 30t-145.5 80.5t-86 117t-28 139.5zM596 1282q0 35 14 66.5t38 55.5t55.5 38t66.5 14t66.5 -14t55.5 -38t38 -55.5t14 -66.5t-14 -66.5t-38 -55.5t-55.5 -38t-66.5 -14t-66.5 14t-55.5 38t-38 55.5
t-14 66.5z" />
    <glyph glyph-name="Agrave" unicode="&#xc0;" horiz-adv-x="1528" 
d="M1049 0l-56 319h-518l-168 -319h-317l796 1434h279l289 -1434h-305zM863 1058l-245 -466h326zM834 1526l-240 327h358l121 -327h-239z" />
    <glyph glyph-name="Aacute" unicode="&#xc1;" horiz-adv-x="1528" 
d="M1049 0l-56 319h-518l-168 -319h-317l796 1434h279l289 -1434h-305zM863 1058l-245 -466h326zM1042 1526h-240l236 327h358z" />
    <glyph glyph-name="Acircumflex" unicode="&#xc2;" horiz-adv-x="1528" 
d="M1049 0l-56 319h-518l-168 -319h-317l796 1434h279l289 -1434h-305zM863 1058l-245 -466h326zM1129 1526l-178 153l-232 -153h-194l307 327h287l192 -327h-182z" />
    <glyph glyph-name="Atilde" unicode="&#xc3;" horiz-adv-x="1528" 
d="M1049 0l-56 319h-518l-168 -319h-317l796 1434h279l289 -1434h-305zM863 1058l-245 -466h326zM1391 1814q-12 -68 -38 -123t-62.5 -93t-82.5 -58.5t-98 -20.5q-54 0 -97.5 17t-80.5 37q-35 20 -66.5 35.5t-62.5 15.5q-26 0 -45 -22t-37 -76h-184q11 68 36.5 122.5
t61.5 92.5t82 58.5t98 20.5q53 0 95 -15.5t77 -35.5q38 -20 70.5 -36.5t64.5 -16.5q29 0 46.5 22.5t37.5 75.5h185z" />
    <glyph glyph-name="Adieresis" unicode="&#xc4;" horiz-adv-x="1528" 
d="M1049 0l-56 319h-518l-168 -319h-317l796 1434h279l289 -1434h-305zM863 1058l-245 -466h326zM1337 1683q0 -32 -12.5 -60t-34.5 -50t-50.5 -34.5t-59.5 -12.5q-33 0 -62.5 12.5t-51.5 34.5t-35 50t-13 60q0 33 13 62t35 51t51.5 34.5t62.5 12.5q31 0 59.5 -12.5
t50.5 -34.5t34.5 -51t12.5 -62zM895 1683q0 -32 -13 -60t-35 -50t-51 -34.5t-61 -12.5t-61 12.5t-51 34.5t-35 50t-13 60q0 33 13 62t35 51t51 34.5t61 12.5t61 -12.5t51 -34.5t35 -51t13 -62z" />
    <glyph glyph-name="Aring" unicode="&#xc5;" horiz-adv-x="1528" 
d="M1049 0l-56 319h-518l-168 -319h-317l743 1335q-35 37 -54.5 85.5t-19.5 105.5q0 59 21 109.5t58 87.5t88 58t110 21t109.5 -21t87.5 -58t58 -87.5t21 -109.5q0 -75 -32.5 -133.5t-87.5 -94.5l262 -1298h-305zM863 1058l-245 -466h326zM1057 1526q0 26 -9.5 48.5
t-25.5 39t-38.5 26t-47.5 9.5q-26 0 -48 -9.5t-38 -26t-25.5 -39t-9.5 -48.5t9.5 -48.5t25.5 -39t38 -26t48 -9.5q25 0 47.5 9.5t38.5 26t25.5 39t9.5 48.5z" />
    <glyph glyph-name="AE" unicode="&#xc6;" horiz-adv-x="2118" 
d="M1262 274h690l-49 -274h-965l45 256h-498l-204 -256h-347l1192 1434h998l-47 -275h-660l-45 -258h567l-49 -270h-567zM688 508h340l98 542z" />
    <glyph glyph-name="Ccedilla" unicode="&#xc7;" horiz-adv-x="1364" 
d="M1085 985q-22 42 -47.5 76.5t-57.5 59.5t-74 39t-97 14q-87 0 -158.5 -47t-122.5 -125.5t-79.5 -180.5t-28.5 -213q0 -87 21 -152t58.5 -108t89.5 -64.5t113 -21.5q85 0 152.5 46t132.5 134l230 -166q-57 -77 -117.5 -133t-127 -93t-141 -55t-159.5 -18q-103 0 -202 32.5
t-176.5 103t-125 182.5t-47.5 272q0 159 35.5 291t83 216t101 147t131.5 118t173.5 86t194.5 31q106 0 187.5 -21.5t144 -63.5t109 -103t83.5 -140zM866 -201q0 -45 -17 -81t-48.5 -61t-75.5 -38.5t-99 -13.5q-83 0 -158.5 26t-133.5 70l57 74q40 -28 91 -48t103 -20
q45 0 74 18t29 52q0 29 -17 41t-49 12q-12 0 -26.5 -4t-26.5 -10l-70 28l97 232h114l-63 -162q17 5 35 9.5t43 4.5q62 0 101.5 -35t39.5 -94z" />
    <glyph glyph-name="Egrave" unicode="&#xc8;" horiz-adv-x="1323" 
d="M90 0l252 1434h987l-49 -281h-700l-43 -248h567l-49 -278h-568l-61 -346h731l-49 -281h-1018zM750 1526l-240 327h358l121 -327h-239z" />
    <glyph glyph-name="Eacute" unicode="&#xc9;" horiz-adv-x="1323" 
d="M90 0l252 1434h987l-49 -281h-700l-43 -248h567l-49 -278h-568l-61 -346h731l-49 -281h-1018zM928 1526h-240l236 327h358z" />
    <glyph glyph-name="Ecircumflex" unicode="&#xca;" horiz-adv-x="1323" 
d="M90 0l252 1434h987l-49 -281h-700l-43 -248h567l-49 -278h-568l-61 -346h731l-49 -281h-1018zM1051 1526l-178 153l-232 -153h-194l307 327h287l192 -327h-182z" />
    <glyph glyph-name="Edieresis" unicode="&#xcb;" horiz-adv-x="1323" 
d="M90 0l252 1434h987l-49 -281h-700l-43 -248h567l-49 -278h-568l-61 -346h731l-49 -281h-1018zM1245 1683q0 -32 -12.5 -60t-34.5 -50t-50.5 -34.5t-59.5 -12.5q-33 0 -62.5 12.5t-51.5 34.5t-35 50t-13 60q0 33 13 62t35 51t51.5 34.5t62.5 12.5q31 0 59.5 -12.5
t50.5 -34.5t34.5 -51t12.5 -62zM803 1683q0 -32 -13 -60t-35 -50t-51 -34.5t-61 -12.5t-61 12.5t-51 34.5t-35 50t-13 60q0 33 13 62t35 51t51 34.5t61 12.5t61 -12.5t51 -34.5t35 -51t13 -62z" />
    <glyph glyph-name="Igrave" unicode="&#xcc;" horiz-adv-x="696" 
d="M395 0h-286l253 1434h287zM402 1526l-240 327h358l121 -327h-239z" />
    <glyph glyph-name="Iacute" unicode="&#xcd;" horiz-adv-x="696" 
d="M395 0h-286l253 1434h287zM637 1526h-240l236 327h358z" />
    <glyph glyph-name="Icircumflex" unicode="&#xce;" horiz-adv-x="696" 
d="M395 0h-286l253 1434h287zM723 1506l-178 153l-232 -153h-194l307 327h287l192 -327h-182z" />
    <glyph glyph-name="Idieresis" unicode="&#xcf;" horiz-adv-x="696" 
d="M395 0h-286l253 1434h287zM917 1673q0 -32 -12.5 -60t-34.5 -50t-50.5 -34.5t-59.5 -12.5q-33 0 -62.5 12.5t-51.5 34.5t-35 50t-13 60q0 33 13 62t35 51t51.5 34.5t62.5 12.5q31 0 59.5 -12.5t50.5 -34.5t34.5 -51t12.5 -62zM475 1673q0 -32 -13 -60t-35 -50t-51 -34.5
t-61 -12.5t-61 12.5t-51 34.5t-35 50t-13 60q0 33 13 62t35 51t51 34.5t61 12.5t61 -12.5t51 -34.5t35 -51t13 -62z" />
    <glyph glyph-name="Eth" unicode="&#xd0;" horiz-adv-x="1470" 
d="M1418 859q-1 -90 -21.5 -206.5t-66 -214.5t-107 -172.5t-152 -134.5t-208 -95.5t-253.5 -35.5h-491l112 631h-133l41 235h133l101 568h327q207 0 354 -47.5t227 -133.5t108.5 -184t28.5 -210zM1117 814q0 62 -15 119.5t-58.5 108.5t-130.5 82t-219 31h-92l-51 -289h184
l-41 -235h-186l-62 -352h187q89 0 167 26t139 76.5t94 106t48.5 102t25.5 109t10 115.5z" />
    <glyph glyph-name="Ntilde" unicode="&#xd1;" horiz-adv-x="1522" 
d="M1243 0h-256l-446 958l-168 -958h-283l252 1434h274l434 -921l162 921h283zM1391 1814q-12 -68 -38 -123t-62.5 -93t-82.5 -58.5t-98 -20.5q-54 0 -97.5 17t-80.5 37q-35 20 -66.5 35.5t-62.5 15.5q-26 0 -45 -22t-37 -76h-184q11 68 36.5 122.5t61.5 92.5t82 58.5
t98 20.5q53 0 95 -15.5t77 -35.5q38 -20 70.5 -36.5t64.5 -16.5q29 0 46.5 22.5t37.5 75.5h185z" />
    <glyph glyph-name="Ograve" unicode="&#xd2;" horiz-adv-x="1464" 
d="M1409 866q0 -121 -23.5 -233.5t-68 -211.5t-108.5 -180.5t-144 -140t-175 -91t-202 -32.5q-132 0 -237 40.5t-178.5 116.5t-112.5 185.5t-39 247.5q0 121 23.5 234t68 211.5t108.5 180.5t144 140.5t175 90.5t202 32q132 0 237 -40.5t178.5 -116.5t112.5 -185.5t39 -247.5
zM1110 825q0 89 -22.5 154.5t-61.5 108t-91.5 63t-113.5 20.5q-83 0 -156 -40.5t-127.5 -114.5t-86 -177.5t-31.5 -230.5q0 -89 22.5 -154t61.5 -108t91.5 -63.5t113.5 -20.5q83 0 156 40.5t127.5 114.5t86 177.5t31.5 230.5zM803 1526l-240 327h358l121 -327h-239z" />
    <glyph glyph-name="Oacute" unicode="&#xd3;" horiz-adv-x="1464" 
d="M1409 866q0 -121 -23.5 -233.5t-68 -211.5t-108.5 -180.5t-144 -140t-175 -91t-202 -32.5q-132 0 -237 40.5t-178.5 116.5t-112.5 185.5t-39 247.5q0 121 23.5 234t68 211.5t108.5 180.5t144 140.5t175 90.5t202 32q132 0 237 -40.5t178.5 -116.5t112.5 -185.5t39 -247.5
zM1110 825q0 89 -22.5 154.5t-61.5 108t-91.5 63t-113.5 20.5q-83 0 -156 -40.5t-127.5 -114.5t-86 -177.5t-31.5 -230.5q0 -89 22.5 -154t61.5 -108t91.5 -63.5t113.5 -20.5q83 0 156 40.5t127.5 114.5t86 177.5t31.5 230.5zM967 1526h-240l236 327h358z" />
    <glyph glyph-name="Ocircumflex" unicode="&#xd4;" horiz-adv-x="1464" 
d="M1409 866q0 -121 -23.5 -233.5t-68 -211.5t-108.5 -180.5t-144 -140t-175 -91t-202 -32.5q-132 0 -237 40.5t-178.5 116.5t-112.5 185.5t-39 247.5q0 121 23.5 234t68 211.5t108.5 180.5t144 140.5t175 90.5t202 32q132 0 237 -40.5t178.5 -116.5t112.5 -185.5t39 -247.5
zM1110 825q0 89 -22.5 154.5t-61.5 108t-91.5 63t-113.5 20.5q-83 0 -156 -40.5t-127.5 -114.5t-86 -177.5t-31.5 -230.5q0 -89 22.5 -154t61.5 -108t91.5 -63.5t113.5 -20.5q83 0 156 40.5t127.5 114.5t86 177.5t31.5 230.5zM1104 1516l-178 153l-232 -153h-194l307 327
h287l192 -327h-182z" />
    <glyph glyph-name="Otilde" unicode="&#xd5;" horiz-adv-x="1464" 
d="M1409 866q0 -121 -23.5 -233.5t-68 -211.5t-108.5 -180.5t-144 -140t-175 -91t-202 -32.5q-132 0 -237 40.5t-178.5 116.5t-112.5 185.5t-39 247.5q0 121 23.5 234t68 211.5t108.5 180.5t144 140.5t175 90.5t202 32q132 0 237 -40.5t178.5 -116.5t112.5 -185.5t39 -247.5
zM1110 825q0 89 -22.5 154.5t-61.5 108t-91.5 63t-113.5 20.5q-83 0 -156 -40.5t-127.5 -114.5t-86 -177.5t-31.5 -230.5q0 -89 22.5 -154t61.5 -108t91.5 -63.5t113.5 -20.5q83 0 156 40.5t127.5 114.5t86 177.5t31.5 230.5zM1352 1814q-12 -68 -38 -123t-62.5 -93
t-82.5 -58.5t-98 -20.5q-54 0 -97.5 17t-80.5 37q-35 20 -66.5 35.5t-62.5 15.5q-26 0 -45 -22t-37 -76h-184q11 68 36.5 122.5t61.5 92.5t82 58.5t98 20.5q53 0 95 -15.5t77 -35.5q38 -20 70.5 -36.5t64.5 -16.5q29 0 46.5 22.5t37.5 75.5h185z" />
    <glyph glyph-name="Odieresis" unicode="&#xd6;" horiz-adv-x="1464" 
d="M1409 866q0 -121 -23.5 -233.5t-68 -211.5t-108.5 -180.5t-144 -140t-175 -91t-202 -32.5q-132 0 -237 40.5t-178.5 116.5t-112.5 185.5t-39 247.5q0 121 23.5 234t68 211.5t108.5 180.5t144 140.5t175 90.5t202 32q132 0 237 -40.5t178.5 -116.5t112.5 -185.5t39 -247.5
zM1110 825q0 89 -22.5 154.5t-61.5 108t-91.5 63t-113.5 20.5q-83 0 -156 -40.5t-127.5 -114.5t-86 -177.5t-31.5 -230.5q0 -89 22.5 -154t61.5 -108t91.5 -63.5t113.5 -20.5q83 0 156 40.5t127.5 114.5t86 177.5t31.5 230.5zM1298 1683q0 -32 -12.5 -60t-34.5 -50
t-50.5 -34.5t-59.5 -12.5q-33 0 -62.5 12.5t-51.5 34.5t-35 50t-13 60q0 33 13 62t35 51t51.5 34.5t62.5 12.5q31 0 59.5 -12.5t50.5 -34.5t34.5 -51t12.5 -62zM856 1683q0 -32 -13 -60t-35 -50t-51 -34.5t-61 -12.5t-61 12.5t-51 34.5t-35 50t-13 60q0 33 13 62t35 51
t51 34.5t61 12.5t61 -12.5t51 -34.5t35 -51t13 -62z" />
    <glyph glyph-name="multiply" unicode="&#xd7;" 
d="M997 184l-342 348l-342 -348l-178 178l348 343l-348 342l178 178l342 -348l342 348l178 -178l-348 -342l348 -343z" />
    <glyph glyph-name="Oslash" unicode="&#xd8;" horiz-adv-x="1464" 
d="M252 156q-63 77 -97 180t-34 231q0 121 23.5 234t68 211.5t108.5 180.5t144 140.5t175 90.5t202 32q140 0 245 -43l82 123h271l-168 -252q66 -75 101.5 -181t35.5 -237q0 -121 -23.5 -233.5t-68 -211.5t-108.5 -180.5t-144 -140t-175 -91t-202 -32.5q-136 0 -254 48
l-84 -127h-270zM924 1165q-48 19 -103 19q-83 0 -156.5 -42.5t-129 -119t-87.5 -182t-32 -232.5q0 -90 26 -166zM598 270q50 -20 111 -20q83 0 156.5 42.5t129 118.5t87.5 181.5t32 232.5q0 104 -31 176z" />
    <glyph glyph-name="Ugrave" unicode="&#xd9;" horiz-adv-x="1501" 
d="M1337 594q-27 -152 -76 -267t-126 -193t-185 -117.5t-252 -39.5q-114 0 -209 29.5t-163.5 90t-107 153.5t-38.5 221q0 35 3.5 86.5t13.5 104.5l135 772h286l-131 -742q-6 -37 -11 -85.5t-5 -100.5q0 -125 66 -186.5t196 -61.5q62 0 114 19t92.5 60t69 105.5t44.5 155.5
l145 836h287zM834 1495l-240 327h358l121 -327h-239z" />
    <glyph glyph-name="Uacute" unicode="&#xda;" horiz-adv-x="1501" 
d="M1337 594q-27 -152 -76 -267t-126 -193t-185 -117.5t-252 -39.5q-114 0 -209 29.5t-163.5 90t-107 153.5t-38.5 221q0 35 3.5 86.5t13.5 104.5l135 772h286l-131 -742q-6 -37 -11 -85.5t-5 -100.5q0 -125 66 -186.5t196 -61.5q62 0 114 19t92.5 60t69 105.5t44.5 155.5
l145 836h287zM997 1495h-240l236 327h358z" />
    <glyph glyph-name="Ucircumflex" unicode="&#xdb;" horiz-adv-x="1501" 
d="M1337 594q-27 -152 -76 -267t-126 -193t-185 -117.5t-252 -39.5q-114 0 -209 29.5t-163.5 90t-107 153.5t-38.5 221q0 35 3.5 86.5t13.5 104.5l135 772h286l-131 -742q-6 -37 -11 -85.5t-5 -100.5q0 -125 66 -186.5t196 -61.5q62 0 114 19t92.5 60t69 105.5t44.5 155.5
l145 836h287zM1114 1526l-178 153l-232 -153h-194l307 327h287l192 -327h-182z" />
    <glyph glyph-name="Udieresis" unicode="&#xdc;" horiz-adv-x="1501" 
d="M1337 594q-27 -152 -76 -267t-126 -193t-185 -117.5t-252 -39.5q-114 0 -209 29.5t-163.5 90t-107 153.5t-38.5 221q0 35 3.5 86.5t13.5 104.5l135 772h286l-131 -742q-6 -37 -11 -85.5t-5 -100.5q0 -125 66 -186.5t196 -61.5q62 0 114 19t92.5 60t69 105.5t44.5 155.5
l145 836h287zM1327 1683q0 -32 -12.5 -60t-34.5 -50t-50.5 -34.5t-59.5 -12.5q-33 0 -62.5 12.5t-51.5 34.5t-35 50t-13 60q0 33 13 62t35 51t51.5 34.5t62.5 12.5q31 0 59.5 -12.5t50.5 -34.5t34.5 -51t12.5 -62zM885 1683q0 -32 -13 -60t-35 -50t-51 -34.5t-61 -12.5
t-61 12.5t-51 34.5t-35 50t-13 60q0 33 13 62t35 51t51 34.5t61 12.5t61 -12.5t51 -34.5t35 -51t13 -62z" />
    <glyph glyph-name="Yacute" unicode="&#xdd;" horiz-adv-x="1454" 
d="M877 567l-101 -567h-287l99 561l-385 873h311l251 -606l470 606h332zM973 1506h-240l236 327h358z" />
    <glyph glyph-name="Thorn" unicode="&#xde;" horiz-adv-x="1384" 
d="M1346 823q0 -126 -38.5 -225.5t-113 -168.5t-184 -105.5t-250.5 -36.5h-332l-51 -287h-287l254 1434h287l-39 -222h264q119 0 210.5 -26.5t153.5 -76.5t94 -122.5t32 -163.5zM1044 778q0 34 -10.5 62.5t-34.5 49.5t-63 32.5t-96 11.5h-297l-66 -369h334q108 0 170.5 57
t62.5 156z" />
    <glyph glyph-name="germandbls" unicode="&#xdf;" horiz-adv-x="1192" 
d="M1106 1149q0 -76 -20.5 -133t-54.5 -98t-79 -67.5t-94 -41.5q58 -20 103.5 -46.5t77 -65.5t48.5 -93.5t17 -130.5q0 -114 -37 -202t-103 -148t-156.5 -90.5t-197.5 -30.5q-72 0 -129 8l45 252q30 -3 60 -4q108 0 168.5 60t60.5 178q0 94 -52 140t-151 46h-12l43 246h10
q32 0 60.5 10.5t49.5 32t33.5 54t12.5 75.5q0 60 -37 91.5t-102 31.5q-74 0 -110.5 -45.5t-49.5 -124.5l-229 -1307l-308 -141l256 1462q41 221 155.5 320.5t303.5 99.5q103 0 181.5 -24.5t131 -69t79 -107t26.5 -137.5z" />
    <glyph glyph-name="agrave" unicode="&#xe0;" horiz-adv-x="1130" 
d="M1038 778q0 -21 -1.5 -43t-6.5 -47l-121 -688h-282l14 72q-42 -39 -99 -67t-132 -28q-72 0 -137.5 19.5t-115.5 60t-80 104t-30 150.5q0 91 31.5 165.5t89.5 128t140 83t184 29.5q73 0 146 -13.5t107 -29.5l7 43q2 13 2 20v15q0 56 -43 84t-144 28q-68 0 -131.5 -16
t-111.5 -39l-74 201q72 40 166 64t188 24q95 0 175 -18t137.5 -57t89.5 -99.5t32 -145.5zM707 451q-34 18 -84 31.5t-119 13.5q-42 0 -73.5 -12t-52.5 -33t-31.5 -49t-10.5 -60q0 -60 38.5 -92.5t117.5 -32.5q33 0 62 9t53.5 23t43.5 31.5t31 34.5zM602 1219l-240 327h358
l121 -327h-239z" />
    <glyph glyph-name="aacute" unicode="&#xe1;" horiz-adv-x="1130" 
d="M1038 778q0 -21 -1.5 -43t-6.5 -47l-121 -688h-282l14 72q-42 -39 -99 -67t-132 -28q-72 0 -137.5 19.5t-115.5 60t-80 104t-30 150.5q0 91 31.5 165.5t89.5 128t140 83t184 29.5q73 0 146 -13.5t107 -29.5l7 43q2 13 2 20v15q0 56 -43 84t-144 28q-68 0 -131.5 -16
t-111.5 -39l-74 201q72 40 166 64t188 24q95 0 175 -18t137.5 -57t89.5 -99.5t32 -145.5zM707 451q-34 18 -84 31.5t-119 13.5q-42 0 -73.5 -12t-52.5 -33t-31.5 -49t-10.5 -60q0 -60 38.5 -92.5t117.5 -32.5q33 0 62 9t53.5 23t43.5 31.5t31 34.5zM764 1219h-240l236 327
h358z" />
    <glyph glyph-name="acircumflex" unicode="&#xe2;" horiz-adv-x="1130" 
d="M1038 778q0 -21 -1.5 -43t-6.5 -47l-121 -688h-282l14 72q-42 -39 -99 -67t-132 -28q-72 0 -137.5 19.5t-115.5 60t-80 104t-30 150.5q0 91 31.5 165.5t89.5 128t140 83t184 29.5q73 0 146 -13.5t107 -29.5l7 43q2 13 2 20v15q0 56 -43 84t-144 28q-68 0 -131.5 -16
t-111.5 -39l-74 201q72 40 166 64t188 24q95 0 175 -18t137.5 -57t89.5 -99.5t32 -145.5zM707 451q-34 18 -84 31.5t-119 13.5q-42 0 -73.5 -12t-52.5 -33t-31.5 -49t-10.5 -60q0 -60 38.5 -92.5t117.5 -32.5q33 0 62 9t53.5 23t43.5 31.5t31 34.5zM891 1211l-178 153
l-232 -153h-194l307 327h287l192 -327h-182z" />
    <glyph glyph-name="atilde" unicode="&#xe3;" horiz-adv-x="1130" 
d="M1038 778q0 -21 -1.5 -43t-6.5 -47l-121 -688h-282l14 72q-42 -39 -99 -67t-132 -28q-72 0 -137.5 19.5t-115.5 60t-80 104t-30 150.5q0 91 31.5 165.5t89.5 128t140 83t184 29.5q73 0 146 -13.5t107 -29.5l7 43q2 13 2 20v15q0 56 -43 84t-144 28q-68 0 -131.5 -16
t-111.5 -39l-74 201q72 40 166 64t188 24q95 0 175 -18t137.5 -57t89.5 -99.5t32 -145.5zM707 451q-34 18 -84 31.5t-119 13.5q-42 0 -73.5 -12t-52.5 -33t-31.5 -49t-10.5 -60q0 -60 38.5 -92.5t117.5 -32.5q33 0 62 9t53.5 23t43.5 31.5t31 34.5zM1139 1507
q-12 -68 -38 -123t-62.5 -93t-82.5 -58.5t-98 -20.5q-54 0 -97.5 17t-80.5 37q-35 20 -66.5 35.5t-62.5 15.5q-26 0 -45 -22t-37 -76h-184q11 68 36.5 122.5t61.5 92.5t82 58.5t98 20.5q53 0 95 -15.5t77 -35.5q38 -20 70.5 -36.5t64.5 -16.5q29 0 46.5 22.5t37.5 75.5h185z
" />
    <glyph glyph-name="adieresis" unicode="&#xe4;" horiz-adv-x="1130" 
d="M1038 778q0 -21 -1.5 -43t-6.5 -47l-121 -688h-282l14 72q-42 -39 -99 -67t-132 -28q-72 0 -137.5 19.5t-115.5 60t-80 104t-30 150.5q0 91 31.5 165.5t89.5 128t140 83t184 29.5q73 0 146 -13.5t107 -29.5l7 43q2 13 2 20v15q0 56 -43 84t-144 28q-68 0 -131.5 -16
t-111.5 -39l-74 201q72 40 166 64t188 24q95 0 175 -18t137.5 -57t89.5 -99.5t32 -145.5zM707 451q-34 18 -84 31.5t-119 13.5q-42 0 -73.5 -12t-52.5 -33t-31.5 -49t-10.5 -60q0 -60 38.5 -92.5t117.5 -32.5q33 0 62 9t53.5 23t43.5 31.5t31 34.5zM1085 1368
q0 -32 -12.5 -60t-34.5 -50t-50.5 -34.5t-59.5 -12.5q-33 0 -62.5 12.5t-51.5 34.5t-35 50t-13 60q0 33 13 62t35 51t51.5 34.5t62.5 12.5q31 0 59.5 -12.5t50.5 -34.5t34.5 -51t12.5 -62zM643 1368q0 -32 -13 -60t-35 -50t-51 -34.5t-61 -12.5t-61 12.5t-51 34.5t-35 50
t-13 60q0 33 13 62t35 51t51 34.5t61 12.5t61 -12.5t51 -34.5t35 -51t13 -62z" />
    <glyph glyph-name="aring" unicode="&#xe5;" horiz-adv-x="1130" 
d="M1038 778q0 -21 -1.5 -43t-6.5 -47l-121 -688h-282l14 72q-42 -39 -99 -67t-132 -28q-72 0 -137.5 19.5t-115.5 60t-80 104t-30 150.5q0 91 31.5 165.5t89.5 128t140 83t184 29.5q73 0 146 -13.5t107 -29.5l7 43q2 13 2 20v15q0 56 -43 84t-144 28q-68 0 -131.5 -16
t-111.5 -39l-74 201q72 40 166 64t188 24q95 0 175 -18t137.5 -57t89.5 -99.5t32 -145.5zM707 451q-34 18 -84 31.5t-119 13.5q-42 0 -73.5 -12t-52.5 -33t-31.5 -49t-10.5 -60q0 -60 38.5 -92.5t117.5 -32.5q33 0 62 9t53.5 23t43.5 31.5t31 34.5zM1011 1491
q0 -59 -21 -109t-58 -86t-87.5 -56.5t-109.5 -20.5t-110 20.5t-88 56.5t-58 86t-21 109t21 109.5t58 87.5t88 58t110 21t109.5 -21t87.5 -58t58 -87.5t21 -109.5zM856 1491q0 26 -9.5 48.5t-26 39t-38.5 26t-47 9.5q-26 0 -48 -9.5t-38 -26t-25.5 -39t-9.5 -48.5t9.5 -48.5
t25.5 -39t38 -26t48 -9.5q25 0 47 9.5t38.5 26t26 39t9.5 48.5z" />
    <glyph glyph-name="ae" unicode="&#xe6;" horiz-adv-x="1718" 
d="M1642 662q0 -53 -8.5 -106t-23.5 -110h-639q-6 -55 11 -93.5t47.5 -62.5t70 -35t78.5 -11q52 0 105.5 17t107.5 54l137 -196q-97 -76 -190.5 -109t-186.5 -33q-120 0 -213 40.5t-156 123.5q-81 -78 -172 -121t-188 -43q-82 0 -151 19.5t-118.5 60t-77.5 104t-28 150.5
q0 91 31.5 165.5t89.5 128t140 83t184 29.5q65 0 137 -11.5t121 -31.5l8 53q2 6 2 11v12q0 49 -42.5 81.5t-137.5 32.5q-65 0 -127 -12.5t-127 -40.5l-74 201q97 46 181 65.5t181 20.5q118 0 200 -29.5t136 -95.5q57 59 133.5 92t167.5 33q102 0 175.5 -34.5t121.5 -94
t71 -138.5t23 -169zM1376 659q4 39 -3.5 74t-28 61.5t-53.5 42t-81 15.5q-38 0 -69.5 -15t-56 -41t-42.5 -61t-30 -76h364zM682 315q2 10 4.5 23.5t8.5 46.5l12 66q-34 18 -84 31.5t-119 13.5q-42 0 -73.5 -12t-52.5 -33t-31.5 -49t-10.5 -60q0 -59 37.5 -92t118.5 -33
q57 0 109 28.5t81 69.5z" />
    <glyph glyph-name="ccedilla" unicode="&#xe7;" horiz-adv-x="1092" 
d="M854 653q-58 92 -110.5 132t-122.5 40q-59 0 -107 -29.5t-82 -77.5t-53 -110.5t-19 -128.5q0 -111 54.5 -170t142.5 -59q59 0 120 30.5t130 92.5l160 -187q-93 -95 -203 -152t-242 -57q-95 0 -177.5 33t-143 95t-95 151t-34.5 201q0 127 41 243t117 204.5t183 141
t238 52.5q84 0 149.5 -20t117.5 -55.5t91 -84.5t70 -107zM719 -201q0 -45 -17 -81t-48.5 -61t-75.5 -38.5t-99 -13.5q-83 0 -158.5 26t-133.5 70l57 74q40 -28 91 -48t103 -20q45 0 74 18t29 52q0 29 -17 41t-49 12q-12 0 -26.5 -4t-26.5 -10l-70 28l97 232h114l-63 -162
q17 5 35 9.5t43 4.5q62 0 101.5 -35t39.5 -94z" />
    <glyph glyph-name="egrave" unicode="&#xe8;" horiz-adv-x="1094" 
d="M1018 662q0 -53 -8.5 -106.5t-24.5 -109.5h-635q-6 -55 11 -93.5t47 -62.5t68 -35t75 -11q54 0 107.5 17t107.5 54l137 -196q-97 -76 -190.5 -109t-192.5 -33q-104 0 -187.5 32t-142 92.5t-90.5 147t-32 195.5q0 138 43.5 257.5t119 207.5t177.5 138.5t219 50.5
q101 0 175 -34.5t122 -94t71 -138.5t23 -169zM752 659q4 39 -3.5 74t-28 61.5t-53.5 42t-81 15.5q-39 0 -70 -15t-55.5 -41t-43 -61t-30.5 -76h365zM592 1219l-240 327h358l121 -327h-239z" />
    <glyph glyph-name="eacute" unicode="&#xe9;" horiz-adv-x="1094" 
d="M1018 662q0 -53 -8.5 -106.5t-24.5 -109.5h-635q-6 -55 11 -93.5t47 -62.5t68 -35t75 -11q54 0 107.5 17t107.5 54l137 -196q-97 -76 -190.5 -109t-192.5 -33q-104 0 -187.5 32t-142 92.5t-90.5 147t-32 195.5q0 138 43.5 257.5t119 207.5t177.5 138.5t219 50.5
q101 0 175 -34.5t122 -94t71 -138.5t23 -169zM752 659q4 39 -3.5 74t-28 61.5t-53.5 42t-81 15.5q-39 0 -70 -15t-55.5 -41t-43 -61t-30.5 -76h365zM754 1219h-240l236 327h358z" />
    <glyph glyph-name="ecircumflex" unicode="&#xea;" horiz-adv-x="1094" 
d="M1018 662q0 -53 -8.5 -106.5t-24.5 -109.5h-635q-6 -55 11 -93.5t47 -62.5t68 -35t75 -11q54 0 107.5 17t107.5 54l137 -196q-97 -76 -190.5 -109t-192.5 -33q-104 0 -187.5 32t-142 92.5t-90.5 147t-32 195.5q0 138 43.5 257.5t119 207.5t177.5 138.5t219 50.5
q101 0 175 -34.5t122 -94t71 -138.5t23 -169zM752 659q4 39 -3.5 74t-28 61.5t-53.5 42t-81 15.5q-39 0 -70 -15t-55.5 -41t-43 -61t-30.5 -76h365zM881 1201l-178 153l-232 -153h-194l307 327h287l192 -327h-182z" />
    <glyph glyph-name="edieresis" unicode="&#xeb;" horiz-adv-x="1094" 
d="M1018 662q0 -53 -8.5 -106.5t-24.5 -109.5h-635q-6 -55 11 -93.5t47 -62.5t68 -35t75 -11q54 0 107.5 17t107.5 54l137 -196q-97 -76 -190.5 -109t-192.5 -33q-104 0 -187.5 32t-142 92.5t-90.5 147t-32 195.5q0 138 43.5 257.5t119 207.5t177.5 138.5t219 50.5
q101 0 175 -34.5t122 -94t71 -138.5t23 -169zM752 659q4 39 -3.5 74t-28 61.5t-53.5 42t-81 15.5q-39 0 -70 -15t-55.5 -41t-43 -61t-30.5 -76h365zM1075 1368q0 -32 -12.5 -60t-34.5 -50t-50.5 -34.5t-59.5 -12.5q-33 0 -62.5 12.5t-51.5 34.5t-35 50t-13 60q0 33 13 62
t35 51t51.5 34.5t62.5 12.5q31 0 59.5 -12.5t50.5 -34.5t34.5 -51t12.5 -62zM633 1368q0 -32 -13 -60t-35 -50t-51 -34.5t-61 -12.5t-61 12.5t-51 34.5t-35 50t-13 60q0 33 13 62t35 51t51 34.5t61 12.5t61 -12.5t51 -34.5t35 -51t13 -62z" />
    <glyph glyph-name="igrave" unicode="&#xec;" horiz-adv-x="578" 
d="M336 0h-283l189 1075h282zM306 1219l-240 327h358l121 -327h-239z" />
    <glyph glyph-name="iacute" unicode="&#xed;" horiz-adv-x="578" 
d="M336 0h-283l189 1075h282zM516 1219h-240l236 327h358z" />
    <glyph glyph-name="icircumflex" unicode="&#xee;" horiz-adv-x="578" 
d="M336 0h-283l189 1075h282zM602 1190l-178 153l-232 -153h-194l307 327h287l192 -327h-182z" />
    <glyph glyph-name="idieresis" unicode="&#xef;" horiz-adv-x="578" 
d="M336 0h-283l189 1075h282zM796 1358q0 -32 -12.5 -60t-34.5 -50t-50.5 -34.5t-59.5 -12.5q-33 0 -62.5 12.5t-51.5 34.5t-35 50t-13 60q0 33 13 62t35 51t51.5 34.5t62.5 12.5q31 0 59.5 -12.5t50.5 -34.5t34.5 -51t12.5 -62zM354 1358q0 -32 -13 -60t-35 -50t-51 -34.5
t-61 -12.5t-61 12.5t-51 34.5t-35 50t-13 60q0 33 13 62t35 51t51 34.5t61 12.5t61 -12.5t51 -34.5t35 -51t13 -62z" />
    <glyph glyph-name="eth" unicode="&#xf0;" horiz-adv-x="1128" 
d="M1075 774q0 -145 -23.5 -260.5t-64 -204t-96 -151.5t-119 -103.5t-133 -59t-137.5 -18.5q-104 0 -185.5 32.5t-138 90t-86 136t-29.5 170.5q0 131 46 236.5t119 179.5t163.5 113.5t179.5 39.5q74 0 146 -19.5t121 -58.5q-3 54 -26 112.5t-71 110.5l-106 -90l-111 117
l86 72q-71 36 -166 51l35 194q181 -18 309 -96l107 88l111 -117l-91 -75q78 -88 119 -211.5t41 -278.5zM766 537q0 40 -11 75t-33.5 60.5t-56.5 40t-81 14.5q-56 0 -100.5 -24t-76 -66t-48.5 -99t-17 -124q0 -89 47 -138t137 -49q56 0 100.5 26t75.5 69t47.5 99t16.5 116z
" />
    <glyph glyph-name="ntilde" unicode="&#xf1;" horiz-adv-x="1188" 
d="M1087 764q0 -34 -4 -76t-10 -82l-106 -606h-283l102 582q5 27 7 50.5t2 43.5q0 75 -36 115t-114 40q-42 0 -77 -13t-62 -42t-46.5 -75t-31.5 -113l-102 -588h-283l188 1075h283l-12 -71q41 38 100.5 66t142.5 28q174 0 258 -86.5t84 -247.5zM1153 1507q-12 -68 -38 -123
t-62.5 -93t-82.5 -58.5t-98 -20.5q-54 0 -97.5 17t-80.5 37q-35 20 -66.5 35.5t-62.5 15.5q-26 0 -45 -22t-37 -76h-184q11 68 36.5 122.5t61.5 92.5t82 58.5t98 20.5q53 0 95 -15.5t77 -35.5q38 -20 70.5 -36.5t64.5 -16.5q29 0 46.5 22.5t37.5 75.5h185z" />
    <glyph glyph-name="ograve" unicode="&#xf2;" horiz-adv-x="1128" 
d="M72 440q0 132 41.5 251.5t115.5 210t177.5 143.5t228.5 53q94 0 172 -32.5t133.5 -92.5t86 -145.5t30.5 -192.5q0 -108 -29 -212.5t-99.5 -210t-185.5 -170.5t-249 -65q-95 0 -172.5 32.5t-133 92.5t-86 145.5t-30.5 192.5zM362 459q0 -50 12.5 -89t34 -65.5t51 -40.5
t64.5 -14q48 0 91.5 24.5t77 71.5t53.5 115t20 155q0 50 -12.5 89t-34 65.5t-51.5 40.5t-64 14q-48 0 -91.5 -24.5t-77 -71.5t-53.5 -115t-20 -155zM580 1219l-240 327h358l121 -327h-239z" />
    <glyph glyph-name="oacute" unicode="&#xf3;" horiz-adv-x="1128" 
d="M72 440q0 132 41.5 251.5t115.5 210t177.5 143.5t228.5 53q94 0 172 -32.5t133.5 -92.5t86 -145.5t30.5 -192.5q0 -108 -29 -212.5t-99.5 -210t-185.5 -170.5t-249 -65q-95 0 -172.5 32.5t-133 92.5t-86 145.5t-30.5 192.5zM362 459q0 -50 12.5 -89t34 -65.5t51 -40.5
t64.5 -14q48 0 91.5 24.5t77 71.5t53.5 115t20 155q0 50 -12.5 89t-34 65.5t-51.5 40.5t-64 14q-48 0 -91.5 -24.5t-77 -71.5t-53.5 -115t-20 -155zM762 1219h-240l236 327h358z" />
    <glyph glyph-name="ocircumflex" unicode="&#xf4;" horiz-adv-x="1128" 
d="M72 440q0 132 41.5 251.5t115.5 210t177.5 143.5t228.5 53q94 0 172 -32.5t133.5 -92.5t86 -145.5t30.5 -192.5q0 -108 -29 -212.5t-99.5 -210t-185.5 -170.5t-249 -65q-95 0 -172.5 32.5t-133 92.5t-86 145.5t-30.5 192.5zM362 459q0 -50 12.5 -89t34 -65.5t51 -40.5
t64.5 -14q48 0 91.5 24.5t77 71.5t53.5 115t20 155q0 50 -12.5 89t-34 65.5t-51.5 40.5t-64 14q-48 0 -91.5 -24.5t-77 -71.5t-53.5 -115t-20 -155zM889 1201l-178 153l-232 -153h-194l307 327h287l192 -327h-182z" />
    <glyph glyph-name="otilde" unicode="&#xf5;" horiz-adv-x="1128" 
d="M72 440q0 132 41.5 251.5t115.5 210t177.5 143.5t228.5 53q94 0 172 -32.5t133.5 -92.5t86 -145.5t30.5 -192.5q0 -108 -29 -212.5t-99.5 -210t-185.5 -170.5t-249 -65q-95 0 -172.5 32.5t-133 92.5t-86 145.5t-30.5 192.5zM362 459q0 -50 12.5 -89t34 -65.5t51 -40.5
t64.5 -14q48 0 91.5 24.5t77 71.5t53.5 115t20 155q0 50 -12.5 89t-34 65.5t-51.5 40.5t-64 14q-48 0 -91.5 -24.5t-77 -71.5t-53.5 -115t-20 -155zM1129 1507q-12 -68 -38 -123t-62.5 -93t-82.5 -58.5t-98 -20.5q-54 0 -97.5 17t-80.5 37q-35 20 -66.5 35.5t-62.5 15.5
q-26 0 -45 -22t-37 -76h-184q11 68 36.5 122.5t61.5 92.5t82 58.5t98 20.5q53 0 95 -15.5t77 -35.5q38 -20 70.5 -36.5t64.5 -16.5q29 0 46.5 22.5t37.5 75.5h185z" />
    <glyph glyph-name="odieresis" unicode="&#xf6;" horiz-adv-x="1128" 
d="M72 440q0 132 41.5 251.5t115.5 210t177.5 143.5t228.5 53q94 0 172 -32.5t133.5 -92.5t86 -145.5t30.5 -192.5q0 -108 -29 -212.5t-99.5 -210t-185.5 -170.5t-249 -65q-95 0 -172.5 32.5t-133 92.5t-86 145.5t-30.5 192.5zM362 459q0 -50 12.5 -89t34 -65.5t51 -40.5
t64.5 -14q48 0 91.5 24.5t77 71.5t53.5 115t20 155q0 50 -12.5 89t-34 65.5t-51.5 40.5t-64 14q-48 0 -91.5 -24.5t-77 -71.5t-53.5 -115t-20 -155zM1083 1358q0 -32 -12.5 -60t-34.5 -50t-50.5 -34.5t-59.5 -12.5q-33 0 -62.5 12.5t-51.5 34.5t-35 50t-13 60q0 33 13 62
t35 51t51.5 34.5t62.5 12.5q31 0 59.5 -12.5t50.5 -34.5t34.5 -51t12.5 -62zM641 1358q0 -32 -13 -60t-35 -50t-51 -34.5t-61 -12.5t-61 12.5t-51 34.5t-35 50t-13 60q0 33 13 62t35 51t51 34.5t61 12.5t61 -12.5t51 -34.5t35 -51t13 -62z" />
    <glyph glyph-name="divide" unicode="&#xf7;" 
d="M827 1143q0 -35 -14 -66t-37.5 -54t-55 -36.5t-65.5 -13.5q-36 0 -67.5 13.5t-54.5 36.5t-36.5 54t-13.5 66t13.5 67t37 56t55 38.5t66.5 14.5q34 0 65.5 -14.5t55 -38.5t37.5 -56t14 -67zM139 580v249h1030v-249h-1030zM827 262q0 -36 -14 -67.5t-37.5 -54.5t-55 -36.5
t-65.5 -13.5q-36 0 -67.5 13.5t-54.5 36.5t-36.5 54.5t-13.5 67.5q0 35 13.5 66.5t37 55.5t55 38t66.5 14q34 0 65.5 -14t55 -38t37.5 -55.5t14 -66.5z" />
    <glyph glyph-name="oslash" unicode="&#xf8;" horiz-adv-x="1128" 
d="M158 139q-42 57 -64 132.5t-22 168.5q0 132 41.5 251.5t115.5 210t177.5 143.5t228.5 53q49 0 92.5 -9t83.5 -26l80 115h252l-172 -244q42 -57 64 -132.5t22 -166.5q0 -123 -38 -241t-110.5 -210.5t-179.5 -149.5t-235 -57q-48 0 -92 9t-83 24l-79 -112h-252zM664 836
q-14 5 -29 7.5t-31 2.5q-51 0 -98 -26t-83.5 -75.5t-58.5 -121.5t-22 -164q0 -36 6 -70zM465 240q28 -11 59 -11q51 0 98 26t83.5 75.5t58.5 121.5t22 164q0 38 -6 68z" />
    <glyph glyph-name="ugrave" unicode="&#xf9;" horiz-adv-x="1188" 
d="M100 311q0 34 4 76t11 82l106 606h283l-103 -581q-5 -28 -6.5 -51.5t-1.5 -43.5q0 -76 36.5 -115.5t113.5 -39.5q42 0 77 13t62 42t46.5 75t31.5 113l102 588h283l-189 -1075h-282l12 72q-51 -48 -111.5 -71.5t-132.5 -23.5q-173 0 -257.5 86t-84.5 248zM625 1219
l-240 327h358l121 -327h-239z" />
    <glyph glyph-name="uacute" unicode="&#xfa;" horiz-adv-x="1188" 
d="M100 311q0 34 4 76t11 82l106 606h283l-103 -581q-5 -28 -6.5 -51.5t-1.5 -43.5q0 -76 36.5 -115.5t113.5 -39.5q42 0 77 13t62 42t46.5 75t31.5 113l102 588h283l-189 -1075h-282l12 72q-51 -48 -111.5 -71.5t-132.5 -23.5q-173 0 -257.5 86t-84.5 248zM788 1219h-240
l236 327h358z" />
    <glyph glyph-name="ucircumflex" unicode="&#xfb;" horiz-adv-x="1188" 
d="M100 311q0 34 4 76t11 82l106 606h283l-103 -581q-5 -28 -6.5 -51.5t-1.5 -43.5q0 -76 36.5 -115.5t113.5 -39.5q42 0 77 13t62 42t46.5 75t31.5 113l102 588h283l-189 -1075h-282l12 72q-51 -48 -111.5 -71.5t-132.5 -23.5q-173 0 -257.5 86t-84.5 248zM916 1219
l-178 153l-232 -153h-194l307 327h287l192 -327h-182z" />
    <glyph glyph-name="udieresis" unicode="&#xfc;" horiz-adv-x="1188" 
d="M100 311q0 34 4 76t11 82l106 606h283l-103 -581q-5 -28 -6.5 -51.5t-1.5 -43.5q0 -76 36.5 -115.5t113.5 -39.5q42 0 77 13t62 42t46.5 75t31.5 113l102 588h283l-189 -1075h-282l12 72q-51 -48 -111.5 -71.5t-132.5 -23.5q-173 0 -257.5 86t-84.5 248zM1110 1376
q0 -32 -12.5 -60t-34.5 -50t-50.5 -34.5t-59.5 -12.5q-33 0 -62.5 12.5t-51.5 34.5t-35 50t-13 60q0 33 13 62t35 51t51.5 34.5t62.5 12.5q31 0 59.5 -12.5t50.5 -34.5t34.5 -51t12.5 -62zM668 1376q0 -32 -13 -60t-35 -50t-51 -34.5t-61 -12.5t-61 12.5t-51 34.5t-35 50
t-13 60q0 33 13 62t35 51t51 34.5t61 12.5t61 -12.5t51 -34.5t35 -51t13 -62z" />
    <glyph glyph-name="yacute" unicode="&#xfd;" horiz-adv-x="1200" 
d="M440 -379h-282l209 379l-220 1075h308l111 -730l372 730h307zM797 1201h-240l236 327h358z" />
    <glyph glyph-name="thorn" unicode="&#xfe;" horiz-adv-x="1143" 
d="M1069 686q0 -134 -30 -255.5t-92.5 -226t-161 -166t-216.5 -61.5q-41 0 -73 6t-60 17.5t-53 28t-51 37.5l-53 -320l-308 -141l308 1747l307 141l-84 -485q45 40 96.5 65t116.5 25q85 0 151 -28.5t111 -81.5t68.5 -129.5t23.5 -172.5zM778 639q0 96 -38.5 144t-110.5 48
q-28 0 -52 -7.5t-45.5 -20t-40.5 -28.5t-36 -34l-72 -405q20 -23 39.5 -40.5t40.5 -29t45.5 -17t54.5 -5.5q50 0 90 31.5t67.5 85.5t42.5 125.5t15 152.5z" />
    <glyph glyph-name="ydieresis" unicode="&#xff;" horiz-adv-x="1200" 
d="M440 -379h-282l209 379l-220 1075h308l111 -730l372 730h307zM1128 1358q0 -32 -12.5 -60t-34.5 -50t-50.5 -34.5t-59.5 -12.5q-33 0 -62.5 12.5t-51.5 34.5t-35 50t-13 60q0 33 13 62t35 51t51.5 34.5t62.5 12.5q31 0 59.5 -12.5t50.5 -34.5t34.5 -51t12.5 -62z
M686 1358q0 -32 -13 -60t-35 -50t-51 -34.5t-61 -12.5t-61 12.5t-51 34.5t-35 50t-13 60q0 33 13 62t35 51t51 34.5t61 12.5t61 -12.5t51 -34.5t35 -51t13 -62z" />
    <glyph glyph-name="Amacron" unicode="&#x100;" horiz-adv-x="1528" 
d="M1049 0l-56 319h-518l-168 -319h-317l796 1434h279l289 -1434h-305zM863 1058l-245 -466h326zM1229 1556h-594l37 215h594z" />
    <glyph glyph-name="amacron" unicode="&#x101;" horiz-adv-x="1130" 
d="M1038 778q0 -21 -1.5 -43t-6.5 -47l-121 -688h-282l14 72q-42 -39 -99 -67t-132 -28q-72 0 -137.5 19.5t-115.5 60t-80 104t-30 150.5q0 91 31.5 165.5t89.5 128t140 83t184 29.5q73 0 146 -13.5t107 -29.5l7 43q2 13 2 20v15q0 56 -43 84t-144 28q-68 0 -131.5 -16
t-111.5 -39l-74 201q72 40 166 64t188 24q95 0 175 -18t137.5 -57t89.5 -99.5t32 -145.5zM707 451q-34 18 -84 31.5t-119 13.5q-42 0 -73.5 -12t-52.5 -33t-31.5 -49t-10.5 -60q0 -60 38.5 -92.5t117.5 -32.5q33 0 62 9t53.5 23t43.5 31.5t31 34.5zM993 1249h-594l37 215
h594z" />
    <glyph glyph-name="Abreve" unicode="&#x102;" horiz-adv-x="1528" 
d="M1049 0l-56 319h-518l-168 -319h-317l796 1434h279l289 -1434h-305zM863 1058l-245 -466h326zM1343 1853q-38 -157 -142.5 -242t-275.5 -85q-79 0 -144.5 22t-111.5 64t-70.5 102.5t-21.5 138.5h172q8 -68 58 -100.5t137 -32.5q91 0 144.5 29t88.5 104h166z" />
    <glyph glyph-name="abreve" unicode="&#x103;" horiz-adv-x="1130" 
d="M1038 778q0 -21 -1.5 -43t-6.5 -47l-121 -688h-282l14 72q-42 -39 -99 -67t-132 -28q-72 0 -137.5 19.5t-115.5 60t-80 104t-30 150.5q0 91 31.5 165.5t89.5 128t140 83t184 29.5q73 0 146 -13.5t107 -29.5l7 43q2 13 2 20v15q0 56 -43 84t-144 28q-68 0 -131.5 -16
t-111.5 -39l-74 201q72 40 166 64t188 24q95 0 175 -18t137.5 -57t89.5 -99.5t32 -145.5zM707 451q-34 18 -84 31.5t-119 13.5q-42 0 -73.5 -12t-52.5 -33t-31.5 -49t-10.5 -60q0 -60 38.5 -92.5t117.5 -32.5q33 0 62 9t53.5 23t43.5 31.5t31 34.5zM1126 1546
q-38 -157 -142.5 -242t-275.5 -85q-79 0 -144.5 22t-111.5 64t-70.5 102.5t-21.5 138.5h172q8 -68 58 -100.5t137 -32.5q91 0 144.5 29t88.5 104h166z" />
    <glyph glyph-name="Aogonek" unicode="&#x104;" horiz-adv-x="1528" 
d="M1049 0l-56 319h-518l-168 -319h-317l796 1434h279l289 -1434h-305zM863 1058l-245 -466h326zM1270 0q-28 -11 -60 -28.5t-59 -40t-44.5 -50.5t-17.5 -60q0 -20 11.5 -31t27.5 -11q20 0 37.5 11.5t28.5 25.5l92 -80q-36 -64 -95 -105t-142 -41q-82 0 -135.5 45t-53.5 113
q0 45 16.5 83.5t43 70.5t60.5 56.5t69 41.5h221z" />
    <glyph glyph-name="aogonek" unicode="&#x105;" horiz-adv-x="1130" 
d="M1038 778q0 -21 -1.5 -43t-6.5 -47l-121 -688h-282l14 72q-42 -39 -99 -67t-132 -28q-72 0 -137.5 19.5t-115.5 60t-80 104t-30 150.5q0 91 31.5 165.5t89.5 128t140 83t184 29.5q73 0 146 -13.5t107 -29.5l7 43q2 13 2 20v15q0 56 -43 84t-144 28q-68 0 -131.5 -16
t-111.5 -39l-74 201q72 40 166 64t188 24q95 0 175 -18t137.5 -57t89.5 -99.5t32 -145.5zM707 451q-34 18 -84 31.5t-119 13.5q-42 0 -73.5 -12t-52.5 -33t-31.5 -49t-10.5 -60q0 -60 38.5 -92.5t117.5 -32.5q33 0 62 9t53.5 23t43.5 31.5t31 34.5zM848 0q-28 -11 -60 -28.5
t-59 -40t-44.5 -50.5t-17.5 -60q0 -20 11.5 -31t27.5 -11q20 0 37.5 11.5t28.5 25.5l92 -80q-36 -64 -95 -105t-142 -41q-82 0 -135.5 45t-53.5 113q0 45 16.5 83.5t43 70.5t60.5 56.5t69 41.5h221z" />
    <glyph glyph-name="Cacute" unicode="&#x106;" horiz-adv-x="1364" 
d="M1085 985q-22 42 -47.5 76.5t-57.5 59.5t-74 39t-97 14q-87 0 -158.5 -47t-122.5 -125.5t-79.5 -180.5t-28.5 -213q0 -87 21 -152t58.5 -108t89.5 -64.5t113 -21.5q85 0 152.5 46t132.5 134l230 -166q-57 -77 -117.5 -133t-127 -93t-141 -55t-159.5 -18q-103 0 -202 32.5
t-176.5 103t-125 182.5t-47.5 272q0 159 35.5 291t83 216t101 147t131.5 118t173.5 86t194.5 31q106 0 187.5 -21.5t144 -63.5t109 -103t83.5 -140zM967 1526h-240l236 327h358z" />
    <glyph glyph-name="cacute" unicode="&#x107;" horiz-adv-x="1092" 
d="M854 653q-58 92 -110.5 132t-122.5 40q-59 0 -107 -29.5t-82 -77.5t-53 -110.5t-19 -128.5q0 -111 54.5 -170t142.5 -59q59 0 120 30.5t130 92.5l160 -187q-93 -95 -203 -152t-242 -57q-95 0 -177.5 33t-143 95t-95 151t-34.5 201q0 127 41 243t117 204.5t183 141
t238 52.5q84 0 149.5 -20t117.5 -55.5t91 -84.5t70 -107zM694 1219h-240l236 327h358z" />
    <glyph glyph-name="Ccircumflex" unicode="&#x108;" horiz-adv-x="1364" 
d="M1085 985q-22 42 -47.5 76.5t-57.5 59.5t-74 39t-97 14q-87 0 -158.5 -47t-122.5 -125.5t-79.5 -180.5t-28.5 -213q0 -87 21 -152t58.5 -108t89.5 -64.5t113 -21.5q85 0 152.5 46t132.5 134l230 -166q-57 -77 -117.5 -133t-127 -93t-141 -55t-159.5 -18q-103 0 -202 32.5
t-176.5 103t-125 182.5t-47.5 272q0 159 35.5 291t83 216t101 147t131.5 118t173.5 86t194.5 31q106 0 187.5 -21.5t144 -63.5t109 -103t83.5 -140zM1063 1526l-178 153l-232 -153h-194l307 327h287l192 -327h-182z" />
    <glyph glyph-name="ccircumflex" unicode="&#x109;" horiz-adv-x="1092" 
d="M854 653q-58 92 -110.5 132t-122.5 40q-59 0 -107 -29.5t-82 -77.5t-53 -110.5t-19 -128.5q0 -111 54.5 -170t142.5 -59q59 0 120 30.5t130 92.5l160 -187q-93 -95 -203 -152t-242 -57q-95 0 -177.5 33t-143 95t-95 151t-34.5 201q0 127 41 243t117 204.5t183 141
t238 52.5q84 0 149.5 -20t117.5 -55.5t91 -84.5t70 -107zM895 1219l-178 153l-232 -153h-194l307 327h287l192 -327h-182z" />
    <glyph glyph-name="Cdotaccent" unicode="&#x10a;" horiz-adv-x="1364" 
d="M1085 985q-22 42 -47.5 76.5t-57.5 59.5t-74 39t-97 14q-87 0 -158.5 -47t-122.5 -125.5t-79.5 -180.5t-28.5 -213q0 -87 21 -152t58.5 -108t89.5 -64.5t113 -21.5q85 0 152.5 46t132.5 134l230 -166q-57 -77 -117.5 -133t-127 -93t-141 -55t-159.5 -18q-103 0 -202 32.5
t-176.5 103t-125 182.5t-47.5 272q0 159 35.5 291t83 216t101 147t131.5 118t173.5 86t194.5 31q106 0 187.5 -21.5t144 -63.5t109 -103t83.5 -140zM1061 1683q0 -32 -13 -60t-34.5 -50t-50.5 -34.5t-60 -12.5q-33 0 -62.5 12.5t-51 34.5t-34.5 50t-13 60q0 33 13 62
t34.5 51t51 34.5t62.5 12.5q31 0 60 -12.5t50.5 -34.5t34.5 -51t13 -62z" />
    <glyph glyph-name="cdotaccent" unicode="&#x10b;" horiz-adv-x="1092" 
d="M854 653q-58 92 -110.5 132t-122.5 40q-59 0 -107 -29.5t-82 -77.5t-53 -110.5t-19 -128.5q0 -111 54.5 -170t142.5 -59q59 0 120 30.5t130 92.5l160 -187q-93 -95 -203 -152t-242 -57q-95 0 -177.5 33t-143 95t-95 151t-34.5 201q0 127 41 243t117 204.5t183 141
t238 52.5q84 0 149.5 -20t117.5 -55.5t91 -84.5t70 -107zM891 1376q0 -32 -13 -60t-34.5 -50t-50.5 -34.5t-60 -12.5q-33 0 -62.5 12.5t-51 34.5t-34.5 50t-13 60q0 33 13 62t34.5 51t51 34.5t62.5 12.5q31 0 60 -12.5t50.5 -34.5t34.5 -51t13 -62z" />
    <glyph glyph-name="Ccaron" unicode="&#x10c;" horiz-adv-x="1364" 
d="M1085 985q-22 42 -47.5 76.5t-57.5 59.5t-74 39t-97 14q-87 0 -158.5 -47t-122.5 -125.5t-79.5 -180.5t-28.5 -213q0 -87 21 -152t58.5 -108t89.5 -64.5t113 -21.5q85 0 152.5 46t132.5 134l230 -166q-57 -77 -117.5 -133t-127 -93t-141 -55t-159.5 -18q-103 0 -202 32.5
t-176.5 103t-125 182.5t-47.5 272q0 159 35.5 291t83 216t101 147t131.5 118t173.5 86t194.5 31q106 0 187.5 -21.5t144 -63.5t109 -103t83.5 -140zM987 1526h-287l-192 327h182l178 -153l232 153h194z" />
    <glyph glyph-name="ccaron" unicode="&#x10d;" horiz-adv-x="1092" 
d="M854 653q-58 92 -110.5 132t-122.5 40q-59 0 -107 -29.5t-82 -77.5t-53 -110.5t-19 -128.5q0 -111 54.5 -170t142.5 -59q59 0 120 30.5t130 92.5l160 -187q-93 -95 -203 -152t-242 -57q-95 0 -177.5 33t-143 95t-95 151t-34.5 201q0 127 41 243t117 204.5t183 141
t238 52.5q84 0 149.5 -20t117.5 -55.5t91 -84.5t70 -107zM829 1219h-287l-192 327h182l178 -153l232 153h194z" />
    <glyph glyph-name="Dcaron" unicode="&#x10e;" horiz-adv-x="1440" 
d="M1389 868q0 -152 -28 -267t-80 -211.5t-124.5 -166.5t-148 -113t-194.5 -76.5t-273 -33.5h-451l254 1434h328q193 0 329 -40t222 -114t126 -178.5t40 -233.5zM1087 815q0 80 -23 143t-73 107t-130.5 67t-194.5 23h-84l-156 -876h188q108 0 195.5 36t149 105t95 168.5
t33.5 226.5zM962 1526h-287l-192 327h182l178 -153l232 153h194z" />
    <glyph glyph-name="dcaron" unicode="&#x10f;" horiz-adv-x="1389" 
d="M68 389q0 128 29 250.5t90.5 226t158.5 168t221 64.5q41 0 73 -6t59.5 -17.5t52.5 -27.5t51 -37l59 342l307 141l-264 -1493h-282l12 68q-45 -41 -96.5 -66t-116.5 -25q-85 0 -151 28.5t-111 81.5t-68.5 129.5t-23.5 172.5zM358 436q0 -96 39 -144t111 -48q28 0 52 7.5
t45.5 20t40.5 28.5t36 34l72 405q-20 23 -39.5 40.5t-41 29t-46 17t-54.5 5.5q-50 0 -90 -31.5t-67.5 -85.5t-42.5 -125.5t-15 -152.5zM1352 858h-195l131 576h334z" />
    <glyph glyph-name="Dcroat" unicode="&#x110;" horiz-adv-x="1470" 
d="M1418 859q-1 -90 -21.5 -206.5t-66 -214.5t-107 -172.5t-152 -134.5t-208 -95.5t-253.5 -35.5h-491l112 631h-133l41 235h133l101 568h327q207 0 354 -47.5t227 -133.5t108.5 -184t28.5 -210zM1117 814q0 62 -15 119.5t-58.5 108.5t-130.5 82t-219 31h-92l-51 -289h184
l-41 -235h-186l-62 -352h187q89 0 167 26t139 76.5t94 106t48.5 102t25.5 109t10 115.5z" />
    <glyph glyph-name="dcroat" unicode="&#x111;" horiz-adv-x="1143" 
d="M752 719q-20 23 -39.5 40.5t-41 29t-46 17t-54.5 5.5q-50 0 -90 -31.5t-66.5 -82t-41.5 -120.5t-15 -141q0 -96 39 -144t111 -48q28 0 52 7.5t45.5 20t40.5 28.5t36 34zM1296 1315l-36 -215h-160l-195 -1100h-282l12 68q-45 -41 -96.5 -66t-116.5 -25q-85 0 -151 28.5
t-111 81.5t-68.5 129.5t-23.5 172.5q0 82 14.5 170t43.5 167t71.5 145.5t96.5 112.5t122.5 70t148.5 24q43 0 77.5 -7t63.5 -20.5t52 -28.5t43 -32l18 110h-153l36 215h154l6 37l307 141l-30 -178h157z" />
    <glyph glyph-name="Emacron" unicode="&#x112;" horiz-adv-x="1323" 
d="M90 0l252 1434h987l-49 -281h-700l-43 -248h567l-49 -278h-568l-61 -346h731l-49 -281h-1018zM1147 1556h-594l37 215h594z" />
    <glyph glyph-name="emacron" unicode="&#x113;" horiz-adv-x="1094" 
d="M1018 662q0 -53 -8.5 -106.5t-24.5 -109.5h-635q-6 -55 11 -93.5t47 -62.5t68 -35t75 -11q54 0 107.5 17t107.5 54l137 -196q-97 -76 -190.5 -109t-192.5 -33q-104 0 -187.5 32t-142 92.5t-90.5 147t-32 195.5q0 138 43.5 257.5t119 207.5t177.5 138.5t219 50.5
q101 0 175 -34.5t122 -94t71 -138.5t23 -169zM752 659q4 39 -3.5 74t-28 61.5t-53.5 42t-81 15.5q-39 0 -70 -15t-55.5 -41t-43 -61t-30.5 -76h365zM971 1249h-594l37 215h594z" />
    <glyph glyph-name="Ebreve" unicode="&#x114;" horiz-adv-x="1323" 
d="M90 0l252 1434h987l-49 -281h-700l-43 -248h567l-49 -278h-568l-61 -346h731l-49 -281h-1018zM1276 1853q-38 -157 -142.5 -242t-275.5 -85q-79 0 -144.5 22t-111.5 64t-70.5 102.5t-21.5 138.5h172q8 -68 58 -100.5t137 -32.5q91 0 144.5 29t88.5 104h166z" />
    <glyph glyph-name="ebreve" unicode="&#x115;" horiz-adv-x="1094" 
d="M1018 662q0 -53 -8.5 -106.5t-24.5 -109.5h-635q-6 -55 11 -93.5t47 -62.5t68 -35t75 -11q54 0 107.5 17t107.5 54l137 -196q-97 -76 -190.5 -109t-192.5 -33q-104 0 -187.5 32t-142 92.5t-90.5 147t-32 195.5q0 138 43.5 257.5t119 207.5t177.5 138.5t219 50.5
q101 0 175 -34.5t122 -94t71 -138.5t23 -169zM752 659q4 39 -3.5 74t-28 61.5t-53.5 42t-81 15.5q-39 0 -70 -15t-55.5 -41t-43 -61t-30.5 -76h365zM1108 1546q-38 -157 -142.5 -242t-275.5 -85q-79 0 -144.5 22t-111.5 64t-70.5 102.5t-21.5 138.5h172q8 -68 58 -100.5
t137 -32.5q91 0 144.5 29t88.5 104h166z" />
    <glyph glyph-name="Edotaccent" unicode="&#x116;" horiz-adv-x="1323" 
d="M90 0l252 1434h987l-49 -281h-700l-43 -248h567l-49 -278h-568l-61 -346h731l-49 -281h-1018zM1028 1683q0 -32 -13 -60t-34.5 -50t-50.5 -34.5t-60 -12.5q-33 0 -62.5 12.5t-51 34.5t-34.5 50t-13 60q0 33 13 62t34.5 51t51 34.5t62.5 12.5q31 0 60 -12.5t50.5 -34.5
t34.5 -51t13 -62z" />
    <glyph glyph-name="edotaccent" unicode="&#x117;" horiz-adv-x="1094" 
d="M1018 662q0 -53 -8.5 -106.5t-24.5 -109.5h-635q-6 -55 11 -93.5t47 -62.5t68 -35t75 -11q54 0 107.5 17t107.5 54l137 -196q-97 -76 -190.5 -109t-192.5 -33q-104 0 -187.5 32t-142 92.5t-90.5 147t-32 195.5q0 138 43.5 257.5t119 207.5t177.5 138.5t219 50.5
q101 0 175 -34.5t122 -94t71 -138.5t23 -169zM752 659q4 39 -3.5 74t-28 61.5t-53.5 42t-81 15.5q-39 0 -70 -15t-55.5 -41t-43 -61t-30.5 -76h365zM852 1376q0 -32 -13 -60t-34.5 -50t-50.5 -34.5t-60 -12.5q-33 0 -62.5 12.5t-51 34.5t-34.5 50t-13 60q0 33 13 62t34.5 51
t51 34.5t62.5 12.5q31 0 60 -12.5t50.5 -34.5t34.5 -51t13 -62z" />
    <glyph glyph-name="Eogonek" unicode="&#x118;" horiz-adv-x="1323" 
d="M90 0l252 1434h987l-49 -281h-700l-43 -248h567l-49 -278h-568l-61 -346h731l-49 -281h-1018zM1047 0q-28 -11 -60 -28.5t-59 -40t-44.5 -50.5t-17.5 -60q0 -20 11.5 -31t27.5 -11q20 0 37.5 11.5t28.5 25.5l92 -80q-36 -64 -95 -105t-142 -41q-82 0 -135.5 45t-53.5 113
q0 45 16.5 83.5t43 70.5t60.5 56.5t69 41.5h221z" />
    <glyph glyph-name="eogonek" unicode="&#x119;" horiz-adv-x="1094" 
d="M752 659q4 39 -3.5 74t-28 61.5t-53.5 42t-81 15.5q-39 0 -70 -15t-55.5 -41t-43 -61t-30.5 -76h365zM499 -179q0 -20 11.5 -31t27.5 -11q20 0 37.5 11.5t28.5 25.5l92 -80q-35 -65 -95 -105.5t-142 -40.5q-42 0 -76 11.5t-61.5 35t-39.5 53t-12 58.5q0 45 16.5 83.5
t43 70.5t53 51t45.5 31q-51 8 -115 32.5t-122.5 85t-90.5 147t-32 195.5q0 138 43.5 257.5t119 207.5t177.5 138.5t219 50.5q101 0 175 -34.5t122 -94t71 -138.5t23 -169q0 -53 -8.5 -106.5t-24.5 -109.5h-635q-6 -55 11 -93.5t47 -62.5t68 -35t75 -11q54 0 107.5 17
t107.5 54l137 -196q-60 -51 -142 -87.5t-131 -58.5q-37 -19 -59.5 -36t-37.5 -34.5t-24.5 -40t-9.5 -41.5z" />
    <glyph glyph-name="Ecaron" unicode="&#x11a;" horiz-adv-x="1323" 
d="M90 0l252 1434h987l-49 -281h-700l-43 -248h567l-49 -278h-568l-61 -346h731l-49 -281h-1018zM987 1526h-287l-192 327h182l178 -153l232 153h194z" />
    <glyph glyph-name="ecaron" unicode="&#x11b;" horiz-adv-x="1094" 
d="M1018 662q0 -53 -8.5 -106.5t-24.5 -109.5h-635q-6 -55 11 -93.5t47 -62.5t68 -35t75 -11q54 0 107.5 17t107.5 54l137 -196q-97 -76 -190.5 -109t-192.5 -33q-104 0 -187.5 32t-142 92.5t-90.5 147t-32 195.5q0 138 43.5 257.5t119 207.5t177.5 138.5t219 50.5
q101 0 175 -34.5t122 -94t71 -138.5t23 -169zM752 659q4 39 -3.5 74t-28 61.5t-53.5 42t-81 15.5q-39 0 -70 -15t-55.5 -41t-43 -61t-30.5 -76h365zM811 1219h-287l-192 327h182l178 -153l232 153h194z" />
    <glyph glyph-name="Gcircumflex" unicode="&#x11c;" horiz-adv-x="1421" 
d="M1087 965q-18 48 -41 86t-53.5 64.5t-70.5 41t-91 14.5q-92 0 -167 -46t-128.5 -123.5t-82.5 -178t-29 -209.5q0 -90 23 -157.5t64 -112t96 -66.5t120 -22q102 0 168 54t92 157l2 8h-203l48 268h507l-22 -133q-29 -167 -82 -286.5t-131.5 -196.5t-181.5 -113.5
t-230 -36.5q-120 0 -223.5 39t-180.5 114.5t-121 187t-44 255.5q0 127 25 242t71 213.5t111 177.5t146 134.5t175 85.5t197 30q202 0 335 -90t193 -283zM1043 1526l-178 153l-232 -153h-194l307 327h287l192 -327h-182z" />
    <glyph glyph-name="gcircumflex" unicode="&#x11d;" horiz-adv-x="1143" 
d="M422 -23q-85 0 -151 28.5t-111 81.5t-68.5 129.5t-23.5 172.5q0 163 41 297t107 224t155 139t196 49q41 0 73 -6t59.5 -17.5t52.5 -27.5t51 -37l10 65h283l-156 -893q-40 -220 -87 -314t-114 -148.5t-169 -84.5t-248 -34l-48 227q91 4 155 18.5t106.5 42t66 69t33.5 99.5
l2 13q-40 -41 -96 -67t-119 -26zM358 436q0 -96 39 -144t111 -48q28 0 52 7.5t45.5 20t40.5 28.5t36 34l72 405q-20 23 -39.5 40.5t-41 29t-46 17t-54.5 5.5q-50 0 -90 -31.5t-67.5 -85.5t-42.5 -125.5t-15 -152.5zM903 1201l-178 153l-232 -153h-194l307 327h287l192 -327
h-182z" />
    <glyph glyph-name="Gbreve" unicode="&#x11e;" horiz-adv-x="1421" 
d="M1087 965q-18 48 -41 86t-53.5 64.5t-70.5 41t-91 14.5q-92 0 -167 -46t-128.5 -123.5t-82.5 -178t-29 -209.5q0 -90 23 -157.5t64 -112t96 -66.5t120 -22q102 0 168 54t92 157l2 8h-203l48 268h507l-22 -133q-29 -167 -82 -286.5t-131.5 -196.5t-181.5 -113.5
t-230 -36.5q-120 0 -223.5 39t-180.5 114.5t-121 187t-44 255.5q0 127 25 242t71 213.5t111 177.5t146 134.5t175 85.5t197 30q202 0 335 -90t193 -283zM1272 1853q-38 -157 -142.5 -242t-275.5 -85q-79 0 -144.5 22t-111.5 64t-70.5 102.5t-21.5 138.5h172q8 -68 58 -100.5
t137 -32.5q91 0 144.5 29t88.5 104h166z" />
    <glyph glyph-name="gbreve" unicode="&#x11f;" horiz-adv-x="1143" 
d="M422 -23q-85 0 -151 28.5t-111 81.5t-68.5 129.5t-23.5 172.5q0 163 41 297t107 224t155 139t196 49q41 0 73 -6t59.5 -17.5t52.5 -27.5t51 -37l10 65h283l-156 -893q-40 -220 -87 -314t-114 -148.5t-169 -84.5t-248 -34l-48 227q91 4 155 18.5t106.5 42t66 69t33.5 99.5
l2 13q-40 -41 -96 -67t-119 -26zM358 436q0 -96 39 -144t111 -48q28 0 52 7.5t45.5 20t40.5 28.5t36 34l72 405q-20 23 -39.5 40.5t-41 29t-46 17t-54.5 5.5q-50 0 -90 -31.5t-67.5 -85.5t-42.5 -125.5t-15 -152.5zM1132 1546q-38 -157 -142.5 -242t-275.5 -85
q-79 0 -144.5 22t-111.5 64t-70.5 102.5t-21.5 138.5h172q8 -68 58 -100.5t137 -32.5q91 0 144.5 29t88.5 104h166z" />
    <glyph glyph-name="Gdotaccent" unicode="&#x120;" horiz-adv-x="1421" 
d="M1087 965q-18 48 -41 86t-53.5 64.5t-70.5 41t-91 14.5q-92 0 -167 -46t-128.5 -123.5t-82.5 -178t-29 -209.5q0 -90 23 -157.5t64 -112t96 -66.5t120 -22q102 0 168 54t92 157l2 8h-203l48 268h507l-22 -133q-29 -167 -82 -286.5t-131.5 -196.5t-181.5 -113.5
t-230 -36.5q-120 0 -223.5 39t-180.5 114.5t-121 187t-44 255.5q0 127 25 242t71 213.5t111 177.5t146 134.5t175 85.5t197 30q202 0 335 -90t193 -283zM1016 1683q0 -32 -13 -60t-34.5 -50t-50.5 -34.5t-60 -12.5q-33 0 -62.5 12.5t-51 34.5t-34.5 50t-13 60q0 33 13 62
t34.5 51t51 34.5t62.5 12.5q31 0 60 -12.5t50.5 -34.5t34.5 -51t13 -62z" />
    <glyph glyph-name="gdotaccent" unicode="&#x121;" horiz-adv-x="1143" 
d="M422 -23q-85 0 -151 28.5t-111 81.5t-68.5 129.5t-23.5 172.5q0 163 41 297t107 224t155 139t196 49q41 0 73 -6t59.5 -17.5t52.5 -27.5t51 -37l10 65h283l-156 -893q-40 -220 -87 -314t-114 -148.5t-169 -84.5t-248 -34l-48 227q91 4 155 18.5t106.5 42t66 69t33.5 99.5
l2 13q-40 -41 -96 -67t-119 -26zM358 436q0 -96 39 -144t111 -48q28 0 52 7.5t45.5 20t40.5 28.5t36 34l72 405q-20 23 -39.5 40.5t-41 29t-46 17t-54.5 5.5q-50 0 -90 -31.5t-67.5 -85.5t-42.5 -125.5t-15 -152.5zM876 1376q0 -32 -13 -60t-34.5 -50t-50.5 -34.5t-60 -12.5
q-33 0 -62.5 12.5t-51 34.5t-34.5 50t-13 60q0 33 13 62t34.5 51t51 34.5t62.5 12.5q31 0 60 -12.5t50.5 -34.5t34.5 -51t13 -62z" />
    <glyph glyph-name="Gcommaaccent" unicode="&#x122;" horiz-adv-x="1421" 
d="M1087 965q-18 48 -41 86t-53.5 64.5t-70.5 41t-91 14.5q-92 0 -167 -46t-128.5 -123.5t-82.5 -178t-29 -209.5q0 -90 23 -157.5t64 -112t96 -66.5t120 -22q102 0 168 54t92 157l2 8h-203l48 268h507l-22 -133q-29 -167 -82 -286.5t-131.5 -196.5t-181.5 -113.5
t-230 -36.5q-120 0 -223.5 39t-180.5 114.5t-121 187t-44 255.5q0 127 25 242t71 213.5t111 177.5t146 134.5t175 85.5t197 30q202 0 335 -90t193 -283zM541 -491h-158l82 393h270z" />
    <glyph glyph-name="gcommaaccent" unicode="&#x123;" horiz-adv-x="1143" 
d="M422 -23q-85 0 -151 28.5t-111 81.5t-68.5 129.5t-23.5 172.5q0 163 41 297t107 224t155 139t196 49q41 0 73 -6t59.5 -17.5t52.5 -27.5t51 -37l10 65h283l-156 -893q-40 -220 -87 -314t-114 -148.5t-169 -84.5t-248 -34l-48 227q91 4 155 18.5t106.5 42t66 69t33.5 99.5
l2 13q-40 -41 -96 -67t-119 -26zM358 436q0 -96 39 -144t111 -48q28 0 52 7.5t45.5 20t40.5 28.5t36 34l72 405q-20 23 -39.5 40.5t-41 29t-46 17t-54.5 5.5q-50 0 -90 -31.5t-67.5 -85.5t-42.5 -125.5t-15 -152.5zM784.021 1596.91h157.972l-81.9854 -392.928h-269.95z" />
    <glyph glyph-name="Hcircumflex" unicode="&#x124;" horiz-adv-x="1522" 
d="M1243 0h-287l105 602h-580l-104 -602h-287l252 1434h287l-97 -549h580l96 549h287zM1133 1506l-178 153l-232 -153h-194l307 327h287l192 -327h-182z" />
    <glyph glyph-name="hcircumflex" unicode="&#x125;" horiz-adv-x="1188" 
d="M1087 764q0 -34 -4 -76t-10 -82l-106 -606h-283l102 582q5 27 7 50.5t2 43.5q0 75 -36 115t-114 40q-42 0 -77 -13t-62 -42t-46.5 -75t-31.5 -113l-102 -588h-283l238 1352l307 141l-86 -489q41 38 100.5 66t142.5 28q92 0 156 -23.5t104.5 -65.5t61 -103t20.5 -142z
M979 1506l-178 153l-232 -153h-194l307 327h287l192 -327h-182z" />
    <glyph glyph-name="Hbar" unicode="&#x126;" horiz-adv-x="1522" 
d="M217 1292h100l25 142h287l-25 -142h580l24 142h287l-25 -142h105l-51 -282h-105l-176 -1010h-287l105 602h-580l-104 -602h-287l176 1010h-100zM1112 885l21 125h-580l-21 -125h580z" />
    <glyph glyph-name="hbar" unicode="&#x127;" horiz-adv-x="1188" 
d="M1087 764q0 -34 -4 -76t-10 -82l-106 -606h-283l102 582q5 27 7 50.5t2 43.5q0 75 -36.5 115t-113.5 40q-42 0 -77 -13t-62 -42t-46.5 -75t-31.5 -113l-102 -588h-283l190 1085h-149l37 215h149l11 52l307 141l-86 -489q41 38 100.5 66t142.5 28q174 0 258 -86.5
t84 -247.5z" />
    <glyph glyph-name="Itilde" unicode="&#x128;" horiz-adv-x="696" 
d="M395 0h-286l253 1434h287zM975 1814q-12 -68 -38 -123t-62.5 -93t-82.5 -58.5t-98 -20.5q-54 0 -97.5 17t-80.5 37q-35 20 -66.5 35.5t-62.5 15.5q-26 0 -45 -22t-37 -76h-184q11 68 36.5 122.5t61.5 92.5t82 58.5t98 20.5q53 0 95 -15.5t77 -35.5q38 -20 70.5 -36.5
t64.5 -16.5q29 0 46.5 22.5t37.5 75.5h185z" />
    <glyph glyph-name="itilde" unicode="&#x129;" horiz-adv-x="578" 
d="M336 0h-283l189 1075h282zM863 1507q-12 -68 -38 -123t-62.5 -93t-82.5 -58.5t-98 -20.5q-54 0 -97.5 17t-80.5 37q-35 20 -66.5 35.5t-62.5 15.5q-26 0 -45 -22t-37 -76h-184q11 68 36.5 122.5t61.5 92.5t82 58.5t98 20.5q53 0 95 -15.5t77 -35.5q38 -20 70.5 -36.5
t64.5 -16.5q29 0 46.5 22.5t37.5 75.5h185z" />
    <glyph glyph-name="Imacron" unicode="&#x12a;" horiz-adv-x="696" 
d="M395 0h-286l253 1434h287zM827 1556h-594l37 215h594z" />
    <glyph glyph-name="imacron" unicode="&#x12b;" horiz-adv-x="578" 
d="M336 0h-283l189 1075h282zM715 1249h-594l37 215h594z" />
    <glyph glyph-name="Ibreve" unicode="&#x12c;" horiz-adv-x="696" 
d="M395 0h-286l253 1434h287zM960 1831q-38 -157 -142.5 -242t-275.5 -85q-79 0 -144.5 22t-111.5 64t-70.5 102.5t-21.5 138.5h172q8 -68 58 -100.5t137 -32.5q91 0 144.5 29t88.5 104h166z" />
    <glyph glyph-name="ibreve" unicode="&#x12d;" horiz-adv-x="578" 
d="M336 0h-283l189 1075h282zM852 1546q-38 -157 -142.5 -242t-275.5 -85q-79 0 -144.5 22t-111.5 64t-70.5 102.5t-21.5 138.5h172q8 -68 58 -100.5t137 -32.5q91 0 144.5 29t88.5 104h166z" />
    <glyph glyph-name="Iogonek" unicode="&#x12e;" horiz-adv-x="696" 
d="M395 0h-286l253 1434h287zM377 0q-28 -11 -60 -28.5t-59 -40t-44.5 -50.5t-17.5 -60q0 -20 11.5 -31t27.5 -11q20 0 37.5 11.5t28.5 25.5l92 -80q-36 -64 -95 -105t-142 -41q-82 0 -135.5 45t-53.5 113q0 45 16.5 83.5t43 70.5t60.5 56.5t69 41.5h221z" />
    <glyph glyph-name="iogonek" unicode="&#x12f;" horiz-adv-x="578" 
d="M586 1325q0 -33 -13 -62.5t-35 -51.5t-51.5 -35t-62.5 -13t-62.5 13t-51.5 35t-35 51.5t-13 62.5t13 62.5t35 51.5t51.5 35t62.5 13t62.5 -13t51.5 -35t35 -51.5t13 -62.5zM336 0h-283l189 1075h282zM318 0q-28 -11 -60 -28.5t-59 -40t-44.5 -50.5t-17.5 -60
q0 -20 11.5 -31t27.5 -11q20 0 37.5 11.5t28.5 25.5l92 -80q-36 -64 -95 -105t-142 -41q-82 0 -135.5 45t-53.5 113q0 45 16.5 83.5t43 70.5t60.5 56.5t69 41.5h221z" />
    <glyph glyph-name="Idotaccent" unicode="&#x130;" horiz-adv-x="696" 
d="M395 0h-286l253 1434h287zM710 1683q0 -32 -13 -60t-34.5 -50t-50.5 -34.5t-60 -12.5q-33 0 -62.5 12.5t-51 34.5t-34.5 50t-13 60q0 33 13 62t34.5 51t51 34.5t62.5 12.5q31 0 60 -12.5t50.5 -34.5t34.5 -51t13 -62z" />
    <glyph glyph-name="dotlessi" unicode="&#x131;" horiz-adv-x="578" 
d="M336 0h-283l189 1075h282z" />
    <glyph glyph-name="IJ" unicode="&#x132;" horiz-adv-x="2019" 
d="M395 0h-286l253 1434h287zM1839 516q-31 -171 -100 -290t-187 -182q-126 -67 -305 -67q-108 0 -193 32t-147 91t-102 142t-58 184l277 66q14 -56 33.5 -98.5t49 -72t71 -44.5t98.5 -15q62 0 109 19.5t81.5 60t58.5 102.5t39 146l150 844h287z" />
    <glyph glyph-name="ij" unicode="&#x133;" horiz-adv-x="1155" 
d="M586 1325q0 -33 -13 -62.5t-35 -51.5t-51.5 -35t-62.5 -13t-62.5 13t-51.5 35t-35 51.5t-13 62.5t13 62.5t35 51.5t51.5 35t62.5 13t62.5 -13t51.5 -35t35 -51.5t13 -62.5zM336 0h-283l189 1075h282zM1166 1325q0 -33 -13 -62.5t-35 -51.5t-51.5 -35t-62.5 -13t-62.5 13
t-51.5 35t-35 51.5t-13 62.5t13 62.5t35 51.5t51.5 35t62.5 13t62.5 -13t51.5 -35t35 -51.5t13 -62.5zM922 61q-20 -113 -50 -193.5t-86 -134.5t-145 -84.5t-227 -43.5l-59 221q80 11 130.5 26.5t81 42.5t47 68.5t27.5 104.5l179 1007h282z" />
    <glyph glyph-name="Jcircumflex" unicode="&#x134;" horiz-adv-x="1323" 
d="M1143 516q-31 -171 -100 -290t-187 -182q-126 -67 -305 -67q-108 0 -193 32t-147 91t-102 142t-58 184l277 66q14 -56 33.5 -98.5t49 -72t71 -44.5t98.5 -15q62 0 109 19.5t81.5 60t58.5 102.5t39 146l150 844h287zM1336 1526l-178 153l-232 -153h-194l307 327h287
l192 -327h-182z" />
    <glyph glyph-name="jcircumflex" unicode="&#x135;" horiz-adv-x="578" 
d="M344 61q-20 -113 -50 -193.5t-86 -134.5t-145 -84.5t-227 -43.5l-59 221q80 11 130.5 26.5t81 42.5t47 68.5t27.5 104.5l179 1007h282zM621 1219l-179 153l-231 -153h-195l308 327h286l193 -327h-182z" />
    <glyph glyph-name="Kcommaaccent" unicode="&#x136;" horiz-adv-x="1466" 
d="M979 932l352 -932h-303l-268 711l-316 -318l-67 -393h-287l252 1434h287l-112 -633l613 633h347zM611 -491h-158l82 393h270z" />
    <glyph glyph-name="kcommaaccent" unicode="&#x137;" horiz-adv-x="1120" 
d="M795 741l174 -741h-295l-113 506l-178 -180l-57 -326h-283l238 1352l309 141l-144 -795l347 377h333zM423 -491h-158l82 393h270z" />
    <glyph glyph-name="kgreenlandic" unicode="&#x138;" horiz-adv-x="1120" 
d="M795 741l174 -741h-295l-113 506l-178 -180l-57 -326h-283l188 1075h283l-68 -377l347 377h333z" />
    <glyph glyph-name="Lacute" unicode="&#x139;" horiz-adv-x="1262" 
d="M1087 0h-997l252 1434h287l-203 -1151h711zM604 1526h-240l236 327h358z" />
    <glyph glyph-name="lacute" unicode="&#x13a;" horiz-adv-x="578" 
d="M336 0h-283l238 1352l307 141zM553 1526h-240l236 327h358z" />
    <glyph glyph-name="Lcommaaccent" unicode="&#x13b;" horiz-adv-x="1262" 
d="M1087 0h-997l252 1434h287l-203 -1151h711zM539 -491h-158l82 393h270z" />
    <glyph glyph-name="lcommaaccent" unicode="&#x13c;" horiz-adv-x="578" 
d="M336 0h-283l238 1352l307 141zM119 -491h-158l82 393h270z" />
    <glyph glyph-name="Lcaron" unicode="&#x13d;" horiz-adv-x="1262" 
d="M1087 0h-997l252 1434h287l-203 -1151h711zM932 1063h-195l131 576h334z" />
    <glyph glyph-name="lcaron" unicode="&#x13e;" horiz-adv-x="821" 
d="M336 0h-283l238 1352l307 141zM784 858h-195l131 576h334z" />
    <glyph glyph-name="Ldot" unicode="&#x13f;" horiz-adv-x="1262" 
d="M1087 0h-997l252 1434h287l-203 -1151h711zM1063 754q0 -39 -15.5 -74.5t-41.5 -61.5t-61.5 -41.5t-74.5 -15.5t-74 15.5t-61 41.5t-41.5 61.5t-15.5 74.5t15.5 74t41.5 61t61 41.5t74 15.5t74.5 -15.5t61.5 -41.5t41.5 -61t15.5 -74z" />
    <glyph glyph-name="ldot" unicode="&#x140;" horiz-adv-x="1135" 
d="M336 0h-283l238 1352l307 141zM969 752q0 -39 -15.5 -74.5t-41.5 -61.5t-61.5 -41.5t-74.5 -15.5t-74 15.5t-61 41.5t-41.5 61.5t-15.5 74.5t15.5 74t41.5 61t61 41.5t74 15.5t74.5 -15.5t61.5 -41.5t41.5 -61t15.5 -74z" />
    <glyph glyph-name="Lslash" unicode="&#x141;" horiz-adv-x="1292" 
d="M1118 0h-997l86 483l-152 -102l49 276l152 103l119 674h282l-88 -498l269 176l-50 -276l-268 -177l-65 -376h714z" />
    <glyph glyph-name="lslash" unicode="&#x142;" horiz-adv-x="659" 
d="M537 915l133 84l-47 -276l-134 -82l-114 -641h-279l86 489l-133 -81l49 276l133 82l105 586l303 141z" />
    <glyph glyph-name="Nacute" unicode="&#x143;" horiz-adv-x="1522" 
d="M1243 0h-256l-446 958l-168 -958h-283l252 1434h274l434 -921l162 921h283zM1014 1526h-240l236 327h358z" />
    <glyph glyph-name="nacute" unicode="&#x144;" horiz-adv-x="1188" 
d="M1087 764q0 -34 -4 -76t-10 -82l-106 -606h-283l102 582q5 27 7 50.5t2 43.5q0 75 -36 115t-114 40q-42 0 -77 -13t-62 -42t-46.5 -75t-31.5 -113l-102 -588h-283l188 1075h283l-12 -71q41 38 100.5 66t142.5 28q174 0 258 -86.5t84 -247.5zM745 1219h-240l236 327h358z
" />
    <glyph glyph-name="Ncommaaccent" unicode="&#x145;" horiz-adv-x="1522" 
d="M1243 0h-256l-446 958l-168 -958h-283l252 1434h274l434 -921l162 921h283zM607 -491h-158l82 393h270z" />
    <glyph glyph-name="ncommaaccent" unicode="&#x146;" horiz-adv-x="1188" 
d="M1087 764q0 -34 -4 -76t-10 -82l-106 -606h-283l102 582q5 27 7 50.5t2 43.5q0 75 -36 115t-114 40q-42 0 -77 -13t-62 -42t-46.5 -75t-31.5 -113l-102 -588h-283l188 1075h283l-12 -71q41 38 100.5 66t142.5 28q174 0 258 -86.5t84 -247.5zM425 -491h-158l82 393h270z
" />
    <glyph glyph-name="Ncaron" unicode="&#x147;" horiz-adv-x="1522" 
d="M1243 0h-256l-446 958l-168 -958h-283l252 1434h274l434 -921l162 921h283zM1083 1526h-287l-192 327h182l178 -153l232 153h194z" />
    <glyph glyph-name="ncaron" unicode="&#x148;" horiz-adv-x="1188" 
d="M1087 764q0 -34 -4 -76t-10 -82l-106 -606h-283l102 582q5 27 7 50.5t2 43.5q0 75 -36 115t-114 40q-42 0 -77 -13t-62 -42t-46.5 -75t-31.5 -113l-102 -588h-283l188 1075h283l-12 -71q41 38 100.5 66t142.5 28q174 0 258 -86.5t84 -247.5zM858 1219h-287l-192 327h182
l178 -153l232 153h194z" />
    <glyph glyph-name="napostrophe" unicode="&#x149;" horiz-adv-x="1667" 
d="M1566 764q0 -34 -4 -76t-10 -82l-106 -606h-283l102 582q5 27 7 50.5t2 43.5q0 75 -36 115t-114 40q-42 0 -77 -13t-62 -42t-46.5 -75t-31.5 -113l-102 -588h-283l188 1075h283l-12 -71q41 38 100.5 66t142.5 28q174 0 258 -86.5t84 -247.5zM375 858h-195l131 576h334z
" />
    <glyph glyph-name="Eng" unicode="&#x14a;" horiz-adv-x="1522" 
d="M1241 0q-18 -105 -56 -176t-98.5 -116.5t-145 -69t-196.5 -33.5l-59 221q75 10 124.5 24.5t80.5 38.5t48 61t28 91l-426 917l-168 -958h-283l252 1434h274l434 -921l162 921h283z" />
    <glyph glyph-name="eng" unicode="&#x14b;" horiz-adv-x="1188" 
d="M1087 764q0 -34 -3 -76t-11 -82l-108 -606q-17 -94 -48.5 -163t-88.5 -117t-144.5 -76t-214.5 -39l-59 221q74 9 124 24t81.5 40.5t49 63.5t27.5 93l94 535q5 27 7 50.5t2 43.5q0 71 -34.5 113t-115.5 42q-42 0 -77 -13t-62 -42t-46.5 -75t-31.5 -113l-102 -588h-283
l188 1075h283l-12 -71q20 18 44.5 34.5t56.5 31.5t68 21.5t74 6.5q92 0 157 -23.5t105.5 -68t60 -104.5t19.5 -138z" />
    <glyph glyph-name="Omacron" unicode="&#x14c;" horiz-adv-x="1464" 
d="M1409 866q0 -121 -23.5 -233.5t-68 -211.5t-108.5 -180.5t-144 -140t-175 -91t-202 -32.5q-132 0 -237 40.5t-178.5 116.5t-112.5 185.5t-39 247.5q0 121 23.5 234t68 211.5t108.5 180.5t144 140.5t175 90.5t202 32q132 0 237 -40.5t178.5 -116.5t112.5 -185.5t39 -247.5
zM1110 825q0 89 -22.5 154.5t-61.5 108t-91.5 63t-113.5 20.5q-83 0 -156 -40.5t-127.5 -114.5t-86 -177.5t-31.5 -230.5q0 -89 22.5 -154t61.5 -108t91.5 -63.5t113.5 -20.5q83 0 156 40.5t127.5 114.5t86 177.5t31.5 230.5zM1215 1556h-594l37 215h594z" />
    <glyph glyph-name="omacron" unicode="&#x14d;" horiz-adv-x="1128" 
d="M72 440q0 132 41.5 251.5t115.5 210t177.5 143.5t228.5 53q94 0 172 -32.5t133.5 -92.5t86 -145.5t30.5 -192.5q0 -108 -29 -212.5t-99.5 -210t-185.5 -170.5t-249 -65q-95 0 -172.5 32.5t-133 92.5t-86 145.5t-30.5 192.5zM362 459q0 -50 12.5 -89t34 -65.5t51 -40.5
t64.5 -14q48 0 91.5 24.5t77 71.5t53.5 115t20 155q0 50 -12.5 89t-34 65.5t-51.5 40.5t-64 14q-48 0 -91.5 -24.5t-77 -71.5t-53.5 -115t-20 -155zM987 1249h-594l37 215h594z" />
    <glyph glyph-name="Obreve" unicode="&#x14e;" horiz-adv-x="1464" 
d="M1409 866q0 -121 -23.5 -233.5t-68 -211.5t-108.5 -180.5t-144 -140t-175 -91t-202 -32.5q-132 0 -237 40.5t-178.5 116.5t-112.5 185.5t-39 247.5q0 121 23.5 234t68 211.5t108.5 180.5t144 140.5t175 90.5t202 32q132 0 237 -40.5t178.5 -116.5t112.5 -185.5t39 -247.5
zM1110 825q0 89 -22.5 154.5t-61.5 108t-91.5 63t-113.5 20.5q-83 0 -156 -40.5t-127.5 -114.5t-86 -177.5t-31.5 -230.5q0 -89 22.5 -154t61.5 -108t91.5 -63.5t113.5 -20.5q83 0 156 40.5t127.5 114.5t86 177.5t31.5 230.5zM1325 1851q-38 -157 -142.5 -242t-275.5 -85
q-79 0 -144.5 22t-111.5 64t-70.5 102.5t-21.5 138.5h172q8 -68 58 -100.5t137 -32.5q91 0 144.5 29t88.5 104h166z" />
    <glyph glyph-name="obreve" unicode="&#x14f;" horiz-adv-x="1128" 
d="M72 440q0 132 41.5 251.5t115.5 210t177.5 143.5t228.5 53q94 0 172 -32.5t133.5 -92.5t86 -145.5t30.5 -192.5q0 -108 -29 -212.5t-99.5 -210t-185.5 -170.5t-249 -65q-95 0 -172.5 32.5t-133 92.5t-86 145.5t-30.5 192.5zM362 459q0 -50 12.5 -89t34 -65.5t51 -40.5
t64.5 -14q48 0 91.5 24.5t77 71.5t53.5 115t20 155q0 50 -12.5 89t-34 65.5t-51.5 40.5t-64 14q-48 0 -91.5 -24.5t-77 -71.5t-53.5 -115t-20 -155zM1124 1546q-38 -157 -142.5 -242t-275.5 -85q-79 0 -144.5 22t-111.5 64t-70.5 102.5t-21.5 138.5h172q8 -68 58 -100.5
t137 -32.5q91 0 144.5 29t88.5 104h166z" />
    <glyph glyph-name="Ohungarumlaut" unicode="&#x150;" horiz-adv-x="1464" 
d="M1409 866q0 -121 -23.5 -233.5t-68 -211.5t-108.5 -180.5t-144 -140t-175 -91t-202 -32.5q-132 0 -237 40.5t-178.5 116.5t-112.5 185.5t-39 247.5q0 121 23.5 234t68 211.5t108.5 180.5t144 140.5t175 90.5t202 32q132 0 237 -40.5t178.5 -116.5t112.5 -185.5t39 -247.5
zM1110 825q0 89 -22.5 154.5t-61.5 108t-91.5 63t-113.5 20.5q-83 0 -156 -40.5t-127.5 -114.5t-86 -177.5t-31.5 -230.5q0 -89 22.5 -154t61.5 -108t91.5 -63.5t113.5 -20.5q83 0 156 40.5t127.5 114.5t86 177.5t31.5 230.5zM1156 1526h-240l235 327h359zM705 1526h-240
l236 327h358z" />
    <glyph glyph-name="ohungarumlaut" unicode="&#x151;" horiz-adv-x="1128" 
d="M72 440q0 132 41.5 251.5t115.5 210t177.5 143.5t228.5 53q94 0 172 -32.5t133.5 -92.5t86 -145.5t30.5 -192.5q0 -108 -29 -212.5t-99.5 -210t-185.5 -170.5t-249 -65q-95 0 -172.5 32.5t-133 92.5t-86 145.5t-30.5 192.5zM362 459q0 -50 12.5 -89t34 -65.5t51 -40.5
t64.5 -14q48 0 91.5 24.5t77 71.5t53.5 115t20 155q0 50 -12.5 89t-34 65.5t-51.5 40.5t-64 14q-48 0 -91.5 -24.5t-77 -71.5t-53.5 -115t-20 -155zM961 1219h-240l235 327h359zM510 1219h-240l236 327h358z" />
    <glyph glyph-name="OE" unicode="&#x152;" horiz-adv-x="2175" 
d="M1110 825q0 89 -22.5 154.5t-61.5 108t-91.5 63t-113.5 20.5q-83 0 -156 -40.5t-127.5 -114.5t-86 -177.5t-31.5 -230.5q0 -89 22.5 -154t61.5 -108t91.5 -63.5t113.5 -20.5q83 0 156 40.5t127.5 114.5t86 177.5t31.5 230.5zM1294 281h715l-49 -281h-971l23 129
q-18 -26 -49 -53t-73 -49t-95 -36t-115 -14q-128 0 -231.5 40.5t-176.5 116.5t-112 185.5t-39 247.5q0 121 24 234t68.5 211.5t107.5 180.5t142 140.5t172 90.5t196 32q75 0 135 -13.5t107.5 -37t82 -55t58.5 -66.5l27 150h940l-49 -281h-684l-43 -248h567l-49 -278h-567z
" />
    <glyph glyph-name="oe" unicode="&#x153;" horiz-adv-x="1753" 
d="M1012 446q-6 -55 10.5 -93.5t46.5 -62.5t68 -35t75 -11q54 0 107.5 17t107.5 54l138 -196q-97 -76 -190 -109t-195 -33q-123 0 -204 41t-136 113q-65 -72 -151 -113t-195 -41q-95 0 -172.5 32.5t-133 92.5t-86 145.5t-30.5 192.5q0 133 42 252.5t118 211.5t178.5 143
t216.5 51q106 0 187.5 -38.5t129.5 -119.5q26 32 62 61t79 50.5t92 34t103 12.5q106 0 181.5 -34.5t124 -94t71 -138.5t22.5 -169q0 -53 -9 -109.5t-23 -106.5h-635zM1413 659q4 39 -3.5 74t-28 61.5t-53.5 42t-81 15.5q-38 0 -69.5 -15t-56 -41t-42.5 -61t-30 -76h364z
M362 459q0 -50 12.5 -89t34 -65.5t51 -40.5t64.5 -14q48 0 91.5 24.5t77 71.5t53.5 115t20 155q0 50 -12.5 89t-34 65.5t-51.5 40.5t-64 14q-48 0 -91.5 -24.5t-77 -71.5t-53.5 -115t-20 -155z" />
    <glyph glyph-name="Racute" unicode="&#x154;" horiz-adv-x="1454" 
d="M1425 1042q0 -103 -28.5 -183.5t-77.5 -140.5t-114 -100t-138 -61l176 -557h-307l-166 516h-303l-90 -516h-287l252 1434h600q121 0 211.5 -27t151 -78t90.5 -123.5t30 -163.5zM1124 1004q0 74 -52 112.5t-159 38.5h-333l-64 -369h377q104 0 167.5 56.5t63.5 161.5z
M883 1526h-240l236 327h358z" />
    <glyph glyph-name="racute" unicode="&#x155;" horiz-adv-x="868" 
d="M793 741q-28 30 -73.5 52t-92.5 22q-36 0 -67 -8.5t-56.5 -36t-46 -78.5t-35.5 -135l-98 -557h-283l190 1075h283l-12 -71q37 42 89 68t118 26q72 0 126 -26.5t83 -63.5zM629 1219h-240l236 327h358z" />
    <glyph glyph-name="Rcommaaccent" unicode="&#x156;" horiz-adv-x="1454" 
d="M1425 1042q0 -103 -28.5 -183.5t-77.5 -140.5t-114 -100t-138 -61l176 -557h-307l-166 516h-303l-90 -516h-287l252 1434h600q121 0 211.5 -27t151 -78t90.5 -123.5t30 -163.5zM1124 1004q0 74 -52 112.5t-159 38.5h-333l-64 -369h377q104 0 167.5 56.5t63.5 161.5z
M577 -491h-158l82 393h270z" />
    <glyph glyph-name="rcommaaccent" unicode="&#x157;" horiz-adv-x="868" 
d="M793 741q-28 30 -73.5 52t-92.5 22q-36 0 -67 -8.5t-56.5 -36t-46 -78.5t-35.5 -135l-98 -557h-283l190 1075h283l-12 -71q37 42 89 68t118 26q72 0 126 -26.5t83 -63.5zM110 -491h-158l82 393h270z" />
    <glyph glyph-name="Rcaron" unicode="&#x158;" horiz-adv-x="1454" 
d="M1425 1042q0 -103 -28.5 -183.5t-77.5 -140.5t-114 -100t-138 -61l176 -557h-307l-166 516h-303l-90 -516h-287l252 1434h600q121 0 211.5 -27t151 -78t90.5 -123.5t30 -163.5zM1124 1004q0 74 -52 112.5t-159 38.5h-333l-64 -369h377q104 0 167.5 56.5t63.5 161.5z
M983 1526h-287l-192 327h182l178 -153l232 153h194z" />
    <glyph glyph-name="rcaron" unicode="&#x159;" horiz-adv-x="868" 
d="M793 741q-28 30 -73.5 52t-92.5 22q-36 0 -67 -8.5t-56.5 -36t-46 -78.5t-35.5 -135l-98 -557h-283l190 1075h283l-12 -71q37 42 89 68t118 26q72 0 126 -26.5t83 -63.5zM700 1219h-287l-192 327h182l178 -153l232 153h194z" />
    <glyph glyph-name="Sacute" unicode="&#x15a;" horiz-adv-x="1346" 
d="M1079 1014q-28 35 -62 66.5t-74.5 55.5t-88 38t-104.5 14q-56 0 -96 -11t-65 -30.5t-36.5 -45t-11.5 -54.5q0 -31 12.5 -53.5t42.5 -42.5t80.5 -40t126.5 -45q74 -24 147 -57t130.5 -81t93.5 -113.5t36 -155.5q0 -122 -43 -212.5t-119.5 -150.5t-181 -89.5t-227.5 -29.5
q-109 0 -201.5 24.5t-166.5 65.5t-129 94.5t-89 112.5l234 166q39 -53 85 -89t96.5 -58t104.5 -31.5t109 -9.5q46 0 87.5 9.5t72.5 30t49 53t18 79.5q0 28 -14.5 52.5t-48 47t-89 45.5t-136.5 49q-83 25 -152 59.5t-119 81t-78 107t-28 138.5q0 120 44 205.5t118.5 140
t171.5 80.5t204 26q95 0 174.5 -20.5t145 -56t117.5 -83.5t92 -104zM823 1526h-240l236 327h358z" />
    <glyph glyph-name="sacute" unicode="&#x15b;" horiz-adv-x="1092" 
d="M897 745q-32 21 -71.5 41t-83.5 35.5t-91 25t-92 9.5q-60 0 -86.5 -19.5t-26.5 -48.5q0 -13 5.5 -24.5t25.5 -26t60 -34.5t108 -48q67 -28 122.5 -58.5t94.5 -68.5t60.5 -85.5t21.5 -108.5q0 -94 -33.5 -161.5t-91.5 -111t-136.5 -64t-168.5 -20.5q-154 0 -285.5 49
t-208.5 113l134 205q71 -50 171 -87.5t220 -37.5q55 0 84.5 23t29.5 61q0 15 -6 28.5t-21.5 26t-41.5 26t-66 28.5q-91 36 -159 70t-113 73t-67.5 86t-22.5 109q0 168 108.5 258t309.5 90q73 0 137.5 -11.5t120 -29.5t103 -41t85.5 -47zM676 1219h-240l236 327h358z" />
    <glyph glyph-name="Scircumflex" unicode="&#x15c;" horiz-adv-x="1346" 
d="M1079 1014q-28 35 -62 66.5t-74.5 55.5t-88 38t-104.5 14q-56 0 -96 -11t-65 -30.5t-36.5 -45t-11.5 -54.5q0 -31 12.5 -53.5t42.5 -42.5t80.5 -40t126.5 -45q74 -24 147 -57t130.5 -81t93.5 -113.5t36 -155.5q0 -122 -43 -212.5t-119.5 -150.5t-181 -89.5t-227.5 -29.5
q-109 0 -201.5 24.5t-166.5 65.5t-129 94.5t-89 112.5l234 166q39 -53 85 -89t96.5 -58t104.5 -31.5t109 -9.5q46 0 87.5 9.5t72.5 30t49 53t18 79.5q0 28 -14.5 52.5t-48 47t-89 45.5t-136.5 49q-83 25 -152 59.5t-119 81t-78 107t-28 138.5q0 120 44 205.5t118.5 140
t171.5 80.5t204 26q95 0 174.5 -20.5t145 -56t117.5 -83.5t92 -104zM1024 1516l-178 153l-232 -153h-194l307 327h287l192 -327h-182z" />
    <glyph glyph-name="scircumflex" unicode="&#x15d;" horiz-adv-x="1092" 
d="M897 745q-32 21 -71.5 41t-83.5 35.5t-91 25t-92 9.5q-60 0 -86.5 -19.5t-26.5 -48.5q0 -13 5.5 -24.5t25.5 -26t60 -34.5t108 -48q67 -28 122.5 -58.5t94.5 -68.5t60.5 -85.5t21.5 -108.5q0 -94 -33.5 -161.5t-91.5 -111t-136.5 -64t-168.5 -20.5q-154 0 -285.5 49
t-208.5 113l134 205q71 -50 171 -87.5t220 -37.5q55 0 84.5 23t29.5 61q0 15 -6 28.5t-21.5 26t-41.5 26t-66 28.5q-91 36 -159 70t-113 73t-67.5 86t-22.5 109q0 168 108.5 258t309.5 90q73 0 137.5 -11.5t120 -29.5t103 -41t85.5 -47zM858 1201l-178 153l-232 -153h-194
l307 327h287l192 -327h-182z" />
    <glyph glyph-name="Scedilla" unicode="&#x15e;" horiz-adv-x="1346" 
d="M1079 1014q-28 35 -62 66.5t-74.5 55.5t-88 38t-104.5 14q-56 0 -96 -11t-65 -30.5t-36.5 -45t-11.5 -54.5q0 -31 12.5 -53.5t42.5 -42.5t80.5 -40t126.5 -45q74 -24 147 -57t130.5 -81t93.5 -113.5t36 -155.5q0 -122 -43 -212.5t-119.5 -150.5t-181 -89.5t-227.5 -29.5
q-109 0 -201.5 24.5t-166.5 65.5t-129 94.5t-89 112.5l234 166q39 -53 85 -89t96.5 -58t104.5 -31.5t109 -9.5q46 0 87.5 9.5t72.5 30t49 53t18 79.5q0 28 -14.5 52.5t-48 47t-89 45.5t-136.5 49q-83 25 -152 59.5t-119 81t-78 107t-28 138.5q0 120 44 205.5t118.5 140
t171.5 80.5t204 26q95 0 174.5 -20.5t145 -56t117.5 -83.5t92 -104zM801 -201q0 -45 -17 -81t-48.5 -61t-75.5 -38.5t-99 -13.5q-83 0 -158.5 26t-133.5 70l57 74q40 -28 91 -48t103 -20q45 0 74 18t29 52q0 29 -17 41t-49 12q-12 0 -26.5 -4t-26.5 -10l-70 28l97 232h114
l-63 -162q17 5 35 9.5t43 4.5q62 0 101.5 -35t39.5 -94z" />
    <glyph glyph-name="scedilla" unicode="&#x15f;" horiz-adv-x="1092" 
d="M897 745q-32 21 -71.5 41t-83.5 35.5t-91 25t-92 9.5q-60 0 -86.5 -19.5t-26.5 -48.5q0 -13 5.5 -24.5t25.5 -26t60 -34.5t108 -48q67 -28 122.5 -58.5t94.5 -68.5t60.5 -85.5t21.5 -108.5q0 -94 -33.5 -161.5t-91.5 -111t-136.5 -64t-168.5 -20.5q-154 0 -285.5 49
t-208.5 113l134 205q71 -50 171 -87.5t220 -37.5q55 0 84.5 23t29.5 61q0 15 -6 28.5t-21.5 26t-41.5 26t-66 28.5q-91 36 -159 70t-113 73t-67.5 86t-22.5 109q0 168 108.5 258t309.5 90q73 0 137.5 -11.5t120 -29.5t103 -41t85.5 -47zM674 -201q0 -45 -17 -81t-48.5 -61
t-75.5 -38.5t-99 -13.5q-83 0 -158.5 26t-133.5 70l57 74q40 -28 91 -48t103 -20q45 0 74 18t29 52q0 29 -17 41t-49 12q-12 0 -26.5 -4t-26.5 -10l-70 28l97 232h114l-63 -162q17 5 35 9.5t43 4.5q62 0 101.5 -35t39.5 -94z" />
    <glyph glyph-name="Scaron" unicode="&#x160;" horiz-adv-x="1346" 
d="M1079 1014q-28 35 -62 66.5t-74.5 55.5t-88 38t-104.5 14q-56 0 -96 -11t-65 -30.5t-36.5 -45t-11.5 -54.5q0 -31 12.5 -53.5t42.5 -42.5t80.5 -40t126.5 -45q74 -24 147 -57t130.5 -81t93.5 -113.5t36 -155.5q0 -122 -43 -212.5t-119.5 -150.5t-181 -89.5t-227.5 -29.5
q-109 0 -201.5 24.5t-166.5 65.5t-129 94.5t-89 112.5l234 166q39 -53 85 -89t96.5 -58t104.5 -31.5t109 -9.5q46 0 87.5 9.5t72.5 30t49 53t18 79.5q0 28 -14.5 52.5t-48 47t-89 45.5t-136.5 49q-83 25 -152 59.5t-119 81t-78 107t-28 138.5q0 120 44 205.5t118.5 140
t171.5 80.5t204 26q95 0 174.5 -20.5t145 -56t117.5 -83.5t92 -104zM987 1536h-287l-192 327h182l178 -153l232 153h194z" />
    <glyph glyph-name="scaron" unicode="&#x161;" horiz-adv-x="1092" 
d="M897 745q-32 21 -71.5 41t-83.5 35.5t-91 25t-92 9.5q-60 0 -86.5 -19.5t-26.5 -48.5q0 -13 5.5 -24.5t25.5 -26t60 -34.5t108 -48q67 -28 122.5 -58.5t94.5 -68.5t60.5 -85.5t21.5 -108.5q0 -94 -33.5 -161.5t-91.5 -111t-136.5 -64t-168.5 -20.5q-154 0 -285.5 49
t-208.5 113l134 205q71 -50 171 -87.5t220 -37.5q55 0 84.5 23t29.5 61q0 15 -6 28.5t-21.5 26t-41.5 26t-66 28.5q-91 36 -159 70t-113 73t-67.5 86t-22.5 109q0 168 108.5 258t309.5 90q73 0 137.5 -11.5t120 -29.5t103 -41t85.5 -47zM799 1219h-287l-192 327h182
l178 -153l232 153h194z" />
    <glyph glyph-name="Tcedilla" unicode="&#x162;" horiz-adv-x="1286" 
d="M1305 1151h-408l-203 -1151h-286l202 1151h-407l49 283h1102zM793 -201q0 -45 -17 -81t-48.5 -61t-75.5 -38.5t-99 -13.5q-83 0 -158.5 26t-133.5 70l57 74q40 -28 91 -48t103 -20q45 0 74 18t29 52q0 29 -17 41t-49 12q-12 0 -26.5 -4t-26.5 -10l-70 28l97 232h114
l-63 -162q17 5 35 9.5t43 4.5q62 0 101.5 -35t39.5 -94z" />
    <glyph glyph-name="tcedilla" unicode="&#x163;" horiz-adv-x="897" 
d="M813 809h-250l-76 -432q-2 -14 -3 -25t-1 -22q0 -48 26 -65t73 -17q42 0 78.5 17t74.5 48l-92 -280q-36 -25 -96 -40.5t-107 -15.5q-114 0 -185 65.5t-71 184.5q0 33 6 74l91 508h-181l47 266h181l49 277l307 141l-74 -418h250zM608 -201q0 -45 -17 -81t-48.5 -61
t-75.5 -38.5t-99 -13.5q-83 0 -158.5 26t-133.5 70l57 74q40 -28 91 -48t103 -20q45 0 74 18t29 52q0 29 -17 41t-49 12q-12 0 -26.5 -4t-26.5 -10l-70 28l97 232h114l-63 -162q17 5 35 9.5t43 4.5q62 0 101.5 -35t39.5 -94z" />
    <glyph glyph-name="Tcaron" unicode="&#x164;" horiz-adv-x="1286" 
d="M1305 1151h-408l-203 -1151h-286l202 1151h-407l49 283h1102zM940 1526h-287l-192 327h182l178 -153l232 153h194z" />
    <glyph glyph-name="tcaron" unicode="&#x165;" horiz-adv-x="897" 
d="M813 809h-250l-76 -432q-2 -14 -3 -25t-1 -22q0 -48 26 -65t73 -17q42 0 78.5 17t74.5 48l-92 -280q-36 -25 -96 -40.5t-107 -15.5q-114 0 -185 65.5t-71 184.5q0 33 6 74l91 508h-181l47 266h181l49 277l307 141l-74 -418h250zM874.933 1155.99h-158.045
l106.174 465.223h270.702z" />
    <glyph glyph-name="Tbar" unicode="&#x166;" horiz-adv-x="1286" 
d="M190 563l50 283h317l53 305h-407l49 283h1102l-49 -283h-408l-53 -305h313l-49 -283h-315l-99 -563h-286l98 563h-316z" />
    <glyph glyph-name="tbar" unicode="&#x167;" horiz-adv-x="897" 
d="M745 436h-247l-11 -59q-3 -14 -3.5 -25t-0.5 -22q0 -48 26 -65t73 -17q42 0 78.5 17t74.5 48l-92 -280q-42 -27 -100 -41.5t-103 -14.5q-119 0 -187.5 68t-68.5 182q0 16 1.5 34.5t4.5 39.5l23 135h-178l47 266h178l21 107h-181l47 266h181l49 277l307 141l-74 -418h250
l-47 -266h-250l-18 -107h248z" />
    <glyph glyph-name="Utilde" unicode="&#x168;" horiz-adv-x="1501" 
d="M1337 594q-27 -152 -76 -267t-126 -193t-185 -117.5t-252 -39.5q-114 0 -209 29.5t-163.5 90t-107 153.5t-38.5 221q0 35 3.5 86.5t13.5 104.5l135 772h286l-131 -742q-6 -37 -11 -85.5t-5 -100.5q0 -125 66 -186.5t196 -61.5q62 0 114 19t92.5 60t69 105.5t44.5 155.5
l145 836h287zM1377 1814q-12 -68 -38 -123t-62.5 -93t-82.5 -58.5t-98 -20.5q-54 0 -97.5 17t-80.5 37q-35 20 -66.5 35.5t-62.5 15.5q-26 0 -45 -22t-37 -76h-184q11 68 36.5 122.5t61.5 92.5t82 58.5t98 20.5q53 0 95 -15.5t77 -35.5q38 -20 70.5 -36.5t64.5 -16.5
q29 0 46.5 22.5t37.5 75.5h185z" />
    <glyph glyph-name="utilde" unicode="&#x169;" horiz-adv-x="1188" 
d="M100 311q0 34 4 76t11 82l106 606h283l-103 -581q-5 -28 -6.5 -51.5t-1.5 -43.5q0 -76 36.5 -115.5t113.5 -39.5q42 0 77 13t62 42t46.5 75t31.5 113l102 588h283l-189 -1075h-282l12 72q-51 -48 -111.5 -71.5t-132.5 -23.5q-173 0 -257.5 86t-84.5 248zM1166 1507
q-12 -68 -38 -123t-62.5 -93t-82.5 -58.5t-98 -20.5q-54 0 -97.5 17t-80.5 37q-35 20 -66.5 35.5t-62.5 15.5q-26 0 -45 -22t-37 -76h-184q11 68 36.5 122.5t61.5 92.5t82 58.5t98 20.5q53 0 95 -15.5t77 -35.5q38 -20 70.5 -36.5t64.5 -16.5q29 0 46.5 22.5t37.5 75.5h185z
" />
    <glyph glyph-name="Umacron" unicode="&#x16a;" horiz-adv-x="1501" 
d="M1337 594q-27 -152 -76 -267t-126 -193t-185 -117.5t-252 -39.5q-114 0 -209 29.5t-163.5 90t-107 153.5t-38.5 221q0 35 3.5 86.5t13.5 104.5l135 772h286l-131 -742q-6 -37 -11 -85.5t-5 -100.5q0 -125 66 -186.5t196 -61.5q62 0 114 19t92.5 60t69 105.5t44.5 155.5
l145 836h287zM1227 1556h-594l37 215h594z" />
    <glyph glyph-name="umacron" unicode="&#x16b;" horiz-adv-x="1188" 
d="M100 311q0 34 4 76t11 82l106 606h283l-103 -581q-5 -28 -6.5 -51.5t-1.5 -43.5q0 -76 36.5 -115.5t113.5 -39.5q42 0 77 13t62 42t46.5 75t31.5 113l102 588h283l-189 -1075h-282l12 72q-51 -48 -111.5 -71.5t-132.5 -23.5q-173 0 -257.5 86t-84.5 248zM1018 1249h-594
l37 215h594z" />
    <glyph glyph-name="Ubreve" unicode="&#x16c;" horiz-adv-x="1501" 
d="M1337 594q-27 -152 -76 -267t-126 -193t-185 -117.5t-252 -39.5q-114 0 -209 29.5t-163.5 90t-107 153.5t-38.5 221q0 35 3.5 86.5t13.5 104.5l135 772h286l-131 -742q-6 -37 -11 -85.5t-5 -100.5q0 -125 66 -186.5t196 -61.5q62 0 114 19t92.5 60t69 105.5t44.5 155.5
l145 836h287zM1364 1853q-38 -157 -142.5 -242t-275.5 -85q-79 0 -144.5 22t-111.5 64t-70.5 102.5t-21.5 138.5h172q8 -68 58 -100.5t137 -32.5q91 0 144.5 29t88.5 104h166z" />
    <glyph glyph-name="ubreve" unicode="&#x16d;" horiz-adv-x="1188" 
d="M100 311q0 34 4 76t11 82l106 606h283l-103 -581q-5 -28 -6.5 -51.5t-1.5 -43.5q0 -76 36.5 -115.5t113.5 -39.5q42 0 77 13t62 42t46.5 75t31.5 113l102 588h283l-189 -1075h-282l12 72q-51 -48 -111.5 -71.5t-132.5 -23.5q-173 0 -257.5 86t-84.5 248zM1155 1546
q-38 -157 -142.5 -242t-275.5 -85q-79 0 -144.5 22t-111.5 64t-70.5 102.5t-21.5 138.5h172q8 -68 58 -100.5t137 -32.5q91 0 144.5 29t88.5 104h166z" />
    <glyph glyph-name="Uring" unicode="&#x16e;" horiz-adv-x="1501" 
d="M1337 594q-27 -152 -76 -267t-126 -193t-185 -117.5t-252 -39.5q-114 0 -209 29.5t-163.5 90t-107 153.5t-38.5 221q0 35 3.5 86.5t13.5 104.5l135 772h286l-131 -742q-6 -37 -11 -85.5t-5 -100.5q0 -125 66 -186.5t196 -61.5q62 0 114 19t92.5 60t69 105.5t44.5 155.5
l145 836h287zM1211 1690q0 -59 -21 -109t-58 -86t-87.5 -56.5t-109.5 -20.5t-110 20.5t-88 56.5t-58 86t-21 109t21 109.5t58 87.5t88 58t110 21t109.5 -21t87.5 -58t58 -87.5t21 -109.5zM1056 1690q0 26 -9.5 48.5t-26 39t-38.5 26t-47 9.5q-26 0 -48 -9.5t-38 -26
t-25.5 -39t-9.5 -48.5t9.5 -48.5t25.5 -39t38 -26t48 -9.5q25 0 47 9.5t38.5 26t26 39t9.5 48.5z" />
    <glyph glyph-name="uring" unicode="&#x16f;" horiz-adv-x="1188" 
d="M100 311q0 34 4 76t11 82l106 606h283l-103 -581q-5 -28 -6.5 -51.5t-1.5 -43.5q0 -76 36.5 -115.5t113.5 -39.5q42 0 77 13t62 42t46.5 75t31.5 113l102 588h283l-189 -1075h-282l12 72q-51 -48 -111.5 -71.5t-132.5 -23.5q-173 0 -257.5 86t-84.5 248zM1036 1491
q0 -59 -21 -109t-58 -86t-87.5 -56.5t-109.5 -20.5t-110 20.5t-88 56.5t-58 86t-21 109t21 109.5t58 87.5t88 58t110 21t109.5 -21t87.5 -58t58 -87.5t21 -109.5zM881 1491q0 26 -9.5 48.5t-26 39t-38.5 26t-47 9.5q-26 0 -48 -9.5t-38 -26t-25.5 -39t-9.5 -48.5t9.5 -48.5
t25.5 -39t38 -26t48 -9.5q25 0 47 9.5t38.5 26t26 39t9.5 48.5z" />
    <glyph glyph-name="Uhungarumlaut" unicode="&#x170;" horiz-adv-x="1501" 
d="M1337 594q-27 -152 -76 -267t-126 -193t-185 -117.5t-252 -39.5q-114 0 -209 29.5t-163.5 90t-107 153.5t-38.5 221q0 35 3.5 86.5t13.5 104.5l135 772h286l-131 -742q-6 -37 -11 -85.5t-5 -100.5q0 -125 66 -186.5t196 -61.5q62 0 114 19t92.5 60t69 105.5t44.5 155.5
l145 836h287zM1231 1526h-240l235 327h359zM780 1526h-240l236 327h358z" />
    <glyph glyph-name="uhungarumlaut" unicode="&#x171;" horiz-adv-x="1188" 
d="M100 311q0 34 4 76t11 82l106 606h283l-103 -581q-5 -28 -6.5 -51.5t-1.5 -43.5q0 -76 36.5 -115.5t113.5 -39.5q42 0 77 13t62 42t46.5 75t31.5 113l102 588h283l-189 -1075h-282l12 72q-51 -48 -111.5 -71.5t-132.5 -23.5q-173 0 -257.5 86t-84.5 248zM1020 1219h-240
l235 327h359zM569 1219h-240l236 327h358z" />
    <glyph glyph-name="Uogonek" unicode="&#x172;" horiz-adv-x="1501" 
d="M635 -20q-79 5 -160 31t-149 86t-107 153t-39 221q0 35 4 87t13 104l135 772h286l-131 -742q-6 -37 -11 -85.5t-5 -100.5q0 -69 18 -114t51.5 -75.5t82 -44.5t110.5 -14t114 19t92.5 60t69 105.5t44.5 155.5l145 836h287l-148 -840q-27 -156 -76 -269.5t-118 -183
t-136.5 -100.5t-114.5 -42q-27 -12 -56.5 -29t-60 -42.5t-46 -53.5t-15.5 -53q0 -20 11.5 -31t27.5 -11q20 0 37.5 11.5t28.5 25.5l92 -80q-36 -64 -95 -105t-142 -41q-38 0 -73 11t-61.5 33t-40.5 51.5t-14 62.5q0 45 16.5 83.5t43 70.5t51 50.5t39.5 27.5z" />
    <glyph glyph-name="uogonek" unicode="&#x173;" horiz-adv-x="1188" 
d="M100 311q0 34 4 76t11 82l106 606h283l-103 -581q-5 -28 -6.5 -51.5t-1.5 -43.5q0 -76 36.5 -115.5t113.5 -39.5q42 0 77 13t62 42t46.5 75t31.5 113l102 588h283l-189 -1075h-282l12 72q-51 -48 -111.5 -71.5t-132.5 -23.5q-173 0 -257.5 86t-84.5 248zM895 0
q-28 -11 -60 -28.5t-59 -40t-44.5 -50.5t-17.5 -60q0 -20 11.5 -31t27.5 -11q20 0 37.5 11.5t28.5 25.5l92 -80q-36 -64 -95 -105t-142 -41q-82 0 -135.5 45t-53.5 113q0 45 16.5 83.5t43 70.5t60.5 56.5t69 41.5h221z" />
    <glyph glyph-name="Wcircumflex" unicode="&#x174;" horiz-adv-x="1792" 
d="M1305 0h-283l-55 941l-389 -941h-271l-45 1434h295v-902l371 902h250l59 -902l317 902h299zM1268 1526l-178 153l-232 -153h-194l307 327h287l192 -327h-182z" />
    <glyph glyph-name="wcircumflex" unicode="&#x175;" horiz-adv-x="1511" 
d="M1073 0h-252l-44 656l-275 -656h-236l-121 1075h281l36 -613l269 613h234l53 -613l252 613h284zM1071 1219l-178 153l-232 -153h-194l307 327h287l192 -327h-182z" />
    <glyph glyph-name="Ycircumflex" unicode="&#x176;" horiz-adv-x="1454" 
d="M877 567l-101 -567h-287l99 561l-385 873h311l251 -606l470 606h332zM1092 1526l-178 153l-232 -153h-194l307 327h287l192 -327h-182z" />
    <glyph glyph-name="ycircumflex" unicode="&#x177;" horiz-adv-x="1200" 
d="M440 -379h-282l209 379l-220 1075h308l111 -730l372 730h307zM922 1219l-178 153l-232 -153h-194l307 327h287l192 -327h-182z" />
    <glyph glyph-name="Ydieresis" unicode="&#x178;" horiz-adv-x="1454" 
d="M877 567l-101 -567h-287l99 561l-385 873h311l251 -606l470 606h332zM1284 1663q0 -32 -12.5 -60t-34.5 -50t-50.5 -34.5t-59.5 -12.5q-33 0 -62.5 12.5t-51.5 34.5t-35 50t-13 60q0 33 13 62t35 51t51.5 34.5t62.5 12.5q31 0 59.5 -12.5t50.5 -34.5t34.5 -51t12.5 -62z
M842 1663q0 -32 -13 -60t-35 -50t-51 -34.5t-61 -12.5t-61 12.5t-51 34.5t-35 50t-13 60q0 33 13 62t35 51t51 34.5t61 12.5t61 -12.5t51 -34.5t35 -51t13 -62z" />
    <glyph glyph-name="Zacute" unicode="&#x179;" horiz-adv-x="1401" 
d="M1366 1180l-905 -918h753l-47 -262h-1122l45 254l911 917h-708l47 263h1071zM885 1526h-240l236 327h358z" />
    <glyph glyph-name="zacute" unicode="&#x17a;" horiz-adv-x="1126" 
d="M1063 870l-593 -614h484l-45 -256h-880l34 205l619 614h-475l45 256h846zM756 1219h-240l236 327h358z" />
    <glyph glyph-name="Zdotaccent" unicode="&#x17b;" horiz-adv-x="1401" 
d="M1366 1180l-905 -918h753l-47 -262h-1122l45 254l911 917h-708l47 263h1071zM1053 1683q0 -32 -13 -60t-34.5 -50t-50.5 -34.5t-60 -12.5q-33 0 -62.5 12.5t-51 34.5t-34.5 50t-13 60q0 33 13 62t34.5 51t51 34.5t62.5 12.5q31 0 60 -12.5t50.5 -34.5t34.5 -51t13 -62z
" />
    <glyph glyph-name="zdotaccent" unicode="&#x17c;" horiz-adv-x="1126" 
d="M1063 870l-593 -614h484l-45 -256h-880l34 205l619 614h-475l45 256h846zM868 1376q0 -32 -13 -60t-34.5 -50t-50.5 -34.5t-60 -12.5q-33 0 -62.5 12.5t-51 34.5t-34.5 50t-13 60q0 33 13 62t34.5 51t51 34.5t62.5 12.5q31 0 60 -12.5t50.5 -34.5t34.5 -51t13 -62z" />
    <glyph glyph-name="Zcaron" unicode="&#x17d;" horiz-adv-x="1401" 
d="M1366 1180l-905 -918h753l-47 -262h-1122l45 254l911 917h-708l47 263h1071zM1009 1526h-287l-192 327h182l178 -153l232 153h194z" />
    <glyph glyph-name="zcaron" unicode="&#x17e;" horiz-adv-x="1126" 
d="M1063 870l-593 -614h484l-45 -256h-880l34 205l619 614h-475l45 256h846zM846 1219h-287l-192 327h182l178 -153l232 153h194z" />
    <glyph glyph-name="longs" unicode="&#x17f;" horiz-adv-x="750" 
d="M324 1204q13 78 38 131.5t63.5 87.5t93 49t128.5 15q28 0 57 -3.5t55.5 -10t49 -14.5t37.5 -17l-41 -219q-16 9 -47.5 18.5t-65.5 9.5q-46 0 -64.5 -19.5t-27.5 -66.5l-205 -1165h-282z" />
    <glyph glyph-name="uni018F" unicode="&#x18f;" horiz-adv-x="1464" 
d="M160 868h958q-2 70 -20.5 126.5t-53 97.5t-84 62.5t-110.5 21.5q-109 0 -180.5 -40t-126.5 -118l-242 121q51 73 109.5 131.5t130 99.5t161 63.5t199.5 22.5q125 0 219 -45t158.5 -126t96.5 -190.5t32 -236.5q2 -113 -21.5 -225.5t-67.5 -211.5t-108.5 -180
t-144.5 -139.5t-175 -91.5t-202 -33q-133 0 -237.5 40t-178 117t-112.5 185.5t-39 247.5q0 121 22 234zM1077 594q4 10 6 20h-663v-6q0 -90 22.5 -154.5t61.5 -107.5t91 -63.5t114 -20.5q84 0 156.5 40t127 115t84.5 177z" />
    <glyph glyph-name="florin" unicode="&#x192;" 
d="M1153 1219q-28 9 -74 15.5t-109 6.5q-74 0 -114 -30t-54 -95l-16 -78h295l-47 -227h-291l-174 -811h-289l174 811h-223l49 227h223l17 88q18 88 52 150.5t85.5 102.5t121.5 58.5t159 18.5q83 0 148.5 -9.5t109.5 -25.5z" />
    <glyph glyph-name="Aringacute" unicode="&#x1fa;" horiz-adv-x="1528" 
d="M1049 0l-56 319h-518l-168 -319h-317l743 1335q-35 37 -54.5 85.5t-19.5 105.5q0 59 21 109.5t58 87.5t88 58t110 21t109.5 -21t87.5 -58t58 -87.5t21 -109.5q0 -75 -32.5 -133.5t-87.5 -94.5l262 -1298h-305zM863 1058l-245 -466h326zM1057 1526q0 26 -9.5 48.5
t-25.5 39t-38.5 26t-47.5 9.5q-26 0 -48 -9.5t-38 -26t-25.5 -39t-9.5 -48.5t9.5 -48.5t25.5 -39t38 -26t48 -9.5q25 0 47.5 9.5t38.5 26t25.5 39t9.5 48.5zM1036 1874h-240l236 327h358z" />
    <glyph glyph-name="aringacute" unicode="&#x1fb;" horiz-adv-x="1130" 
d="M1038 778q0 -21 -1.5 -43t-6.5 -47l-121 -688h-282l14 72q-42 -39 -99 -67t-132 -28q-72 0 -137.5 19.5t-115.5 60t-80 104t-30 150.5q0 91 31.5 165.5t89.5 128t140 83t184 29.5q73 0 146 -13.5t107 -29.5l7 43q2 13 2 20v15q0 56 -43 84t-144 28q-68 0 -131.5 -16
t-111.5 -39l-74 201q72 40 166 64t188 24q95 0 175 -18t137.5 -57t89.5 -99.5t32 -145.5zM707 451q-34 18 -84 31.5t-119 13.5q-42 0 -73.5 -12t-52.5 -33t-31.5 -49t-10.5 -60q0 -60 38.5 -92.5t117.5 -32.5q33 0 62 9t53.5 23t43.5 31.5t31 34.5zM1007 1491
q0 -59 -21 -109t-58 -86t-87.5 -56.5t-109.5 -20.5t-110 20.5t-88 56.5t-58 86t-21 109t21 109.5t58 87.5t88 58t110 21t109.5 -21t87.5 -58t58 -87.5t21 -109.5zM852 1491q0 26 -9.5 48.5t-26 39t-38.5 26t-47 9.5q-26 0 -48 -9.5t-38 -26t-25.5 -39t-9.5 -48.5t9.5 -48.5
t25.5 -39t38 -26t48 -9.5q25 0 47 9.5t38.5 26t26 39t9.5 48.5zM811 1844h-240l236 327h358z" />
    <glyph glyph-name="AEacute" unicode="&#x1fc;" horiz-adv-x="2118" 
d="M1262 274h690l-49 -274h-965l45 256h-498l-204 -256h-347l1192 1434h998l-47 -275h-660l-45 -258h567l-49 -270h-567zM688 508h340l98 542zM1356 1526h-240l236 327h358z" />
    <glyph glyph-name="aeacute" unicode="&#x1fd;" horiz-adv-x="1718" 
d="M1642 662q0 -53 -8.5 -106t-23.5 -110h-639q-6 -55 11 -93.5t47.5 -62.5t70 -35t78.5 -11q52 0 105.5 17t107.5 54l137 -196q-97 -76 -190.5 -109t-186.5 -33q-120 0 -213 40.5t-156 123.5q-81 -78 -172 -121t-188 -43q-82 0 -151 19.5t-118.5 60t-77.5 104t-28 150.5
q0 91 31.5 165.5t89.5 128t140 83t184 29.5q65 0 137 -11.5t121 -31.5l8 53q2 6 2 11v12q0 49 -42.5 81.5t-137.5 32.5q-65 0 -127 -12.5t-127 -40.5l-74 201q97 46 181 65.5t181 20.5q118 0 200 -29.5t136 -95.5q57 59 133.5 92t167.5 33q102 0 175.5 -34.5t121.5 -94
t71 -138.5t23 -169zM1376 659q4 39 -3.5 74t-28 61.5t-53.5 42t-81 15.5q-38 0 -69.5 -15t-56 -41t-42.5 -61t-30 -76h364zM682 315q2 10 4.5 23.5t8.5 46.5l12 66q-34 18 -84 31.5t-119 13.5q-42 0 -73.5 -12t-52.5 -33t-31.5 -49t-10.5 -60q0 -59 37.5 -92t118.5 -33
q57 0 109 28.5t81 69.5zM1038 1219h-240l236 327h358z" />
    <glyph glyph-name="Oslashacute" unicode="&#x1fe;" horiz-adv-x="1464" 
d="M252 156q-63 77 -97 180t-34 231q0 121 23.5 234t68 211.5t108.5 180.5t144 140.5t175 90.5t202 32q140 0 245 -43l82 123h271l-168 -252q66 -75 101.5 -181t35.5 -237q0 -121 -23.5 -233.5t-68 -211.5t-108.5 -180.5t-144 -140t-175 -91t-202 -32.5q-136 0 -254 48
l-84 -127h-270zM924 1165q-48 19 -103 19q-83 0 -156.5 -42.5t-129 -119t-87.5 -182t-32 -232.5q0 -90 26 -166zM598 270q50 -20 111 -20q83 0 156.5 42.5t129 118.5t87.5 181.5t32 232.5q0 104 -31 176zM967 1526h-240l236 327h358z" />
    <glyph glyph-name="oslashacute" unicode="&#x1ff;" horiz-adv-x="1128" 
d="M158 139q-42 57 -64 132.5t-22 168.5q0 132 41.5 251.5t115.5 210t177.5 143.5t228.5 53q49 0 92.5 -9t83.5 -26l80 115h252l-172 -244q42 -57 64 -132.5t22 -166.5q0 -123 -38 -241t-110.5 -210.5t-179.5 -149.5t-235 -57q-48 0 -92 9t-83 24l-79 -112h-252zM664 836
q-14 5 -29 7.5t-31 2.5q-51 0 -98 -26t-83.5 -75.5t-58.5 -121.5t-22 -164q0 -36 6 -70zM465 240q28 -11 59 -11q51 0 98 26t83.5 75.5t58.5 121.5t22 164q0 38 -6 68zM762 1219h-240l236 327h358z" />
    <glyph glyph-name="Scommaaccent" unicode="&#x218;" horiz-adv-x="1346" 
d="M1079 1014q-28 35 -62 66.5t-74.5 55.5t-88 38t-104.5 14q-56 0 -96 -11t-65 -30.5t-36.5 -45t-11.5 -54.5q0 -31 12.5 -53.5t42.5 -42.5t80.5 -40t126.5 -45q74 -24 147 -57t130.5 -81t93.5 -113.5t36 -155.5q0 -122 -43 -212.5t-119.5 -150.5t-181 -89.5t-227.5 -29.5
q-109 0 -201.5 24.5t-166.5 65.5t-129 94.5t-89 112.5l234 166q39 -53 85 -89t96.5 -58t104.5 -31.5t109 -9.5q46 0 87.5 9.5t72.5 30t49 53t18 79.5q0 28 -14.5 52.5t-48 47t-89 45.5t-136.5 49q-83 25 -152 59.5t-119 81t-78 107t-28 138.5q0 120 44 205.5t118.5 140
t171.5 80.5t204 26q95 0 174.5 -20.5t145 -56t117.5 -83.5t92 -104zM539 -491h-158l82 393h270z" />
    <glyph glyph-name="scommaaccent" unicode="&#x219;" horiz-adv-x="1092" 
d="M897 745q-32 21 -71.5 41t-83.5 35.5t-91 25t-92 9.5q-60 0 -86.5 -19.5t-26.5 -48.5q0 -13 5.5 -24.5t25.5 -26t60 -34.5t108 -48q67 -28 122.5 -58.5t94.5 -68.5t60.5 -85.5t21.5 -108.5q0 -94 -33.5 -161.5t-91.5 -111t-136.5 -64t-168.5 -20.5q-154 0 -285.5 49
t-208.5 113l134 205q71 -50 171 -87.5t220 -37.5q55 0 84.5 23t29.5 61q0 15 -6 28.5t-21.5 26t-41.5 26t-66 28.5q-91 36 -159 70t-113 73t-67.5 86t-22.5 109q0 168 108.5 258t309.5 90q73 0 137.5 -11.5t120 -29.5t103 -41t85.5 -47zM379 -491h-158l82 393h270z" />
    <glyph glyph-name="Tcommaaccent" unicode="&#x21a;" horiz-adv-x="1286" 
d="M1305 1151h-408l-203 -1151h-286l202 1151h-407l49 283h1102zM484 -491h-158l82 393h270z" />
    <glyph glyph-name="tcommaaccent" unicode="&#x21b;" horiz-adv-x="897" 
d="M813 809h-250l-76 -432q-2 -14 -3 -25t-1 -22q0 -48 26 -65t73 -17q42 0 78.5 17t74.5 48l-92 -280q-36 -25 -96 -40.5t-107 -15.5q-114 0 -185 65.5t-71 184.5q0 33 6 74l91 508h-181l47 266h181l49 277l307 141l-74 -418h250zM314 -491h-158l82 393h270z" />
    <glyph glyph-name="afii10846" unicode="&#x259;" horiz-adv-x="1094" 
d="M68 414q0 53 9 106t23 109h635q6 55 -10 94t-47 62.5t-69 34.5t-74 11q-54 0 -107 -17t-109 -54l-137 196q99 76 192 109t191 33q105 0 189 -32t142 -92.5t90 -147.5t32 -195q0 -137 -43 -257t-119 -208t-178.5 -138.5t-218.5 -50.5q-101 0 -174.5 34t-121.5 94.5
t-71.5 139.5t-23.5 169zM334 416q-4 -39 3 -74t27.5 -61.5t54.5 -42t81 -15.5q39 0 69.5 15.5t55 41t43 60.5t30.5 76h-364z" />
    <glyph glyph-name="circumflex" unicode="&#x2c6;" horiz-adv-x="1024" 
d="M844 1219l-178 153l-232 -153h-194l307 327h287l192 -327h-182z" />
    <glyph glyph-name="caron" unicode="&#x2c7;" horiz-adv-x="1024" 
d="M776 1219h-287l-192 327h182l178 -153l232 153h194z" />
    <glyph glyph-name="breve" unicode="&#x2d8;" horiz-adv-x="1024" 
d="M1073 1546q-38 -157 -142.5 -242t-275.5 -85q-79 0 -144.5 22t-111.5 64t-70.5 102.5t-21.5 138.5h172q8 -68 58 -100.5t137 -32.5q91 0 144.5 29t88.5 104h166z" />
    <glyph glyph-name="dotaccent" unicode="&#x2d9;" horiz-adv-x="1024" 
d="M817 1376q0 -32 -13 -60t-34.5 -50t-50.5 -34.5t-60 -12.5q-33 0 -62.5 12.5t-51 34.5t-34.5 50t-13 60q0 33 13 62t34.5 51t51 34.5t62.5 12.5q31 0 60 -12.5t50.5 -34.5t34.5 -51t13 -62z" />
    <glyph glyph-name="ring" unicode="&#x2da;" horiz-adv-x="1024" 
d="M954 1491q0 -59 -21 -109t-58 -86t-87.5 -56.5t-109.5 -20.5t-110 20.5t-88 56.5t-58 86t-21 109t21 109.5t58 87.5t88 58t110 21t109.5 -21t87.5 -58t58 -87.5t21 -109.5zM799 1491q0 26 -9.5 48.5t-26 39t-38.5 26t-47 9.5q-26 0 -48 -9.5t-38 -26t-25.5 -39
t-9.5 -48.5t9.5 -48.5t25.5 -39t38 -26t48 -9.5q25 0 47 9.5t38.5 26t26 39t9.5 48.5z" />
    <glyph glyph-name="ogonek" unicode="&#x2db;" horiz-adv-x="1024" 
d="M716 0q-28 -11 -60 -28.5t-59 -40t-44.5 -50.5t-17.5 -60q0 -20 11.5 -31t27.5 -11q20 0 37.5 11.5t28.5 25.5l92 -80q-36 -64 -95 -105t-142 -41q-82 0 -135.5 45t-53.5 113q0 45 16.5 83.5t43 70.5t60.5 56.5t69 41.5h221z" />
    <glyph glyph-name="tilde" unicode="&#x2dc;" horiz-adv-x="1024" 
d="M1092 1507q-12 -68 -38 -123t-62.5 -93t-82.5 -58.5t-98 -20.5q-54 0 -97.5 17t-80.5 37q-35 20 -66.5 35.5t-62.5 15.5q-26 0 -45 -22t-37 -76h-184q11 68 36.5 122.5t61.5 92.5t82 58.5t98 20.5q53 0 95 -15.5t77 -35.5q38 -20 70.5 -36.5t64.5 -16.5q29 0 46.5 22.5
t37.5 75.5h185z" />
    <glyph glyph-name="hungarumlaut" unicode="&#x2dd;" horiz-adv-x="1024" 
d="M877 1219h-240l235 327h359zM426 1219h-240l236 327h358z" />
    <glyph glyph-name="commaaccent" unicode="&#x326;" horiz-adv-x="578" 
d="M119 -491h-158l82 393h270z" />
    <glyph glyph-name="tonos" unicode="&#x384;" horiz-adv-x="1024" 
d="M643 1219h-240l236 327h358z" />
    <glyph glyph-name="dieresistonos" unicode="&#x385;" horiz-adv-x="1024" 
d="M1104 1343q0 -29 -11 -55t-29.5 -45.5t-43.5 -31t-53 -11.5q-26 0 -50 11.5t-42 31t-28.5 45.5t-10.5 55q0 30 10.5 56.5t28.5 46.5t42 31.5t50 11.5q28 0 53 -11.5t43.5 -31.5t29.5 -46.5t11 -56.5zM367 1343q0 -29 -10.5 -55t-29 -45.5t-44 -31t-54.5 -11.5
q-25 0 -48 11.5t-40.5 31t-28 45.5t-10.5 55q0 30 10.5 56.5t28 46.5t40.5 31.5t48 11.5q29 0 54.5 -11.5t44 -31.5t29 -46.5t10.5 -56.5zM575 1219h-186l215 352h303z" />
    <glyph glyph-name="Alphatonos" unicode="&#x386;" horiz-adv-x="1528" 
d="M1049 0l-56 319h-518l-168 -319h-317l796 1434h279l289 -1434h-305zM863 1058l-245 -466h326zM256 1109h-240l236 327h358z" />
    <glyph glyph-name="Epsilontonos" unicode="&#x388;" horiz-adv-x="1323" 
d="M90 0l252 1434h987l-49 -281h-700l-43 -248h567l-49 -278h-568l-61 -346h731l-49 -281h-1018zM-92 1109h-240l236 327h358z" />
    <glyph glyph-name="Etatonos" unicode="&#x389;" horiz-adv-x="1522" 
d="M1243 0h-287l105 602h-580l-104 -602h-287l252 1434h287l-97 -549h580l96 549h287zM-92 1109h-240l236 327h358z" />
    <glyph glyph-name="Iotatonos" unicode="&#x38a;" horiz-adv-x="696" 
d="M395 0h-286l253 1434h287zM-92 1109h-240l236 327h358z" />
    <glyph glyph-name="Omicrontonos" unicode="&#x38c;" horiz-adv-x="1464" 
d="M1409 866q0 -121 -23.5 -233.5t-68 -211.5t-108.5 -180.5t-144 -140t-175 -91t-202 -32.5q-132 0 -237 40.5t-178.5 116.5t-112.5 185.5t-39 247.5q0 121 23.5 234t68 211.5t108.5 180.5t144 140.5t175 90.5t202 32q132 0 237 -40.5t178.5 -116.5t112.5 -185.5t39 -247.5
zM1110 825q0 89 -22.5 154.5t-61.5 108t-91.5 63t-113.5 20.5q-83 0 -156 -40.5t-127.5 -114.5t-86 -177.5t-31.5 -230.5q0 -89 22.5 -154t61.5 -108t91.5 -63.5t113.5 -20.5q83 0 156 40.5t127.5 114.5t86 177.5t31.5 230.5zM-10 1109h-240l236 327h358z" />
    <glyph glyph-name="Upsilontonos" unicode="&#x38e;" horiz-adv-x="1454" 
d="M877 567l-101 -567h-287l99 561l-385 873h311l251 -606l470 606h332zM-174 1109h-240l236 327h358z" />
    <glyph glyph-name="Omegatonos" unicode="&#x38f;" horiz-adv-x="1497" 
d="M836 262q66 54 121.5 118t95 137t62 155t22.5 172q0 70 -19.5 129.5t-58 103.5t-95 69t-130.5 25q-92 0 -165.5 -38t-124.5 -104.5t-78.5 -156t-27.5 -192.5q0 -65 12 -122t34.5 -108t55.5 -97t76 -91l-45 -262h-503l45 262h191q-34 40 -62.5 82t-53 97t-36 112
t-11.5 125q0 112 26.5 213t74.5 187.5t115 156.5t148 119t173.5 75.5t191.5 26.5q127 0 231.5 -41.5t178 -117t114 -181.5t40.5 -235q0 -94 -18 -179t-58 -166.5t-94 -149t-122 -124.5h204l-46 -262h-509zM-10 1109h-240l236 327h358z" />
    <glyph glyph-name="iotadieresistonos" unicode="&#x390;" horiz-adv-x="578" 
d="M336 0h-283l189 1075h282zM996 1343q0 -29 -11 -55t-29.5 -45.5t-43.5 -31t-53 -11.5q-26 0 -50 11.5t-42 31t-28.5 45.5t-10.5 55q0 30 10.5 56.5t28.5 46.5t42 31.5t50 11.5q28 0 53 -11.5t43.5 -31.5t29.5 -46.5t11 -56.5zM259 1343q0 -29 -10.5 -55t-29 -45.5
t-44 -31t-54.5 -11.5q-25 0 -48 11.5t-40.5 31t-28 45.5t-10.5 55q0 30 10.5 56.5t28 46.5t40.5 31.5t48 11.5q29 0 54.5 -11.5t44 -31.5t29 -46.5t10.5 -56.5zM467 1219h-186l215 352h303z" />
    <glyph glyph-name="Alpha" unicode="&#x391;" horiz-adv-x="1528" 
d="M1049 0l-56 319h-518l-168 -319h-317l796 1434h279l289 -1434h-305zM863 1058l-245 -466h326z" />
    <glyph glyph-name="Beta" unicode="&#x392;" horiz-adv-x="1446" 
d="M1389 1100q0 -68 -18 -121.5t-47.5 -95.5t-67 -73t-76.5 -52q69 -44 110 -113t41 -162q0 -117 -41.5 -207t-117 -151.5t-180 -93t-230.5 -31.5h-672l254 1434h600q108 0 191.5 -24.5t139.5 -68.5t85 -105.5t29 -135.5zM1090 1055q0 55 -42.5 84.5t-136.5 29.5h-333
l-50 -272h381q84 0 132.5 39.5t48.5 118.5zM1034 479q0 84 -52.5 124t-164.5 40h-332l-65 -371h383q51 0 93.5 13.5t73 40t47.5 65t17 88.5z" />
    <glyph glyph-name="Gamma" unicode="&#x393;" horiz-adv-x="1208" 
d="M580 1151l-203 -1151h-287l252 1434h963l-50 -283h-675z" />
    <glyph glyph-name="uni0394" unicode="&#x394;" horiz-adv-x="1565" 
d="M-20 0l825 1434h278l320 -1434h-1423zM880 1081l-431 -800h591z" />
    <glyph glyph-name="Epsilon" unicode="&#x395;" horiz-adv-x="1323" 
d="M90 0l252 1434h987l-49 -281h-700l-43 -248h567l-49 -278h-568l-61 -346h731l-49 -281h-1018z" />
    <glyph glyph-name="Zeta" unicode="&#x396;" horiz-adv-x="1401" 
d="M1366 1180l-905 -918h753l-47 -262h-1122l45 254l911 917h-708l47 263h1071z" />
    <glyph glyph-name="Eta" unicode="&#x397;" horiz-adv-x="1522" 
d="M1243 0h-287l105 602h-580l-104 -602h-287l252 1434h287l-97 -549h580l96 549h287z" />
    <glyph glyph-name="Theta" unicode="&#x398;" horiz-adv-x="1495" 
d="M1438 850q0 -126 -24.5 -239.5t-69.5 -210.5t-110 -175.5t-146 -133.5t-176.5 -84.5t-202.5 -29.5q-130 0 -238 41t-185 119t-120 190.5t-43 256.5q0 126 24.5 240.5t69.5 210.5t110 174.5t146.5 133t174 83.5t206.5 30q129 0 236.5 -41t184.5 -118.5t120 -190t43 -256.5
zM1139 809q0 87 -22 154t-61.5 113.5t-95 70t-126.5 24.5q-73 0 -130 -24t-97.5 -58t-75.5 -82.5t-59 -108t-37 -128t-13 -145.5q0 -87 22 -154.5t61.5 -114t96 -70.5t125.5 -24q73 0 130 24.5t98 58.5t75.5 82t58 108t37 128.5t13.5 145.5zM600 872h404l-46 -256h-403z" />
    <glyph glyph-name="Iota" unicode="&#x399;" horiz-adv-x="696" 
d="M395 0h-286l253 1434h287z" />
    <glyph glyph-name="Kappa" unicode="&#x39a;" horiz-adv-x="1466" 
d="M979 932l352 -932h-303l-268 711l-316 -318l-67 -393h-287l252 1434h287l-112 -633l613 633h347z" />
    <glyph glyph-name="Lambda" unicode="&#x39b;" horiz-adv-x="1491" 
d="M836 1032l-525 -1032h-311l768 1434h279l262 -1434h-301z" />
    <glyph glyph-name="Mu" unicode="&#x39c;" horiz-adv-x="1702" 
d="M1423 0h-286l141 807l-526 -840l-240 840l-141 -807h-281l252 1434h276l228 -869l536 869h293z" />
    <glyph glyph-name="Nu" unicode="&#x39d;" horiz-adv-x="1522" 
d="M1243 0h-256l-446 958l-168 -958h-283l252 1434h274l434 -921l162 921h283z" />
    <glyph glyph-name="Xi" unicode="&#x39e;" horiz-adv-x="1352" 
d="M29 0l49 281h401l62 346h-269l50 278h268l43 248h-400l50 281h1081l-49 -281h-395l-43 -248h268l-49 -278h-269l-61 -346h405l-49 -281h-1093z" />
    <glyph glyph-name="Omicron" unicode="&#x39f;" horiz-adv-x="1464" 
d="M1409 866q0 -121 -23.5 -233.5t-68 -211.5t-108.5 -180.5t-144 -140t-175 -91t-202 -32.5q-132 0 -237 40.5t-178.5 116.5t-112.5 185.5t-39 247.5q0 121 23.5 234t68 211.5t108.5 180.5t144 140.5t175 90.5t202 32q132 0 237 -40.5t178.5 -116.5t112.5 -185.5t39 -247.5
zM1110 825q0 89 -22.5 154.5t-61.5 108t-91.5 63t-113.5 20.5q-83 0 -156 -40.5t-127.5 -114.5t-86 -177.5t-31.5 -230.5q0 -89 22.5 -154t61.5 -108t91.5 -63.5t113.5 -20.5q83 0 156 40.5t127.5 114.5t86 177.5t31.5 230.5z" />
    <glyph glyph-name="Pi" unicode="&#x3a0;" horiz-adv-x="1491" 
d="M926 0l200 1139h-548l-201 -1139h-287l252 1434h1122l-252 -1434h-286z" />
    <glyph glyph-name="Rho" unicode="&#x3a1;" horiz-adv-x="1384" 
d="M1384 1044q0 -126 -38.5 -225.5t-112.5 -168.5t-183.5 -105.5t-250.5 -36.5h-332l-90 -508h-287l254 1434h551q119 0 210 -26.5t153 -77t94 -123t32 -163.5zM1083 999q0 34 -10.5 62.5t-34.5 49.5t-63 32.5t-96 11.5h-297l-66 -369h334q54 0 97.5 15t73.5 42.5t46 67
t16 88.5z" />
    <glyph glyph-name="Sigma" unicode="&#x3a3;" horiz-adv-x="1372" 
d="M657 1171l328 -411l-504 -475h725l-49 -285h-1112l45 256l526 498l-340 426l46 254h1062l-45 -263h-682z" />
    <glyph glyph-name="Tau" unicode="&#x3a4;" horiz-adv-x="1286" 
d="M1305 1151h-408l-203 -1151h-286l202 1151h-407l49 283h1102z" />
    <glyph glyph-name="Upsilon" unicode="&#x3a5;" horiz-adv-x="1454" 
d="M877 567l-101 -567h-287l99 561l-385 873h311l251 -606l470 606h332z" />
    <glyph glyph-name="Phi" unicode="&#x3a6;" horiz-adv-x="1729" 
d="M1143 1309q124 -14 222.5 -53t167.5 -101.5t105.5 -148t36.5 -191.5q0 -144 -51 -263t-146 -205t-232 -136t-308 -55l-27 -156h-286l28 158q-124 14 -222 53t-166 102t-104 148t-36 192q0 111 30 201.5t75 156.5t111 121.5t140 91.5t159 59t218 30l21 119h286zM1382 782
q0 55 -17.5 102t-54 82.5t-88 57.5t-124.5 29l-113 -637q91 4 164 29t125 70.5t80 112.5t28 154zM418 676q0 -66 19 -111t54.5 -74.5t83.5 -46.5t123 -26l113 637q-90 -2 -162.5 -30.5t-124 -78.5t-79 -119t-27.5 -151z" />
    <glyph glyph-name="Chi" unicode="&#x3a7;" horiz-adv-x="1438" 
d="M317 0h-321l592 741l-324 693h309l206 -443l351 443h322l-559 -701l342 -733h-309l-225 486z" />
    <glyph glyph-name="Psi" unicode="&#x3a8;" horiz-adv-x="1626" 
d="M555 0l59 342q-102 12 -188.5 40.5t-149 80t-98 127.5t-35.5 182q0 29 3 61t10 66l94 535h282l-94 -535q-5 -25 -6.5 -46.5t-1.5 -41.5q0 -59 16 -97.5t46 -64t70.5 -37.5t96.5 -14l148 836h287l-150 -838q74 2 130 23.5t96.5 60.5t66.5 95.5t39 129.5l92 529h283
l-95 -535q-24 -137 -79.5 -237t-139.5 -167.5t-194 -104.5t-242 -48l-59 -342h-287z" />
    <glyph glyph-name="uni03A9" unicode="&#x3a9;" horiz-adv-x="1497" 
d="M836 262q66 54 121.5 118t95 137t62 155t22.5 172q0 70 -19.5 129.5t-58 103.5t-95 69t-130.5 25q-92 0 -165.5 -38t-124.5 -104.5t-78.5 -156t-27.5 -192.5q0 -65 12 -122t34.5 -108t55.5 -97t76 -91l-45 -262h-503l45 262h191q-34 40 -62.5 82t-53 97t-36 112
t-11.5 125q0 112 26.5 213t74.5 187.5t115 156.5t148 119t173.5 75.5t191.5 26.5q127 0 231.5 -41.5t178 -117t114 -181.5t40.5 -235q0 -94 -18 -179t-58 -166.5t-94 -149t-122 -124.5h204l-46 -262h-509z" />
    <glyph glyph-name="Iotadieresis" unicode="&#x3aa;" horiz-adv-x="696" 
d="M395 0h-286l253 1434h287zM917 1673q0 -32 -12.5 -60t-34.5 -50t-50.5 -34.5t-59.5 -12.5q-33 0 -62.5 12.5t-51.5 34.5t-35 50t-13 60q0 33 13 62t35 51t51.5 34.5t62.5 12.5q31 0 59.5 -12.5t50.5 -34.5t34.5 -51t12.5 -62zM475 1673q0 -32 -13 -60t-35 -50t-51 -34.5
t-61 -12.5t-61 12.5t-51 34.5t-35 50t-13 60q0 33 13 62t35 51t51 34.5t61 12.5t61 -12.5t51 -34.5t35 -51t13 -62z" />
    <glyph glyph-name="Upsilondieresis" unicode="&#x3ab;" horiz-adv-x="1454" 
d="M877 567l-101 -567h-287l99 561l-385 873h311l251 -606l470 606h332zM1284 1663q0 -32 -12.5 -60t-34.5 -50t-50.5 -34.5t-59.5 -12.5q-33 0 -62.5 12.5t-51.5 34.5t-35 50t-13 60q0 33 13 62t35 51t51.5 34.5t62.5 12.5q31 0 59.5 -12.5t50.5 -34.5t34.5 -51t12.5 -62z
M842 1663q0 -32 -13 -60t-35 -50t-51 -34.5t-61 -12.5t-61 12.5t-51 34.5t-35 50t-13 60q0 33 13 62t35 51t51 34.5t61 12.5t61 -12.5t51 -34.5t35 -51t13 -62z" />
    <glyph glyph-name="alphatonos" unicode="&#x3ac;" horiz-adv-x="1139" 
d="M567 1098q73 0 126.5 -21t109.5 -67l10 65h283l-191 -1075h-284l14 68q-45 -41 -96.5 -66t-116.5 -25q-85 0 -151 28.5t-111 81.5t-68.5 129.5t-23.5 172.5q0 147 34.5 274t99.5 225.5t158 154t207 55.5zM754 739q-20 23 -39.5 40.5t-41 29t-46 17t-54.5 5.5
q-50 0 -90 -31.5t-67.5 -85.5t-42.5 -125.5t-15 -152.5q0 -96 39 -144t111 -48q28 0 52 7.5t45.5 20t40.5 28.5t36 34zM783 1219h-240l236 327h358z" />
    <glyph glyph-name="epsilontonos" unicode="&#x3ad;" horiz-adv-x="1075" 
d="M965 147q-149 -104 -272.5 -137t-260.5 -33q-189 0 -286 71.5t-97 201.5q0 54 16.5 103.5t48 91.5t75.5 74.5t100 51.5q-28 14 -47.5 30.5t-36 38t-25 50t-8.5 64.5q0 98 47 165.5t124 107.5t157.5 55.5t150.5 15.5q69 0 126 -9.5t108.5 -28.5t90 -40.5t81.5 -54.5
l-158 -201q-61 47 -134.5 65.5t-158.5 18.5q-33 0 -63 -6t-52.5 -18t-35.5 -31t-13 -45q0 -15 5.5 -28.5t19.5 -24.5t35 -16t47 -5h242l-39 -221h-193q-59 0 -100 -9t-66 -25t-36 -36.5t-11 -44.5q0 -50 38.5 -71t113.5 -21q94 0 186.5 26t175.5 84zM793 1219h-240l236 327
h358z" />
    <glyph glyph-name="etatonos" unicode="&#x3ae;" horiz-adv-x="1188" 
d="M923 -254l-309 -141l172 977q5 27 7 50.5t2 43.5q0 79 -38 117t-112 38q-42 0 -77 -13t-62 -42t-46.5 -75t-31.5 -113l-102 -588h-283l188 1075h283l-12 -71q41 38 100.5 66t142.5 28q174 0 258 -86.5t84 -247.5q0 -34 -4 -76t-10 -82zM848 1219h-240l236 327h358z" />
    <glyph glyph-name="iotatonos" unicode="&#x3af;" horiz-adv-x="578" 
d="M336 0h-283l189 1075h282zM539 1219h-240l236 327h358z" />
    <glyph glyph-name="upsilondieresistonos" unicode="&#x3b0;" horiz-adv-x="1178" 
d="M1030 449q-21 -116 -60 -204t-101.5 -147.5t-151 -90t-207.5 -30.5t-198.5 28.5t-127.5 77t-68 113t-20 136.5q0 28 2.5 58t7.5 59l111 626h283l-105 -596q-5 -25 -5.5 -48t-0.5 -36q0 -39 11 -66t33 -45t49 -26t59 -8q37 0 70 9t60 33t47 66t32 107l108 610h283z
M1244 1343q0 -29 -11 -55t-29.5 -45.5t-43.5 -31t-53 -11.5q-26 0 -50 11.5t-42 31t-28.5 45.5t-10.5 55q0 30 10.5 56.5t28.5 46.5t42 31.5t50 11.5q28 0 53 -11.5t43.5 -31.5t29.5 -46.5t11 -56.5zM507 1343q0 -29 -10.5 -55t-29 -45.5t-44 -31t-54.5 -11.5
q-25 0 -48 11.5t-40.5 31t-28 45.5t-10.5 55q0 30 10.5 56.5t28 46.5t40.5 31.5t48 11.5q29 0 54.5 -11.5t44 -31.5t29 -46.5t10.5 -56.5zM715 1219h-186l215 352h303z" />
    <glyph glyph-name="alpha" unicode="&#x3b1;" horiz-adv-x="1139" 
d="M567 1098q73 0 126.5 -21t109.5 -67l10 65h283l-191 -1075h-284l14 68q-45 -41 -96.5 -66t-116.5 -25q-85 0 -151 28.5t-111 81.5t-68.5 129.5t-23.5 172.5q0 147 34.5 274t99.5 225.5t158 154t207 55.5zM754 739q-20 23 -39.5 40.5t-41 29t-46 17t-54.5 5.5
q-50 0 -90 -31.5t-67.5 -85.5t-42.5 -125.5t-15 -152.5q0 -96 39 -144t111 -48q28 0 52 7.5t45.5 20t40.5 28.5t36 34z" />
    <glyph glyph-name="beta" unicode="&#x3b2;" horiz-adv-x="1143" 
d="M561 -23q-73 0 -129 20.5t-100 51.5l-53 -303l-308 -141l252 1437q20 115 65 198.5t106.5 138.5t136 81.5t153.5 26.5t146.5 -20t116.5 -60t76.5 -98.5t27.5 -134.5q0 -56 -17.5 -108.5t-47 -97.5t-69 -79.5t-83.5 -54.5q40 -15 82 -39t76 -62t55.5 -92t21.5 -129
q0 -119 -43.5 -220t-116.5 -170.5t-164 -107t-184 -37.5zM373 291q21 -14 65 -30.5t109 -16.5q48 0 91 18t75 52t50.5 82.5t18.5 109.5q0 89 -52 132.5t-169 43.5h-14l43 246h8q42 0 75 16t56 43t35 64t12 79q0 29 -6.5 51.5t-20 37.5t-35 23.5t-50.5 8.5q-25 0 -49 -10.5
t-45 -33.5t-37 -60t-25 -90z" />
    <glyph glyph-name="gamma" unicode="&#x3b3;" horiz-adv-x="1120" 
d="M608 0l-45 -254l-307 -141l70 395l-179 1075h304l75 -729l338 729h303z" />
    <glyph glyph-name="delta" unicode="&#x3b4;" horiz-adv-x="1124" 
d="M633 813q-25 0 -64 -10t-76 -36.5t-60.5 -59.5t-38 -68t-23.5 -79t-9 -97q0 -56 13 -96.5t35.5 -66.5t52.5 -38t65 -12q38 0 68.5 14t55.5 36t45 51.5t34.5 65.5t23.5 78t9 99q0 39 -5.5 64.5t-17.5 51t-28.5 49.5t-46.5 54h-16h-17zM680 1217l174 -197
q36 -40 71.5 -83.5t64 -93t46 -106.5t17.5 -125q0 -106 -23.5 -189.5t-59.5 -147t-81.5 -114t-102.5 -91t-130.5 -67t-159.5 -26.5q-85 0 -161.5 28.5t-135 85t-93 139.5t-34.5 192q0 108 33.5 206t92.5 175.5t139 128.5t173 65l-195 228l43 239h740l-45 -247h-373z" />
    <glyph glyph-name="epsilon" unicode="&#x3b5;" horiz-adv-x="1075" 
d="M965 147q-149 -104 -272.5 -137t-260.5 -33q-189 0 -286 71.5t-97 201.5q0 54 16.5 103.5t48 91.5t75.5 74.5t100 51.5q-28 14 -47.5 30.5t-36 38t-25 50t-8.5 64.5q0 98 47 165.5t124 107.5t157.5 55.5t150.5 15.5q69 0 126 -9.5t108.5 -28.5t90 -40.5t81.5 -54.5
l-158 -201q-61 47 -134.5 65.5t-158.5 18.5q-33 0 -63 -6t-52.5 -18t-35.5 -31t-13 -45q0 -15 5.5 -28.5t19.5 -24.5t35 -16t47 -5h242l-39 -221h-193q-59 0 -100 -9t-66 -25t-36 -36.5t-11 -44.5q0 -50 38.5 -71t113.5 -21q94 0 186.5 26t175.5 84z" />
    <glyph glyph-name="zeta" unicode="&#x3b6;" horiz-adv-x="1028" 
d="M727 1200h-459l45 264h838l-47 -256q-158 -98 -295.5 -197t-240 -199.5t-161.5 -201.5t-59 -202q0 -42 15 -68.5t41.5 -41.5t61.5 -20.5t75 -5.5h139q130 0 197 -50.5t67 -147.5q0 -59 -20 -114t-54.5 -106t-82 -99t-101.5 -93l-143 121q60 46 94.5 87.5t34.5 84.5
q0 23 -16.5 34t-53.5 11h-133q-87 0 -163.5 16.5t-133 55.5t-89 103t-32.5 159q0 104 26.5 191t72.5 159.5t100 133t105.5 106t129 106.5t242.5 170z" />
    <glyph glyph-name="eta" unicode="&#x3b7;" horiz-adv-x="1188" 
d="M923 -254l-309 -141l172 977q5 27 7 50.5t2 43.5q0 79 -38 117t-112 38q-42 0 -77 -13t-62 -42t-46.5 -75t-31.5 -113l-102 -588h-283l188 1075h283l-12 -71q41 38 100.5 66t142.5 28q174 0 258 -86.5t84 -247.5q0 -34 -4 -76t-10 -82z" />
    <glyph glyph-name="theta" unicode="&#x3b8;" horiz-adv-x="1116" 
d="M694 1487q94 0 163 -34.5t115 -99.5t68.5 -157.5t22.5 -208.5q0 -59 -5 -121.5t-16 -130.5q-27 -170 -75 -310t-118.5 -239.5t-164 -154t-211.5 -54.5q-93 0 -161.5 34.5t-113.5 98.5t-67 155.5t-22 205.5q0 60 5.5 125.5t16.5 136.5q27 170 74 309t116.5 238t162 153
t210.5 54zM662 1251q-54 0 -91.5 -32t-64 -85.5t-45 -123.5t-33.5 -146h352q7 56 10 95.5t3 76.5q0 47 -5.5 86.5t-20 68t-40 44.5t-65.5 16zM389 631q-6 -51 -10 -99.5t-4 -93.5q0 -49 5.5 -90.5t19.5 -71.5t38.5 -46.5t63.5 -16.5q61 0 100.5 33.5t65.5 91t43 133.5
t32 160h-354z" />
    <glyph glyph-name="iota" unicode="&#x3b9;" horiz-adv-x="578" 
d="M336 0h-283l189 1075h282z" />
    <glyph glyph-name="kappa" unicode="&#x3ba;" horiz-adv-x="1161" 
d="M834 1075h340l-394 -389l226 -686h-314l-139 461l-176 -172l-51 -289h-283l190 1075h283l-76 -429z" />
    <glyph glyph-name="lambda" unicode="&#x3bb;" horiz-adv-x="1200" 
d="M652 744l-380 -744h-309l615 1026l-27 139q-8 47 -34.5 66.5t-78.5 19.5q-25 0 -66.5 -5t-82.5 -17l41 223q43 18 103 26.5t104 8.5q77 0 126 -22t79 -61.5t47 -93.5t30 -118l242 -1192h-293z" />
    <glyph glyph-name="uni03BC" unicode="&#x3bc;" horiz-adv-x="1198" 
d="M967 0h-283l12 72q-32 -29 -52.5 -41.5t-45.5 -24t-59 -20.5t-86 -9q-31 0 -68 3.5t-63 12.5l-43 -247l-308 -141l260 1470h283l-102 -581q-4 -26 -6.5 -50t-2.5 -45q0 -77 37 -116t113 -39q42 0 77 13t62 42t46.5 75t31.5 113l102 588h283z" />
    <glyph glyph-name="nu" unicode="&#x3bd;" horiz-adv-x="1155" 
d="M629 0h-289l-193 1075h304l96 -714l348 714h307z" />
    <glyph glyph-name="xi" unicode="&#x3be;" horiz-adv-x="1044" 
d="M413 1217h-137l43 247h844l-49 -264h-303q-62 0 -116 -10t-94 -32t-63.5 -58t-23.5 -88q0 -28 12.5 -52.5t37.5 -43t62 -29t85 -10.5h239l-47 -261h-278q-47 0 -96 -11t-89.5 -35.5t-66 -64.5t-25.5 -97q0 -63 49.5 -99.5t124.5 -36.5h158q128 0 196 -49.5t68 -148.5
q0 -59 -20 -114t-54.5 -106t-82 -99t-101.5 -93l-143 121q60 46 94.5 87.5t34.5 84.5q0 23 -16.5 34t-53.5 11h-121q-97 0 -176 18.5t-135.5 58t-87.5 102t-31 151.5q0 90 30 164t80.5 130t116 94t136.5 56q-51 13 -82.5 31.5t-53 42.5t-35.5 58t-14 77q0 44 13.5 78
t35.5 59t52 47.5t83 49.5z" />
    <glyph glyph-name="omicron" unicode="&#x3bf;" horiz-adv-x="1128" 
d="M72 440q0 132 41.5 251.5t115.5 210t177.5 143.5t228.5 53q94 0 172 -32.5t133.5 -92.5t86 -145.5t30.5 -192.5q0 -108 -29 -212.5t-99.5 -210t-185.5 -170.5t-249 -65q-95 0 -172.5 32.5t-133 92.5t-86 145.5t-30.5 192.5zM362 459q0 -50 12.5 -89t34 -65.5t51 -40.5
t64.5 -14q48 0 91.5 24.5t77 71.5t53.5 115t20 155q0 50 -12.5 89t-34 65.5t-51.5 40.5t-64 14q-48 0 -91.5 -24.5t-77 -71.5t-53.5 -115t-20 -155z" />
    <glyph glyph-name="pi" unicode="&#x3c0;" horiz-adv-x="1292" 
d="M152 1075h1169l-45 -256h-129l-146 -819h-282l145 819h-344l-145 -819h-283l146 819h-132z" />
    <glyph glyph-name="rho" unicode="&#x3c1;" horiz-adv-x="1116" 
d="M1044 647q0 -74 -13 -152.5t-39 -153t-66 -141t-95 -116t-125 -78.5t-155 -29q-33 0 -67 5.5t-63.5 18.5t-54.5 29.5t-47 35.5l-55 -320l-307 -141l160 911q27 155 73 265.5t111 181t148 103t184 32.5q118 0 197 -39t126.5 -103t67.5 -144.5t20 -164.5zM756 627
q0 98 -38.5 150t-111.5 52q-85 0 -131 -70t-72 -220l-34 -203q14 -18 31.5 -35.5t39 -31t47.5 -21.5t58 -8q41 0 73.5 19.5t53 46t35.5 58t25.5 70.5t17 86t6.5 107z" />
    <glyph glyph-name="sigma1" unicode="&#x3c2;" horiz-adv-x="1090" 
d="M414 -217q60 46 92.5 84t32.5 82q0 15 -6.5 26.5t-23.5 23.5t-46.5 25t-75.5 31q-61 24 -117.5 56.5t-100.5 82t-70.5 121t-26.5 174.5q0 122 43.5 232.5t120 194t181 133t226.5 49.5q84 0 150.5 -20t119.5 -55.5t93 -84.5t71 -107l-225 -178q-30 47 -52.5 74t-51.5 51
t-61.5 35.5t-72.5 11.5q-56 0 -102.5 -25.5t-80.5 -68t-52.5 -97t-18.5 -112.5q0 -50 15 -88.5t41.5 -67.5t61.5 -49.5t75 -33.5q54 -20 100.5 -39.5t80.5 -44.5t53.5 -59t19.5 -85q0 -57 -19 -109t-53 -100t-79.5 -93.5t-98.5 -90.5z" />
    <glyph glyph-name="sigma" unicode="&#x3c3;" horiz-adv-x="1163" 
d="M631 819q-44 0 -91.5 -16.5t-87 -57t-65 -109.5t-25.5 -175q0 -48 12 -87t33 -66.5t51 -42.5t66 -15q64 0 110 35.5t76 90t44 121.5t14 130q0 59 -13 108.5t-42 83.5h-82zM992 819q32 -42 46.5 -93t14.5 -108q0 -140 -44.5 -257.5t-121 -202.5t-177.5 -133t-214 -48
q-94 0 -172 32t-134 91.5t-87 145.5t-31 194q0 157 49 275.5t130.5 198.5t187.5 120.5t220 40.5h500l-43 -256h-124z" />
    <glyph glyph-name="tau" unicode="&#x3c4;" horiz-adv-x="1024" 
d="M674 809l-76 -432q-2 -14 -3 -24t-1 -23q0 -48 26 -65t72 -17q42 0 79 17t75 48l-92 -280q-20 -14 -47 -24.5t-55.5 -17.5t-55 -10.5t-45.5 -3.5q-61 0 -108.5 18t-80.5 51t-50 79t-17 102q0 18 1.5 37t4.5 37l90 508h-301l47 266h901l-47 -266h-317z" />
    <glyph glyph-name="upsilon" unicode="&#x3c5;" horiz-adv-x="1178" 
d="M1030 449q-21 -116 -60 -204t-101.5 -147.5t-151 -90t-207.5 -30.5t-198.5 28.5t-127.5 77t-68 113t-20 136.5q0 28 2.5 58t7.5 59l111 626h283l-105 -596q-5 -25 -5.5 -48t-0.5 -36q0 -39 11 -66t33 -45t49 -26t59 -8q37 0 70 9t60 33t47 66t32 107l108 610h283z" />
    <glyph glyph-name="phi" unicode="&#x3c6;" horiz-adv-x="1503" 
d="M514 -14q-95 13 -175.5 50.5t-140 97t-93 140t-33.5 179.5q0 127 44 237.5t126.5 195.5t200.5 139t266 67l28 172l307 141l-55 -315q109 -21 193 -61.5t142.5 -106t83 -141.5t24.5 -163q0 -117 -42.5 -228t-124 -198.5t-200 -143.5t-270.5 -64l-39 -238l-310 -143z
M356 471q0 -62 17.5 -104.5t46 -69.5t64.5 -41t73 -20l109 610q-84 -12 -143 -46.5t-96 -84.5t-54 -112.5t-17 -131.5zM1147 598q0 59 -16 101.5t-43 71.5t-63.5 46t-78.5 25l-108 -609q55 3 110 26.5t99.5 68t72 111.5t27.5 159z" />
    <glyph glyph-name="chi" unicode="&#x3c7;" horiz-adv-x="1208" 
d="M648 786l231 289h340l-441 -512l297 -563h-350l-150 339l-270 -339h-352l496 561l-271 514h346z" />
    <glyph glyph-name="psi" unicode="&#x3c8;" horiz-adv-x="1520" 
d="M451 -395l67 381q-95 12 -173.5 37.5t-135 71.5t-88 114t-31.5 166q0 29 3 60.5t9 64.5l102 575h279l-100 -563q-3 -19 -5.5 -39.5t-2.5 -36.5q0 -41 10.5 -75.5t34 -60.5t59.5 -41.5t82 -20.5l182 1026l308 141l-207 -1167q57 6 103.5 26.5t84.5 60t58 86.5t30 101
l101 563h278l-102 -573q-23 -133 -70 -226.5t-120.5 -154.5t-174.5 -93t-231 -42l-43 -240z" />
    <glyph glyph-name="omega" unicode="&#x3c9;" horiz-adv-x="1565" 
d="M967 756l-59 -339q-1 -7 -3 -22.5t-2 -27.5q0 -32 10.5 -54t28 -36t40 -20.5t46.5 -6.5q55 0 89.5 32t54 80t26 103.5t6.5 101.5q0 71 -13 135.5t-38.5 126t-63 122t-85.5 124.5h319q83 -101 126.5 -232.5t43.5 -260.5q0 -122 -32 -232t-93.5 -193t-152 -131.5
t-207.5 -48.5q-65 0 -111.5 19t-78.5 47.5t-51 62t-28 62.5q-19 -31 -47 -64.5t-66.5 -61.5t-89.5 -46.5t-116 -18.5q-94 0 -160.5 30.5t-108.5 83.5t-61.5 124t-19.5 152q0 104 22.5 197.5t67.5 179.5t112 168t156 163h320q-74 -65 -144 -136t-124 -153t-87 -175t-33 -201
q0 -82 32.5 -121t90.5 -39q56 0 91 34t49 117l63 355h281z" />
    <glyph glyph-name="iotadieresis" unicode="&#x3ca;" horiz-adv-x="578" 
d="M336 0h-283l189 1075h282zM827 1376q0 -32 -12.5 -60t-34.5 -50t-50.5 -34.5t-59.5 -12.5q-33 0 -62.5 12.5t-51.5 34.5t-35 50t-13 60q0 33 13 62t35 51t51.5 34.5t62.5 12.5q31 0 59.5 -12.5t50.5 -34.5t34.5 -51t12.5 -62zM385 1376q0 -32 -13 -60t-35 -50t-51 -34.5
t-61 -12.5t-61 12.5t-51 34.5t-35 50t-13 60q0 33 13 62t35 51t51 34.5t61 12.5t61 -12.5t51 -34.5t35 -51t13 -62z" />
    <glyph glyph-name="upsilondieresis" unicode="&#x3cb;" horiz-adv-x="1178" 
d="M1030 449q-21 -116 -60 -204t-101.5 -147.5t-151 -90t-207.5 -30.5t-198.5 28.5t-127.5 77t-68 113t-20 136.5q0 28 2.5 58t7.5 59l111 626h283l-105 -596q-5 -25 -5.5 -48t-0.5 -36q0 -39 11 -66t33 -45t49 -26t59 -8q37 0 70 9t60 33t47 66t32 107l108 610h283z
M1100 1376q0 -32 -12.5 -60t-34.5 -50t-50.5 -34.5t-59.5 -12.5q-33 0 -62.5 12.5t-51.5 34.5t-35 50t-13 60q0 33 13 62t35 51t51.5 34.5t62.5 12.5q31 0 59.5 -12.5t50.5 -34.5t34.5 -51t12.5 -62zM658 1376q0 -32 -13 -60t-35 -50t-51 -34.5t-61 -12.5t-61 12.5t-51 34.5
t-35 50t-13 60q0 33 13 62t35 51t51 34.5t61 12.5t61 -12.5t51 -34.5t35 -51t13 -62z" />
    <glyph glyph-name="omicrontonos" unicode="&#x3cc;" horiz-adv-x="1128" 
d="M72 440q0 132 41.5 251.5t115.5 210t177.5 143.5t228.5 53q94 0 172 -32.5t133.5 -92.5t86 -145.5t30.5 -192.5q0 -108 -29 -212.5t-99.5 -210t-185.5 -170.5t-249 -65q-95 0 -172.5 32.5t-133 92.5t-86 145.5t-30.5 192.5zM362 459q0 -50 12.5 -89t34 -65.5t51 -40.5
t64.5 -14q48 0 91.5 24.5t77 71.5t53.5 115t20 155q0 50 -12.5 89t-34 65.5t-51.5 40.5t-64 14q-48 0 -91.5 -24.5t-77 -71.5t-53.5 -115t-20 -155zM793 1219h-240l236 327h358z" />
    <glyph glyph-name="upsilontonos" unicode="&#x3cd;" horiz-adv-x="1178" 
d="M1030 449q-21 -116 -60 -204t-101.5 -147.5t-151 -90t-207.5 -30.5t-198.5 28.5t-127.5 77t-68 113t-20 136.5q0 28 2.5 58t7.5 59l111 626h283l-105 -596q-5 -25 -5.5 -48t-0.5 -36q0 -39 11 -66t33 -45t49 -26t59 -8q37 0 70 9t60 33t47 66t32 107l108 610h283z
M795 1219h-240l236 327h358z" />
    <glyph glyph-name="omegatonos" unicode="&#x3ce;" horiz-adv-x="1565" 
d="M967 756l-59 -339q-1 -7 -3 -22.5t-2 -27.5q0 -32 10.5 -54t28 -36t40 -20.5t46.5 -6.5q55 0 89.5 32t54 80t26 103.5t6.5 101.5q0 71 -13 135.5t-38.5 126t-63 122t-85.5 124.5h319q83 -101 126.5 -232.5t43.5 -260.5q0 -122 -32 -232t-93.5 -193t-152 -131.5
t-207.5 -48.5q-65 0 -111.5 19t-78.5 47.5t-51 62t-28 62.5q-19 -31 -47 -64.5t-66.5 -61.5t-89.5 -46.5t-116 -18.5q-94 0 -160.5 30.5t-108.5 83.5t-61.5 124t-19.5 152q0 104 22.5 197.5t67.5 179.5t112 168t156 163h320q-74 -65 -144 -136t-124 -153t-87 -175t-33 -201
q0 -82 32.5 -121t90.5 -39q56 0 91 34t49 117l63 355h281zM1002 1219h-240l236 327h358z" />
    <glyph glyph-name="afii10023" unicode="&#x401;" horiz-adv-x="1323" 
d="M90 0l252 1434h987l-49 -281h-700l-43 -248h567l-49 -278h-568l-61 -346h731l-49 -281h-1018zM1245 1683q0 -32 -12.5 -60t-34.5 -50t-50.5 -34.5t-59.5 -12.5q-33 0 -62.5 12.5t-51.5 34.5t-35 50t-13 60q0 33 13 62t35 51t51.5 34.5t62.5 12.5q31 0 59.5 -12.5
t50.5 -34.5t34.5 -51t12.5 -62zM803 1683q0 -32 -13 -60t-35 -50t-51 -34.5t-61 -12.5t-61 12.5t-51 34.5t-35 50t-13 60q0 33 13 62t35 51t51 34.5t61 12.5t61 -12.5t51 -34.5t35 -51t13 -62z" />
    <glyph glyph-name="afii10051" unicode="&#x402;" horiz-adv-x="1642" 
d="M1567 545q0 -125 -37 -221t-105 -166t-165 -114.5t-218 -66.5l-26 281q52 8 98 24t80 43.5t54 68t20 98.5q0 72 -47 102.5t-134 30.5q-91 0 -182.5 -19t-161.5 -51l-98 -555h-287l203 1151h-358l51 283h1110l-51 -283h-465l-53 -309q75 24 169 42.5t203 18.5
q188 0 294 -92t106 -266z" />
    <glyph glyph-name="afii10052" unicode="&#x403;" horiz-adv-x="1253" 
d="M1270 1153h-688l-205 -1153h-287l254 1434h975zM928 1526h-240l236 327h358z" />
    <glyph glyph-name="afii10053" unicode="&#x404;" horiz-adv-x="1372" 
d="M1077 1018q-25 69 -84.5 113.5t-152.5 44.5q-72 0 -130.5 -21.5t-106 -61.5t-84.5 -97t-64 -128h471l-45 -254h-475q0 -30 3 -59q4 -44 17.5 -96.5t48 -100t86.5 -74t121 -26.5q49 0 93 10.5t83.5 33t73.5 53t78 85.5l213 -139q-53 -80 -114 -140.5t-133.5 -101.5
t-159 -61.5t-189.5 -20.5q-121 0 -215 43.5t-158.5 121.5t-98.5 186t-34 237q0 114 23.5 224t69.5 209t113 183t153 145t191.5 95.5t227.5 34.5q174 0 293.5 -84t167.5 -233z" />
    <glyph glyph-name="afii10054" unicode="&#x405;" horiz-adv-x="1346" 
d="M1079 1014q-28 35 -62 66.5t-74.5 55.5t-88 38t-104.5 14q-56 0 -96 -11t-65 -30.5t-36.5 -45t-11.5 -54.5q0 -31 12.5 -53.5t42.5 -42.5t80.5 -40t126.5 -45q74 -24 147 -57t130.5 -81t93.5 -113.5t36 -155.5q0 -122 -43 -212.5t-119.5 -150.5t-181 -89.5t-227.5 -29.5
q-109 0 -201.5 24.5t-166.5 65.5t-129 94.5t-89 112.5l234 166q39 -53 85 -89t96.5 -58t104.5 -31.5t109 -9.5q46 0 87.5 9.5t72.5 30t49 53t18 79.5q0 28 -14.5 52.5t-48 47t-89 45.5t-136.5 49q-83 25 -152 59.5t-119 81t-78 107t-28 138.5q0 120 44 205.5t118.5 140
t171.5 80.5t204 26q95 0 174.5 -20.5t145 -56t117.5 -83.5t92 -104z" />
    <glyph glyph-name="afii10055" unicode="&#x406;" horiz-adv-x="696" 
d="M395 0h-286l253 1434h287z" />
    <glyph glyph-name="afii10056" unicode="&#x407;" horiz-adv-x="696" 
d="M395 0h-286l253 1434h287zM914 1682q0 -32 -12.5 -60t-34.5 -50t-50.5 -34.5t-59.5 -12.5q-33 0 -62.5 12.5t-51.5 34.5t-35 50t-13 60q0 33 13 62t35 51t51.5 34.5t62.5 12.5q31 0 59.5 -12.5t50.5 -34.5t34.5 -51t12.5 -62zM472 1682q0 -32 -13 -60t-35 -50t-51 -34.5
t-61 -12.5t-61 12.5t-51 34.5t-35 50t-13 60q0 33 13 62t35 51t51 34.5t61 12.5t61 -12.5t51 -34.5t35 -51t13 -62z" />
    <glyph glyph-name="afii10057" unicode="&#x408;" horiz-adv-x="1323" 
d="M1143 516q-31 -171 -100 -290t-187 -182q-126 -67 -305 -67q-108 0 -193 32t-147 91t-102 142t-58 184l277 66q14 -56 33.5 -98.5t49 -72t71 -44.5t98.5 -15q62 0 109 19.5t81.5 60t58.5 102.5t39 146l150 844h287z" />
    <glyph glyph-name="afii10058" unicode="&#x409;" horiz-adv-x="2167" 
d="M2077 557q0 -135 -45.5 -239t-126.5 -174.5t-193 -107t-244 -36.5h-602l205 1153h-385l-113 -528q-35 -164 -90.5 -279t-129.5 -191.5t-164 -118.5t-193 -59l-33 281q58 7 110.5 29t95.5 64.5t76 109.5t54 164l174 809h934l-90 -508h340q86 0 162.5 -23.5t133.5 -69.5
t90.5 -115.5t33.5 -160.5zM1778 500q0 71 -48.5 109t-132.5 38h-329l-66 -368h334q54 0 99 14t76.5 41.5t49 69t17.5 96.5z" />
    <glyph glyph-name="afii10059" unicode="&#x40a;" horiz-adv-x="2255" 
d="M2165 557q0 -135 -45.5 -239t-126.5 -174.5t-193 -107t-244 -36.5h-602l107 602h-580l-104 -602h-287l252 1434h287l-97 -549h580l96 549h287l-90 -508h340q86 0 162.5 -23.5t133.5 -69.5t90.5 -115.5t33.5 -160.5zM1866 500q0 71 -48.5 109t-131.5 38h-330l-66 -368h334
q54 0 99 14t76.5 41.5t49 69t17.5 96.5z" />
    <glyph glyph-name="afii10060" unicode="&#x40b;" horiz-adv-x="1696" 
d="M1565 541q0 -15 -2 -49.5t-7 -63.5l-75 -428h-287l63 354q3 16 6 39t3 43q0 96 -47.5 142.5t-135.5 46.5q-51 0 -97 -5.5t-86 -14.5t-79.5 -21t-77.5 -29l-98 -555h-287l203 1151h-358l51 283h1110l-51 -283h-465l-55 -313q80 27 177.5 46t213.5 19q99 0 171.5 -26
t121.5 -77t68.5 -118t19.5 -141z" />
    <glyph glyph-name="afii10061" unicode="&#x40c;" horiz-adv-x="1475" 
d="M979 932l352 -932h-303l-268 711l-316 -318l-67 -393h-287l252 1434h287l-112 -633l613 633h347zM989 1526h-240l236 327h358z" />
    <glyph glyph-name="afii10062" unicode="&#x40e;" horiz-adv-x="1434" 
d="M753 706l441 728h336l-930 -1434h-315l280 416l-375 1018h328zM1286 1755q-13 -38 -46 -78.5t-86.5 -74t-128 -55t-169.5 -21.5q-89 0 -154 22t-108.5 55.5t-64.5 74t-21 77.5l246 64q1 -20 8.5 -39.5t26.5 -36.5t45 -25t55 -8q32 0 59.5 7.5t49.5 22t37 34.5t24 45z" />
    <glyph glyph-name="afii10145" unicode="&#x40f;" horiz-adv-x="1530" 
d="M1252 0h-435l-76 -352h-276l62 352h-437l253 1434h287l-203 -1153h588l203 1153h287z" />
    <glyph glyph-name="afii10017" unicode="&#x410;" horiz-adv-x="1528" 
d="M1049 0l-56 319h-518l-168 -319h-317l796 1434h279l289 -1434h-305zM863 1058l-245 -466h326z" />
    <glyph glyph-name="afii10018" unicode="&#x411;" horiz-adv-x="1464" 
d="M1348 1163h-773l-45 -266h383q100 0 179 -23t134 -67t84 -109.5t29 -150.5q0 -131 -45.5 -232.5t-125.5 -171.5t-189.5 -106.5t-237.5 -36.5h-651l254 1434h1053zM1040 502q0 66 -42 103.5t-132 37.5h-381l-65 -371h381q56 0 101 16t76.5 47t46.5 75t15 92z" />
    <glyph glyph-name="afii10019" unicode="&#x412;" horiz-adv-x="1446" 
d="M1389 1100q0 -68 -18 -121.5t-47.5 -95.5t-67 -73t-76.5 -52q69 -44 110 -113t41 -162q0 -117 -41.5 -207t-117 -151.5t-180 -93t-230.5 -31.5h-672l254 1434h600q108 0 191.5 -24.5t139.5 -68.5t85 -105.5t29 -135.5zM1090 1055q0 55 -42.5 84.5t-136.5 29.5h-333
l-50 -272h381q84 0 132.5 39.5t48.5 118.5zM1034 479q0 84 -52.5 124t-164.5 40h-332l-65 -371h383q51 0 93.5 13.5t73 40t47.5 65t17 88.5z" />
    <glyph glyph-name="afii10020" unicode="&#x413;" horiz-adv-x="1253" 
d="M1270 1153h-688l-205 -1153h-287l254 1434h975z" />
    <glyph glyph-name="afii10021" unicode="&#x414;" horiz-adv-x="1503" 
d="M1235 281h172l-112 -633h-276l47 352h-832l-77 -352h-275l112 633h115q46 67 84 136t70.5 142t58.5 146t55 188l129 541h934zM717 1153l-62 -260q-26 -111 -54.5 -200t-59 -163t-63 -134.5t-66.5 -114.5h536l154 872h-385z" />
    <glyph glyph-name="afii10022" unicode="&#x415;" horiz-adv-x="1323" 
d="M90 0l252 1434h987l-49 -281h-700l-43 -248h567l-49 -278h-568l-61 -346h731l-49 -281h-1018z" />
    <glyph glyph-name="afii10024" unicode="&#x416;" horiz-adv-x="2105" 
d="M1340 1434l-104 -585l555 585h347l-498 -502l352 -932h-303l-268 711l-253 -254l-81 -457h-287l80 451l-163 241l-505 -692h-337l683 930l-337 504h353l375 -587l104 587h287z" />
    <glyph glyph-name="afii10025" unicode="&#x417;" 
d="M1198 1128q0 -54 -12 -106.5t-42 -105t-71.5 -89.5t-93.5 -63q37 -17 68.5 -42t54.5 -57.5t36 -72.5t13 -88q-1 -137 -55 -236.5t-144.5 -164t-208.5 -95.5t-247 -31q-80 0 -157 18.5t-144 52t-119 82t-82 108.5l233 180q31 -45 71 -76.5t85 -52t94.5 -30t100.5 -9.5
q57 0 107 12.5t87.5 39.5t59.5 69.5t22 101.5q0 65 -42.5 105t-119.5 40h-250l43 254h230q40 0 74 14t58.5 38.5t38 59t13.5 75.5q0 24 -9.5 47.5t-29.5 42.5t-52.5 31t-78.5 12q-103 0 -193.5 -38t-175.5 -116l-167 193q64 56 130 98t142 72t150.5 42.5t152.5 12.5
q108 0 190.5 -27.5t135 -73t78.5 -104.5t26 -123z" />
    <glyph glyph-name="afii10026" unicode="&#x418;" horiz-adv-x="1556" 
d="M1159 947l-794 -947h-275l252 1434h287l-167 -944l793 944h275l-252 -1434h-287z" />
    <glyph glyph-name="afii10027" unicode="&#x419;" horiz-adv-x="1556" 
d="M1159 947l-794 -947h-275l252 1434h287l-167 -944l793 944h275l-252 -1434h-287zM1368 1755q-13 -38 -46 -78.5t-86.5 -74t-128 -55t-169.5 -21.5q-89 0 -154 22t-108.5 55.5t-64.5 74t-21 77.5l246 64q1 -20 8.5 -39.5t26.5 -36.5t45 -25t55 -8q32 0 59.5 7.5t49.5 22
t37 34.5t24 45z" />
    <glyph glyph-name="afii10028" unicode="&#x41a;" horiz-adv-x="1466" 
d="M979 932l352 -932h-303l-268 711l-316 -318l-67 -393h-287l252 1434h287l-112 -633l613 633h347z" />
    <glyph glyph-name="afii10029" unicode="&#x41b;" horiz-adv-x="1434" 
d="M1153 0h-287l205 1153h-385l-113 -528q-35 -164 -91 -279t-130 -191.5t-163.5 -118.5t-192.5 -59l-33 281q58 7 110.5 29t95.5 64.5t76 109.5t54 164l174 809h934z" />
    <glyph glyph-name="afii10030" unicode="&#x41c;" horiz-adv-x="1702" 
d="M1423 0h-286l141 807l-526 -840l-240 840l-141 -807h-281l252 1434h276l228 -869l536 869h293z" />
    <glyph glyph-name="afii10031" unicode="&#x41d;" horiz-adv-x="1522" 
d="M1243 0h-287l105 602h-580l-104 -602h-287l252 1434h287l-97 -549h580l96 549h287z" />
    <glyph glyph-name="afii10032" unicode="&#x41e;" horiz-adv-x="1464" 
d="M1409 866q0 -121 -23.5 -233.5t-68 -211.5t-108.5 -180.5t-144 -140t-175 -91t-202 -32.5q-132 0 -237 40.5t-178.5 116.5t-112.5 185.5t-39 247.5q0 121 23.5 234t68 211.5t108.5 180.5t144 140.5t175 90.5t202 32q132 0 237 -40.5t178.5 -116.5t112.5 -185.5t39 -247.5
zM1110 825q0 89 -22.5 154.5t-61.5 108t-91.5 63t-113.5 20.5q-83 0 -156 -40.5t-127.5 -114.5t-86 -177.5t-31.5 -230.5q0 -89 22.5 -154t61.5 -108t91.5 -63.5t113.5 -20.5q83 0 156 40.5t127.5 114.5t86 177.5t31.5 230.5z" />
    <glyph glyph-name="afii10033" unicode="&#x41f;" horiz-adv-x="1522" 
d="M1241 0h-287l205 1153h-577l-205 -1153h-287l254 1434h1151z" />
    <glyph glyph-name="afii10034" unicode="&#x420;" horiz-adv-x="1384" 
d="M1384 1044q0 -126 -38.5 -225.5t-112.5 -168.5t-183.5 -105.5t-250.5 -36.5h-332l-90 -508h-287l254 1434h551q119 0 210 -26.5t153 -77t94 -123t32 -163.5zM1083 999q0 34 -10.5 62.5t-34.5 49.5t-63 32.5t-96 11.5h-297l-66 -369h334q54 0 97.5 15t73.5 42.5t46 67
t16 88.5z" />
    <glyph glyph-name="afii10035" unicode="&#x421;" horiz-adv-x="1364" 
d="M1085 985q-22 42 -47.5 76.5t-57.5 59.5t-74 39t-97 14q-87 0 -158.5 -47t-122.5 -125.5t-79.5 -180.5t-28.5 -213q0 -87 21 -152t58.5 -108t89.5 -64.5t113 -21.5q85 0 152.5 46t132.5 134l230 -166q-57 -77 -117.5 -133t-127 -93t-141 -55t-159.5 -18q-103 0 -202 32.5
t-176.5 103t-125 182.5t-47.5 272q0 159 35.5 291t83 216t101 147t131.5 118t173.5 86t194.5 31q106 0 187.5 -21.5t144 -63.5t109 -103t83.5 -140z" />
    <glyph glyph-name="afii10036" unicode="&#x422;" horiz-adv-x="1286" 
d="M1305 1151h-408l-203 -1151h-286l202 1151h-407l49 283h1102z" />
    <glyph glyph-name="afii10037" unicode="&#x423;" horiz-adv-x="1434" 
d="M753 706l441 728h336l-930 -1434h-315l280 416l-375 1018h328z" />
    <glyph glyph-name="afii10038" unicode="&#x424;" horiz-adv-x="1892" 
d="M1823 836q0 -180 -62.5 -318t-172 -231t-259 -141t-323.5 -48l-27 -147h-287l27 147q-128 0 -237.5 30.5t-189.5 92.5t-125.5 156t-45.5 221q0 180 62 317.5t171.5 230.5t259 141t324.5 48l25 140h286l-24 -140q127 0 236.5 -30.5t189.5 -92.5t125.5 -155.5t46.5 -220.5z
M1524 784q0 60 -20 111t-62 87.5t-108 57.5t-158 21l-121 -688q101 0 187 25t148.5 75.5t98 128t35.5 182.5zM889 1061q-102 0 -188 -25t-148.5 -76t-97.5 -128.5t-35 -182.5q0 -60 20 -110.5t62 -87.5t108 -57.5t158 -20.5z" />
    <glyph glyph-name="afii10039" unicode="&#x425;" horiz-adv-x="1438" 
d="M317 0h-321l592 741l-324 693h309l206 -443l351 443h322l-559 -701l342 -733h-309l-225 486z" />
    <glyph glyph-name="afii10040" unicode="&#x426;" horiz-adv-x="1556" 
d="M1292 281h172l-112 -633h-277l48 352h-1033l254 1434h287l-203 -1153h578l202 1153h287z" />
    <glyph glyph-name="afii10041" unicode="&#x427;" horiz-adv-x="1436" 
d="M1155 0h-287l107 596q-81 -28 -178.5 -47t-212.5 -19q-182 0 -281.5 92.5t-99.5 268.5q0 38 2.5 68.5t5.5 46.5l76 428h286l-63 -355q-5 -26 -6.5 -48t-1.5 -36q0 -96 47 -141t135 -45q47 0 93.5 5t95.5 16t81.5 22t69.5 27l98 555h287z" />
    <glyph glyph-name="afii10042" unicode="&#x428;" horiz-adv-x="2054" 
d="M1774 0h-1684l254 1434h287l-205 -1153h412l204 1153h287l-205 -1153h412l205 1153h287z" />
    <glyph glyph-name="afii10043" unicode="&#x429;" horiz-adv-x="2089" 
d="M1825 281h172l-112 -633h-277l49 352h-1567l254 1434h287l-203 -1153h412l202 1153h287l-203 -1153h412l203 1153h287z" />
    <glyph glyph-name="afii10044" unicode="&#x42a;" horiz-adv-x="1530" 
d="M1440 557q0 -135 -45.5 -239t-126.5 -174.5t-193 -107t-244 -36.5h-602l205 1163h-319l49 271h606l-90 -508h340q86 0 162.5 -23.5t133.5 -69.5t90.5 -115.5t33.5 -160.5zM1141 500q0 71 -48.5 109t-131.5 38h-330l-66 -368h334q54 0 99 14t76.5 41.5t49 69t17.5 96.5z
" />
    <glyph glyph-name="afii10045" unicode="&#x42b;" horiz-adv-x="1884" 
d="M1606 0h-287l254 1434h287zM1233 557q0 -135 -45.5 -239t-126.5 -174.5t-192.5 -107t-243.5 -36.5h-535l254 1434h287l-90 -508h272q86 0 162.5 -23.5t133.5 -69.5t90.5 -115.5t33.5 -160.5zM934 500q0 71 -48.5 109t-131.5 38h-262l-66 -368h266q55 0 99.5 14t76 41.5
t49 69t17.5 96.5z" />
    <glyph glyph-name="afii10046" unicode="&#x42c;" horiz-adv-x="1391" 
d="M1300 557q0 -135 -45.5 -239t-126.5 -174.5t-192.5 -107t-243.5 -36.5h-602l254 1434h287l-90 -508h340q86 0 162 -23.5t133 -69.5t90.5 -115.5t33.5 -160.5zM1001 500q0 71 -48 109t-132 38h-329l-66 -368h334q54 0 98.5 14t76 41.5t49 69t17.5 96.5z" />
    <glyph glyph-name="afii10047" unicode="&#x42d;" horiz-adv-x="1364" 
d="M1309 858q0 -111 -22.5 -220t-66.5 -207t-109.5 -181t-150.5 -143.5t-190 -95t-229 -34.5q-92 0 -167.5 22.5t-134 64.5t-99.5 102t-64 135l262 139q40 -96 99 -139t149 -43q75 0 138.5 26t114 73t88 112.5t60.5 144.5h-475l45 254h463q-2 69 -21 126t-53.5 97.5
t-83.5 62.5t-112 22q-107 0 -178.5 -40t-127.5 -118l-241 121q50 73 108 132t130 100t161 63t201 22q124 0 218.5 -45.5t158.5 -126t96.5 -190t32.5 -236.5z" />
    <glyph glyph-name="afii10048" unicode="&#x42e;" horiz-adv-x="2007" 
d="M1950 877q0 -111 -22 -220.5t-65.5 -209.5t-108 -186t-149 -149t-189 -99t-228.5 -36q-116 0 -208 42t-156 118.5t-98 183t-34 236.5v57h-207l-108 -614h-287l254 1434h287l-99 -549h209q37 118 101 222t153.5 181.5t204.5 122.5t254 45q116 0 208 -42t156 -118
t98 -182.5t34 -236.5zM1649 831q0 76 -17.5 138.5t-50 107.5t-79 69.5t-105.5 24.5q-72 0 -130 -25.5t-103 -68.5t-77.5 -100t-53 -120t-30.5 -129t-10 -126q0 -76 17 -138.5t49.5 -107.5t79.5 -69.5t106 -24.5q72 0 130 25.5t103 68.5t77.5 100t53 120.5t30.5 129t10 125.5
z" />
    <glyph glyph-name="afii10049" unicode="&#x42f;" horiz-adv-x="1436" 
d="M1155 0h-281l93 516h-258l-357 -516h-352l408 557q-98 38 -149.5 126.5t-51.5 207.5q0 126 43 226.5t120 171t182.5 108t231.5 37.5h625zM764 1163q-57 0 -104.5 -14.5t-81.5 -44t-53 -73t-19 -101.5q0 -82 48 -121t136 -39h322l67 393h-315z" />
    <glyph glyph-name="afii10065" unicode="&#x430;" horiz-adv-x="1130" 
d="M1038 778q0 -21 -1.5 -43t-6.5 -47l-121 -688h-282l14 72q-42 -39 -99 -67t-132 -28q-72 0 -137.5 19.5t-115.5 60t-80 104t-30 150.5q0 91 31.5 165.5t89.5 128t140 83t184 29.5q73 0 146 -13.5t107 -29.5l7 43q2 13 2 20v15q0 56 -43 84t-144 28q-68 0 -131.5 -16
t-111.5 -39l-74 201q72 40 166 64t188 24q95 0 175 -18t137.5 -57t89.5 -99.5t32 -145.5zM707 451q-34 18 -84 31.5t-119 13.5q-42 0 -73.5 -12t-52.5 -33t-31.5 -49t-10.5 -60q0 -60 38.5 -92.5t117.5 -32.5q33 0 62 9t53.5 23t43.5 31.5t31 34.5z" />
    <glyph glyph-name="afii10066" unicode="&#x431;" horiz-adv-x="1147" 
d="M1081 1270q-43 -15 -95.5 -23t-115.5 -8q-112 0 -188.5 -20t-126.5 -59t-77.5 -97t-41.5 -135q39 42 75 70t72 45.5t74 24.5t80 7q78 0 138 -33t100.5 -90t61 -134.5t20.5 -166.5q0 -83 -17.5 -165.5t-51 -157.5t-83.5 -139t-114.5 -111.5t-143.5 -74t-172 -26.5
q-89 0 -160.5 34t-122 93.5t-77.5 141t-27 176.5q0 26 1.5 50t6.5 54l56 318q36 188 96 296.5t149.5 187.5t222 122t295.5 43q63 0 113 6t96 17zM766 594q0 44 -9 83t-27 68.5t-46 46.5t-66 17q-44 0 -79 -16t-59.5 -39.5t-44 -56t-33 -68.5t-22.5 -86t-9 -94q0 -42 9 -79.5
t27.5 -65.5t46.5 -44t66 -16q44 0 79 16.5t59.5 41t44 56.5t33 68.5t22 80t8.5 87.5z" />
    <glyph glyph-name="afii10067" unicode="&#x432;" horiz-adv-x="1157" 
d="M1096 848q0 -85 -38.5 -154.5t-115.5 -109.5q25 -12 46 -31.5t37 -44.5t25 -54.5t9 -62.5q0 -95 -37 -167.5t-99 -122.5t-143.5 -75.5t-169.5 -25.5h-567l188 1077h560q69 0 125.5 -15.5t96 -44.5t61.5 -72t22 -97zM809 784q0 38 -27 59t-86 21h-225l-35 -198h236
q29 0 54 7t43.5 21.5t29 36.5t10.5 53zM772 360q0 45 -27.5 69t-87.5 24h-258l-43 -240h258q39 0 67.5 10t49 28.5t31 45.5t10.5 63z" />
    <glyph glyph-name="afii10068" unicode="&#x433;" horiz-adv-x="958" 
d="M965 836h-492l-147 -836h-283l188 1075h775z" />
    <glyph glyph-name="afii10069" unicode="&#x434;" 
d="M1010 240h143l-100 -566h-262l42 326h-646l-72 -326h-261l99 566h94q61 85 107.5 188t81.5 236l106 411h815zM549 836l-43 -172q-15 -60 -33.5 -120t-41.5 -117t-43 -98t-50 -89h389l104 596h-282z" />
    <glyph glyph-name="afii10070" unicode="&#x435;" horiz-adv-x="1094" 
d="M1018 662q0 -53 -8.5 -106.5t-24.5 -109.5h-635q-6 -55 11 -93.5t47 -62.5t68 -35t75 -11q54 0 107.5 17t107.5 54l137 -196q-97 -76 -190.5 -109t-192.5 -33q-104 0 -187.5 32t-142 92.5t-90.5 147t-32 195.5q0 138 43.5 257.5t119 207.5t177.5 138.5t219 50.5
q101 0 175 -34.5t122 -94t71 -138.5t23 -169zM752 659q4 39 -3.5 74t-28 61.5t-53.5 42t-81 15.5q-39 0 -70 -15t-55.5 -41t-43 -61t-30.5 -76h365z" />
    <glyph glyph-name="afii10072" unicode="&#x436;" horiz-adv-x="1638" 
d="M651 327l-107 169l-293 -496h-308l437 733l-215 342h334l218 -368l65 368l309 141l-94 -518l347 377h333l-331 -334l174 -741h-295l-113 506l-178 -180l-57 -326h-283z" />
    <glyph glyph-name="afii10073" unicode="&#x437;" horiz-adv-x="1020" 
d="M932 846q0 -92 -51.5 -163t-157.5 -112q33 -8 64 -24.5t55 -42t38.5 -60t14.5 -77.5q0 -92 -41 -164t-113 -122.5t-170 -77t-211 -26.5q-51 0 -108.5 7.5t-114.5 25.5t-101.5 40.5t-80.5 51.5l125 215q72 -61 152.5 -94t179.5 -33q55 0 89.5 11.5t58 30.5t37 47t13.5 67
q0 49 -33 77t-92 28h-186l37 213h180q34 0 57 9.5t41 26t26.5 35t8.5 56.5q0 18 -6 35t-20 30t-38.5 21t-60.5 8q-68 0 -158.5 -29t-181.5 -86l-53 223q47 24 100.5 43.5t109 33t110.5 21t106 7.5q102 0 173.5 -22.5t116 -58.5t65 -81t20.5 -90z" />
    <glyph glyph-name="afii10074" unicode="&#x438;" horiz-adv-x="1229" 
d="M823 627l-514 -627h-266l190 1075h283l-112 -630l518 630h266l-191 -1075h-282z" />
    <glyph glyph-name="afii10075" unicode="&#x439;" horiz-adv-x="1229" 
d="M823 627l-514 -627h-266l190 1075h283l-112 -630l518 630h266l-191 -1075h-282zM1112 1376q-12 -34 -44 -71t-83 -67.5t-119.5 -50.5t-154.5 -20q-83 0 -145 20t-102.5 50.5t-60.5 67.5t-20 71l231 66q2 -48 34.5 -79.5t92.5 -31.5t101.5 28.5t60.5 82.5z" />
    <glyph glyph-name="afii10076" unicode="&#x43a;" horiz-adv-x="1120" 
d="M231 1075l309 141l-94 -518l347 377h333l-331 -334l174 -741h-295l-113 506l-178 -180l-57 -326h-283z" />
    <glyph glyph-name="afii10077" unicode="&#x43b;" horiz-adv-x="1221" 
d="M989 0h-282l147 836h-283l-73 -306q-35 -142 -85.5 -241t-114 -164t-139.5 -100t-161 -48l-29 240q46 6 88 24.5t78 55t64.5 93.5t46.5 140l123 545h809z" />
    <glyph glyph-name="afii10078" unicode="&#x43c;" horiz-adv-x="1409" 
d="M1007 640l-405 -665l-172 665l-113 -640h-274l188 1075h306l149 -628l375 628h305l-188 -1075h-283z" />
    <glyph glyph-name="afii10079" unicode="&#x43d;" horiz-adv-x="1208" 
d="M977 0h-283l80 451h-368l-80 -451h-283l188 1075h283l-68 -385h369l68 385h282z" />
    <glyph glyph-name="afii10080" unicode="&#x43e;" horiz-adv-x="1128" 
d="M72 440q0 132 41.5 251.5t115.5 210t177.5 143.5t228.5 53q94 0 172 -32.5t133.5 -92.5t86 -145.5t30.5 -192.5q0 -108 -29 -212.5t-99.5 -210t-185.5 -170.5t-249 -65q-95 0 -172.5 32.5t-133 92.5t-86 145.5t-30.5 192.5zM362 459q0 -50 12.5 -89t34 -65.5t51 -40.5
t64.5 -14q48 0 91.5 24.5t77 71.5t53.5 115t20 155q0 50 -12.5 89t-34 65.5t-51.5 40.5t-64 14q-48 0 -91.5 -24.5t-77 -71.5t-53.5 -115t-20 -155z" />
    <glyph glyph-name="afii10081" unicode="&#x43f;" horiz-adv-x="1208" 
d="M977 0h-283l148 836h-369l-147 -836h-283l188 1075h934z" />
    <glyph glyph-name="afii10082" unicode="&#x440;" horiz-adv-x="1143" 
d="M1069 686q0 -114 -25 -233.5t-86.5 -230.5t-162.5 -178t-226 -67q-41 0 -73 6t-59.5 17.5t-52 28t-50.5 37.5l-55 -320l-308 -141l260 1470h283l-12 -67q45 40 96.5 65t116.5 25q85 0 151 -28.5t111 -81.5t68.5 -129.5t23.5 -172.5zM778 639q0 96 -38.5 144t-110.5 48
q-28 0 -52 -7.5t-45.5 -20t-40.5 -28.5t-36 -34l-72 -405q20 -23 39.5 -40.5t40.5 -29t45.5 -17t54.5 -5.5q50 0 90 31.5t67.5 85.5t42.5 125.5t15 152.5z" />
    <glyph glyph-name="afii10083" unicode="&#x441;" horiz-adv-x="1092" 
d="M854 653q-58 92 -110.5 132t-122.5 40q-59 0 -107 -29.5t-82 -77.5t-53 -110.5t-19 -128.5q0 -111 54.5 -170t142.5 -59q59 0 120 30.5t130 92.5l160 -187q-93 -95 -203 -152t-242 -57q-95 0 -177.5 33t-143 95t-95 151t-34.5 201q0 127 41 243t117 204.5t183 141
t238 52.5q84 0 149.5 -20t117.5 -55.5t91 -84.5t70 -107z" />
    <glyph glyph-name="afii10084" unicode="&#x442;" horiz-adv-x="983" 
d="M999 836h-323l-148 -836h-282l147 836h-323l41 239h929z" />
    <glyph glyph-name="afii10085" unicode="&#x443;" horiz-adv-x="1200" 
d="M440 -379h-282l209 379l-220 1075h308l111 -730l372 730h307z" />
    <glyph glyph-name="afii10086" unicode="&#x444;" horiz-adv-x="1710" 
d="M1636 684q0 -83 -13 -167.5t-40.5 -163t-69 -147.5t-99 -119.5t-131 -80t-163.5 -29.5q-34 0 -65 6.5t-57.5 18t-47.5 26.5t-37 33l-55 -315l-307 -141l80 456q-57 -45 -115.5 -67.5t-122.5 -22.5q-70 0 -128.5 26.5t-101 78.5t-66 129.5t-23.5 179.5q0 83 13 167.5
t40.5 163t69 147.5t99 119.5t131 80t163.5 29.5q36 0 69.5 -7.5t59 -19.5t43.5 -25t35 -32l61 344l307 141l-86 -485q45 35 104 62.5t134 27.5q70 0 128.5 -26.5t101 -78.5t66 -129.5t23.5 -179.5zM748 733q-11 21 -24.5 36.5t-36.5 29t-48.5 20t-56.5 6.5
q-41 0 -73.5 -17.5t-56.5 -46.5t-40.5 -68t-27 -82t-15 -87.5t-4.5 -85.5q0 -97 34.5 -148.5t96.5 -51.5q60 0 100.5 22.5t79.5 67.5zM963 336q11 -21 24.5 -36.5t36.5 -29t48.5 -20t56.5 -6.5q41 0 73 17t56 46t41 68t27.5 82t15 87.5t4.5 85.5q0 97 -35 149t-97 52
q-57 0 -99 -22.5t-81 -67.5z" />
    <glyph glyph-name="afii10087" unicode="&#x445;" horiz-adv-x="1176" 
d="M997 0h-299l-163 340l-273 -340h-305l469 575l-248 500h299l130 -273l216 273h305l-413 -506z" />
    <glyph glyph-name="afii10088" unicode="&#x446;" horiz-adv-x="1262" 
d="M1020 240h141l-74 -410l-296 -137l55 307h-803l190 1075h283l-147 -835h368l148 835h282z" />
    <glyph glyph-name="afii10089" unicode="&#x447;" horiz-adv-x="1135" 
d="M903 0h-282l79 459q-69 -31 -138.5 -48.5t-153.5 -17.5q-143 0 -216 74.5t-73 208.5q0 15 1.5 35.5t6.5 60.5l53 303h283l-43 -252q-6 -39 -6 -63q0 -65 31 -93t90 -28q55 0 107 17t101 49l66 370h283z" />
    <glyph glyph-name="afii10090" unicode="&#x448;" horiz-adv-x="1720" 
d="M1489 0h-1446l188 1075h283l-147 -835h299l147 835h283l-148 -835h299l148 835h282z" />
    <glyph glyph-name="afii10091" unicode="&#x449;" horiz-adv-x="1776" 
d="M1532 240h143l-73 -410l-297 -137l55 307h-1317l190 1075h283l-147 -835h299l147 835h283l-148 -835h299l148 835h282z" />
    <glyph glyph-name="afii10092" unicode="&#x44a;" horiz-adv-x="1303" 
d="M1210 414q0 -102 -35 -179t-96.5 -129.5t-145.5 -79t-181 -26.5h-566l152 862h-256l37 213h538l-65 -377h301q68 0 126 -19t100.5 -55t66.5 -89t24 -121zM924 377q0 52 -35.5 80t-95.5 28h-238l-49 -272h240q43 0 75 10.5t56 32t35.5 52.5t11.5 69z" />
    <glyph glyph-name="afii10093" unicode="&#x44b;" horiz-adv-x="1556" 
d="M1325 0h-283l189 1075h282zM985 414q0 -102 -35 -179t-97 -129.5t-146 -79t-181 -26.5h-483l188 1075h283l-65 -377h219q68 0 126 -19t100.5 -55t66.5 -89t24 -121zM698 377q0 52 -35.5 80t-95.5 28h-155l-50 -272h158q43 0 75 10.5t56 32t35.5 52.5t11.5 69z" />
    <glyph glyph-name="afii10094" unicode="&#x44c;" horiz-adv-x="1159" 
d="M1067 414q0 -102 -35 -179t-97 -129.5t-146 -79t-181 -26.5h-565l188 1075h283l-65 -377h301q68 0 126 -19t100.5 -55t66.5 -89t24 -121zM780 377q0 52 -35.5 80t-95.5 28h-237l-50 -272h240q43 0 75 10.5t56 32t35.5 52.5t11.5 69z" />
    <glyph glyph-name="afii10095" unicode="&#x44d;" horiz-adv-x="1100" 
d="M1026 645q0 -87 -20.5 -170.5t-58.5 -157.5t-92 -136.5t-122 -107.5t-148 -70.5t-169 -25.5q-80 0 -141 16t-109 43.5t-85.5 66t-68.5 83.5l189 154q46 -62 95 -92.5t134 -30.5q96 0 171 58t112 176h-359l37 213h350q-5 44 -18.5 79t-39.5 61.5t-59.5 40t-78.5 13.5
q-84 0 -150 -37t-125 -100l-139 170q99 107 216.5 157t264.5 50q99 0 176.5 -34.5t130 -95.5t80 -143.5t27.5 -179.5z" />
    <glyph glyph-name="afii10096" unicode="&#x44e;" horiz-adv-x="1597" 
d="M1526 641q0 -81 -18 -161.5t-52 -154.5t-84 -137.5t-114.5 -110.5t-142 -73.5t-167.5 -26.5q-89 0 -159.5 31.5t-120 91t-75.5 144t-26 190.5v13v8h-161l-80 -455h-283l188 1075h283l-70 -395h164q30 86 80 162t118.5 133t153.5 90t185 33q96 0 167.5 -33.5t119 -94
t71 -144.5t23.5 -185zM1235 618q0 42 -8 80t-24.5 66t-42.5 44.5t-62 16.5q-40 0 -74 -15.5t-61 -43.5t-46 -64t-30 -70t-20 -77.5t-9 -97.5q0 -42 8 -80t24.5 -66t42.5 -44.5t62 -16.5q40 0 74 15.5t61 43.5t46 64t30 70t20 77.5t9 97.5z" />
    <glyph glyph-name="afii10097" unicode="&#x44f;" horiz-adv-x="1206" 
d="M975 0h-277l68 387h-199l-276 -387h-326l338 432q-70 21 -115 80.5t-45 151.5q0 100 35 176.5t96.5 128.5t145 79t180.5 27h563zM608 862q-38 0 -70.5 -10t-56 -29.5t-36.5 -49t-13 -68.5q0 -50 31.5 -77.5t91.5 -27.5h248l47 262h-242z" />
    <glyph glyph-name="afii10071" unicode="&#x451;" horiz-adv-x="1094" 
d="M1018 662q0 -53 -8.5 -106.5t-24.5 -109.5h-635q-6 -55 11 -93.5t47 -62.5t68 -35t75 -11q54 0 107.5 17t107.5 54l137 -196q-97 -76 -190.5 -109t-192.5 -33q-104 0 -187.5 32t-142 92.5t-90.5 147t-32 195.5q0 138 43.5 257.5t119 207.5t177.5 138.5t219 50.5
q101 0 175 -34.5t122 -94t71 -138.5t23 -169zM752 659q4 39 -3.5 74t-28 61.5t-53.5 42t-81 15.5q-39 0 -70 -15t-55.5 -41t-43 -61t-30.5 -76h365zM1075 1368q0 -32 -12.5 -60t-34.5 -50t-50.5 -34.5t-59.5 -12.5q-33 0 -62.5 12.5t-51.5 34.5t-35 50t-13 60q0 33 13 62
t35 51t51.5 34.5t62.5 12.5q31 0 59.5 -12.5t50.5 -34.5t34.5 -51t12.5 -62zM633 1368q0 -32 -13 -60t-35 -50t-51 -34.5t-61 -12.5t-61 12.5t-51 34.5t-35 50t-13 60q0 33 13 62t35 51t51 34.5t61 12.5t61 -12.5t51 -34.5t35 -51t13 -62z" />
    <glyph glyph-name="afii10099" unicode="&#x452;" horiz-adv-x="1229" 
d="M1102 606q0 -32 -4.5 -73t-7.5 -60l-56 -319q-18 -108 -60.5 -197t-105.5 -158.5t-144 -118t-177 -75.5l-29 239q51 21 89 46t65 57t44.5 72.5t26.5 93.5l60 336q4 21 6 45.5t2 44.5q0 85 -37 122t-108 37q-94 0 -148.5 -55t-79.5 -188l-80 -455h-282l192 1094h-170
l33 188h170l12 70l308 141l-37 -211h366l-32 -188h-367l-39 -224q43 40 113.5 67.5t154.5 27.5q162 0 242 -97t80 -262z" />
    <glyph glyph-name="afii10100" unicode="&#x453;" horiz-adv-x="958" 
d="M965 836h-492l-147 -836h-283l188 1075h775zM700 1219h-240l236 327h358z" />
    <glyph glyph-name="afii10101" unicode="&#x454;" horiz-adv-x="1100" 
d="M881 721q-39 63 -89.5 100t-123.5 37q-88 0 -161 -49t-110 -145h342l-37 -213h-348q0 -27 3 -51t14 -57t36 -63t62 -46.5t84 -16.5q86 0 145.5 26t135.5 97l135 -154q-138 -133 -246 -171t-238 -38q-92 0 -168 34.5t-130.5 96t-84.5 145.5t-30 183q0 115 29 206
t67.5 154.5t92.5 120t114.5 93t141.5 62.5t177 26q139 0 234.5 -57t148.5 -150z" />
    <glyph glyph-name="afii10102" unicode="&#x455;" horiz-adv-x="1092" 
d="M897 745q-32 21 -71.5 41t-83.5 35.5t-91 25t-92 9.5q-60 0 -86.5 -19.5t-26.5 -48.5q0 -13 5.5 -24.5t25.5 -26t60 -34.5t108 -48q67 -28 122.5 -58.5t94.5 -68.5t60.5 -85.5t21.5 -108.5q0 -94 -33.5 -161.5t-91.5 -111t-136.5 -64t-168.5 -20.5q-154 0 -285.5 49
t-208.5 113l134 205q71 -50 171 -87.5t220 -37.5q55 0 84.5 23t29.5 61q0 15 -6 28.5t-21.5 26t-41.5 26t-66 28.5q-91 36 -159 70t-113 73t-67.5 86t-22.5 109q0 168 108.5 258t309.5 90q73 0 137.5 -11.5t120 -29.5t103 -41t85.5 -47z" />
    <glyph glyph-name="afii10103" unicode="&#x456;" horiz-adv-x="578" 
d="M586 1325q0 -33 -13 -62.5t-35 -51.5t-51.5 -35t-62.5 -13t-62.5 13t-51.5 35t-35 51.5t-13 62.5t13 62.5t35 51.5t51.5 35t62.5 13t62.5 -13t51.5 -35t35 -51.5t13 -62.5zM336 0h-283l189 1075h282z" />
    <glyph glyph-name="afii10104" unicode="&#x457;" horiz-adv-x="762" 
d="M336 0h-283l189 1075h282zM798 1358q0 -32 -12.5 -60t-34.5 -50t-50.5 -34.5t-59.5 -12.5q-33 0 -62.5 12.5t-51.5 34.5t-35 50t-13 60q0 33 13 62t35 51t51.5 34.5t62.5 12.5q31 0 59.5 -12.5t50.5 -34.5t34.5 -51t12.5 -62zM356 1358q0 -32 -13 -60t-35 -50t-51 -34.5
t-61 -12.5t-61 12.5t-51 34.5t-35 50t-13 60q0 33 13 62t35 51t51 34.5t61 12.5t61 -12.5t51 -34.5t35 -51t13 -62z" />
    <glyph glyph-name="afii10105" unicode="&#x458;" horiz-adv-x="578" 
d="M588 1325q0 -33 -13 -62.5t-35 -51.5t-51.5 -35t-62.5 -13t-62.5 13t-51.5 35t-35 51.5t-13 62.5t13 62.5t35 51.5t51.5 35t62.5 13t62.5 -13t51.5 -35t35 -51.5t13 -62.5zM344 61q-20 -113 -50 -193.5t-86 -134.5t-145 -84.5t-227 -43.5l-59 221q80 11 130.5 26.5
t81 42.5t47 68.5t27.5 104.5l179 1007h282z" />
    <glyph glyph-name="afii10106" unicode="&#x459;" horiz-adv-x="1823" 
d="M1731 414q0 -102 -35 -179t-97 -129.5t-146 -79t-181 -26.5h-565l147 836h-283l-73 -306q-35 -142 -85.5 -241t-114 -164t-139.5 -100t-161 -48l-29 240q46 6 88 24.5t78 55t64.5 93.5t46.5 140l123 545h809l-66 -377h301q68 0 126.5 -19t101 -55t66.5 -89t24 -121z
M1444 377q0 52 -35.5 80t-95.5 28h-238l-49 -272h240q43 0 75 10.5t56 32t35.5 52.5t11.5 69z" />
    <glyph glyph-name="afii10107" unicode="&#x45a;" horiz-adv-x="1810" 
d="M1718 414q0 -102 -35 -179t-96.5 -129.5t-145.5 -79t-181 -26.5h-566l80 451h-368l-80 -451h-283l188 1075h283l-68 -385h369l68 385h282l-65 -377h301q68 0 126 -19t100.5 -55t66.5 -89t24 -121zM1432 377q0 52 -35.5 80t-95.5 28h-238l-49 -272h240q43 0 75 10.5t56 32
t35.5 52.5t11.5 69z" />
    <glyph glyph-name="afii10108" unicode="&#x45b;" horiz-adv-x="1229" 
d="M1102 608q0 -28 -3.5 -67t-8.5 -68l-82 -473h-283l78 449q5 27 7.5 51t2.5 37q0 86 -38 123.5t-109 37.5q-44 0 -80.5 -12t-65 -40t-49.5 -74.5t-33 -116.5l-80 -455h-282l192 1094h-170l33 188h170l12 70l308 141l-37 -211h366l-32 -188h-367l-39 -224q21 19 50 36.5
t63.5 30.5t73.5 20.5t81 7.5q152 0 237 -90.5t85 -266.5z" />
    <glyph glyph-name="afii10109" unicode="&#x45c;" horiz-adv-x="1130" 
d="M231 1075l309 141l-94 -518l347 377h333l-331 -334l174 -741h-295l-113 506l-178 -180l-57 -326h-283zM822 1219h-240l236 327h358z" />
    <glyph glyph-name="afii10110" unicode="&#x45e;" horiz-adv-x="1200" 
d="M440 -379h-282l209 379l-220 1075h308l111 -730l372 730h307zM1106 1376q-12 -34 -44 -71t-83 -67.5t-119.5 -50.5t-154.5 -20q-83 0 -145 20t-102.5 50.5t-60.5 67.5t-20 71l231 66q2 -48 34.5 -79.5t92.5 -31.5t101.5 28.5t60.5 82.5z" />
    <glyph glyph-name="afii10193" unicode="&#x45f;" horiz-adv-x="1221" 
d="M975 0h-330l-45 -258l-297 -137l70 395h-330l188 1075h283l-147 -835h366l148 835h282z" />
    <glyph glyph-name="afii10050" unicode="&#x490;" horiz-adv-x="1306" 
d="M580 1153l-203 -1153h-287l252 1434h698l31 180l301 139l-104 -600h-688z" />
    <glyph glyph-name="afii10098" unicode="&#x491;" horiz-adv-x="967" 
d="M473 836l-147 -836h-283l190 1075h515l30 178l285 131l-98 -548h-492z" />
    <glyph glyph-name="Wgrave" unicode="&#x1e80;" horiz-adv-x="1792" 
d="M1305 0h-283l-55 941l-389 -941h-271l-45 1434h295v-902l371 902h250l59 -902l317 902h299zM998 1526l-240 327h358l121 -327h-239z" />
    <glyph glyph-name="wgrave" unicode="&#x1e81;" horiz-adv-x="1511" 
d="M1073 0h-252l-44 656l-275 -656h-236l-121 1075h281l36 -613l269 613h234l53 -613l252 613h284zM779 1219l-240 327h358l121 -327h-239z" />
    <glyph glyph-name="Wacute" unicode="&#x1e82;" horiz-adv-x="1792" 
d="M1305 0h-283l-55 941l-389 -941h-271l-45 1434h295v-902l371 902h250l59 -902l317 902h299zM1139 1526h-240l236 327h358z" />
    <glyph glyph-name="wacute" unicode="&#x1e83;" horiz-adv-x="1511" 
d="M1073 0h-252l-44 656l-275 -656h-236l-121 1075h281l36 -613l269 613h234l53 -613l252 613h284zM967 1219h-240l236 327h358z" />
    <glyph glyph-name="Wdieresis" unicode="&#x1e84;" horiz-adv-x="1792" 
d="M1305 0h-283l-55 941l-389 -941h-271l-45 1434h295v-902l371 902h250l59 -902l317 902h299zM1470 1683q0 -32 -12.5 -60t-34.5 -50t-50.5 -34.5t-59.5 -12.5q-33 0 -62.5 12.5t-51.5 34.5t-35 50t-13 60q0 33 13 62t35 51t51.5 34.5t62.5 12.5q31 0 59.5 -12.5
t50.5 -34.5t34.5 -51t12.5 -62zM1028 1683q0 -32 -13 -60t-35 -50t-51 -34.5t-61 -12.5t-61 12.5t-51 34.5t-35 50t-13 60q0 33 13 62t35 51t51 34.5t61 12.5t61 -12.5t51 -34.5t35 -51t13 -62z" />
    <glyph glyph-name="wdieresis" unicode="&#x1e85;" horiz-adv-x="1511" 
d="M1073 0h-252l-44 656l-275 -656h-236l-121 1075h281l36 -613l269 613h234l53 -613l252 613h284zM1280 1376q0 -32 -12.5 -60t-34.5 -50t-50.5 -34.5t-59.5 -12.5q-33 0 -62.5 12.5t-51.5 34.5t-35 50t-13 60q0 33 13 62t35 51t51.5 34.5t62.5 12.5q31 0 59.5 -12.5
t50.5 -34.5t34.5 -51t12.5 -62zM838 1376q0 -32 -13 -60t-35 -50t-51 -34.5t-61 -12.5t-61 12.5t-51 34.5t-35 50t-13 60q0 33 13 62t35 51t51 34.5t61 12.5t61 -12.5t51 -34.5t35 -51t13 -62z" />
    <glyph glyph-name="Ygrave" unicode="&#x1ef2;" horiz-adv-x="1454" 
d="M877 567l-101 -567h-287l99 561l-385 873h311l251 -606l470 606h332zM809 1506l-240 327h358l121 -327h-239z" />
    <glyph glyph-name="ygrave" unicode="&#x1ef3;" horiz-adv-x="1200" 
d="M440 -379h-282l209 379l-220 1075h308l111 -730l372 730h307zM680 1201l-240 327h358l121 -327h-239z" />
    <glyph glyph-name="endash" unicode="&#x2013;" horiz-adv-x="942" 
d="M844 612h-717l45 262h717z" />
    <glyph glyph-name="emdash" unicode="&#x2014;" 
d="M1171 612h-1044l45 262h1045z" />
    <glyph glyph-name="quoteleft" unicode="&#x2018;" horiz-adv-x="575" 
d="M477 858h-334l271 576h194z" />
    <glyph glyph-name="quoteright" unicode="&#x2019;" horiz-adv-x="575" 
d="M375 858h-195l131 576h334z" />
    <glyph glyph-name="quotesinglbase" unicode="&#x201a;" horiz-adv-x="575" 
d="M184 -229h-194l129 575h334z" />
    <glyph glyph-name="quotedblleft" unicode="&#x201c;" horiz-adv-x="1110" 
d="M1014 858h-334l268 576h195zM479 858h-334l269 576h194z" />
    <glyph glyph-name="quotedblright" unicode="&#x201d;" horiz-adv-x="1110" 
d="M911 858h-194l129 576h334zM377 858h-195l129 576h334z" />
    <glyph glyph-name="quotedblbase" unicode="&#x201e;" horiz-adv-x="1110" 
d="M719 -229h-195l129 575h334zM184 -229h-194l129 575h334z" />
    <glyph glyph-name="dagger" unicode="&#x2020;" horiz-adv-x="1208" 
d="M1135 750h-353l-170 -955h-278l170 955h-352l45 256h352l76 428h278l-76 -428h353z" />
    <glyph glyph-name="daggerdbl" unicode="&#x2021;" horiz-adv-x="1208" 
d="M1135 754h-357l-49 -279h356l-45 -252h-356l-76 -428h-270l76 428h-357l45 252h357l49 279h-356l45 252h356l76 428h270l-76 -428h357z" />
    <glyph glyph-name="bullet" unicode="&#x2022;" horiz-adv-x="1071" 
d="M1069 752l-909 -523v1045z" />
    <glyph glyph-name="ellipsis" unicode="&#x2026;" horiz-adv-x="1671" 
d="M1520 170q0 -39 -15.5 -74t-41.5 -61.5t-61.5 -42t-74.5 -15.5t-74 15.5t-61 42t-41.5 61.5t-15.5 74t15.5 74t41.5 61t61 41.5t74 15.5t74.5 -15.5t61.5 -41.5t41.5 -61t15.5 -74zM963 170q0 -39 -15.5 -74t-42 -61.5t-61.5 -42t-74 -15.5t-74 15.5t-61 42t-41.5 61.5
t-15.5 74t15.5 74t41.5 61t61 41.5t74 15.5t74 -15.5t61.5 -41.5t42 -61t15.5 -74zM406 170q0 -39 -15.5 -74t-42 -61.5t-61.5 -42t-74 -15.5t-74 15.5t-61.5 42t-42 61.5t-15.5 74t15.5 74t42 61t61.5 41.5t74 15.5t74 -15.5t61.5 -41.5t42 -61t15.5 -74z" />
    <glyph glyph-name="perthousand" unicode="&#x2030;" horiz-adv-x="2898" 
d="M950 1094q0 -121 -36.5 -218.5t-97.5 -166.5t-140 -106.5t-164 -37.5q-81 0 -144.5 26t-107 73.5t-66 114.5t-22.5 149q0 120 36.5 217.5t97 166.5t139.5 106.5t165 37.5q81 0 144 -26t106.5 -73t66.5 -114t23 -149zM628 0h-248l1133 1434h248zM2832 506
q0 -121 -36.5 -218.5t-97.5 -166.5t-140 -106.5t-164 -37.5q-81 0 -144 26t-106.5 73.5t-66.5 114.5t-23 149q0 121 36.5 218.5t97.5 166.5t140 106t164 37q81 0 144 -26t106.5 -73t66.5 -114t23 -149zM1974 506q0 -121 -36.5 -218.5t-97.5 -166.5t-140 -106.5t-164 -37.5
q-81 0 -144.5 26t-107 73.5t-66 114.5t-22.5 149q0 121 36.5 218.5t97 166.5t139.5 106t165 37q81 0 144 -26t106.5 -73t66.5 -114t23 -149zM718 1104q0 87 -33 125.5t-92 38.5q-41 0 -75.5 -27.5t-60 -75.5t-40 -111.5t-14.5 -135.5q0 -87 33 -125.5t92 -38.5q40 0 75 27.5
t60.5 75t40 111.5t14.5 136zM2600 516q0 87 -33 125.5t-91 38.5q-41 0 -76 -27.5t-60.5 -75.5t-40 -111.5t-14.5 -135.5q0 -87 33 -125.5t92 -38.5q41 0 75.5 27.5t60 75.5t40 111.5t14.5 135.5zM1742 516q0 87 -33 125.5t-92 38.5q-41 0 -75.5 -27.5t-60 -75.5t-40 -111.5
t-14.5 -135.5q0 -87 33 -125.5t92 -38.5q40 0 75 27.5t60.5 75.5t40 111.5t14.5 135.5z" />
    <glyph glyph-name="guilsinglleft" unicode="&#x2039;" horiz-adv-x="770" 
d="M365 539l229 -539h-293l-240 537l428 538h293z" />
    <glyph glyph-name="guilsinglright" unicode="&#x203a;" horiz-adv-x="770" 
d="M281 0h-293l418 537l-230 538h293l240 -536z" />
    <glyph glyph-name="fraction" unicode="&#x2044;" horiz-adv-x="1010" 
d="M102 0h-303l1214 1434h303z" />
    <glyph glyph-name="fraction" unicode="&#x2215;" horiz-adv-x="1010" 
d="M102 0h-303l1214 1434h303z" />
    <glyph glyph-name="four.superior" unicode="&#x2074;" horiz-adv-x="850" 
d="M489 717h-473l27 152l568 569h209l-96 -540h113l-32 -185h-113l-33 -184h-203zM521 898l49 278l-272 -278h223z" />
    <glyph glyph-name="Euro" unicode="&#x20ac;" 
d="M83 780l31 170h121q37 114 94 207.5t132.5 160t170 102.5t205.5 36q93 0 161.5 -21.5t118.5 -62t84 -99t58 -132.5l-254 -97q-15 49 -32 83t-39.5 55t-52.5 30t-70 9q-48 0 -90 -19.5t-78 -55t-66 -85.5t-53 -111h360l-30 -170h-377q-13 -66 -19 -127h375l-31 -170h-350
l3 -59q6 -61 21.5 -101.5t39.5 -65t55 -34.5t67 -10q80 0 147 45.5t132 147.5l215 -134q-85 -138 -213 -216.5t-301 -78.5q-193 0 -305.5 106.5t-136.5 302.5q-2 15 -3 31q-2 14 -2.5 31t-0.5 35h-138l29 170h115q4 62 16 127h-109z" />
    <glyph glyph-name="litre" unicode="&#x2113;" horiz-adv-x="1102" 
d="M852 104q-28 -21 -65 -44.5t-80.5 -44t-92 -33.5t-100.5 -13q-124 0 -182 61t-58 177q0 54 12 123t23 135l-139 -117l-55 113l227 188l76 424q19 109 54 188t82.5 130t105.5 75.5t123 24.5q94 0 150.5 -51.5t56.5 -143.5q0 -67 -19 -131t-51.5 -124t-75.5 -115.5
t-91 -106.5t-97.5 -96.5t-94.5 -85.5q-61 -322 -61 -379t27 -87t79 -30q27 0 53.5 8.5t51.5 22t48 30.5t42 34zM594 829q40 40 83.5 90.5t79 105.5t58.5 112t23 110q0 32 -14.5 50.5t-43.5 18.5q-24 0 -44 -13t-37.5 -40t-30.5 -63t-23 -88z" />
    <glyph glyph-name="afii61352" unicode="&#x2116;" horiz-adv-x="2460" 
d="M2372 1114q0 -95 -36 -174t-97.5 -136t-143.5 -88.5t-174 -31.5q-72 0 -130.5 25t-100 68t-64 101.5t-22.5 125.5q0 94 35.5 173t97 136t143.5 89t174 32q72 0 131 -25t100.5 -68.5t64 -101.5t22.5 -125zM2255 340h-756l41 240h756zM2140 1094q0 28 -7 55.5t-24 49.5
t-39 33t-51 11q-41 0 -75 -19.5t-58 -51t-37.5 -70.5t-13.5 -78q0 -32 8.5 -59.5t24 -47.5t38 -31.5t50.5 -11.5q41 0 75 19.5t58 51t37.5 71t13.5 78.5zM1243 0h-256l-446 958l-168 -958h-283l252 1434h274l434 -921l162 921h283z" />
    <glyph glyph-name="trademark" unicode="&#x2122;" horiz-adv-x="1692" 
d="M762 1266h-201l-112 -639h-195l113 639h-201l31 168h596zM1622 627h-182l84 472l-324 -497l-150 491l-83 -466h-183l144 807h188l140 -473l309 473h200z" />
    <glyph glyph-name="Omega" unicode="&#x2126;" horiz-adv-x="1497" 
d="M836 262q66 54 121.5 118t95 137t62 155t22.5 172q0 70 -19.5 129.5t-58 103.5t-95 69t-130.5 25q-92 0 -165.5 -38t-124.5 -104.5t-78.5 -156t-27.5 -192.5q0 -65 12 -122t34.5 -108t55.5 -97t76 -91l-45 -262h-503l45 262h191q-34 40 -62.5 82t-53 97t-36 112
t-11.5 125q0 112 26.5 213t74.5 187.5t115 156.5t148 119t173.5 75.5t191.5 26.5q127 0 231.5 -41.5t178 -117t114 -181.5t40.5 -235q0 -94 -18 -179t-58 -166.5t-94 -149t-122 -124.5h204l-46 -262h-509z" />
    <glyph glyph-name="estimated" unicode="&#x212e;" horiz-adv-x="1427" 
d="M356 651v-450q73 -72 161.5 -109t195.5 -37q91 0 163 22.5t130 62t104.5 94t87.5 118.5l76 -47q-48 -73 -102 -133.5t-120.5 -104t-149.5 -68t-189 -24.5q-145 0 -262.5 54t-200 146.5t-127.5 215.5t-45 262q0 141 44 264.5t126.5 215.5t201.5 145t269 53t268 -54
t200 -146.5t126.5 -216t46.5 -263.5h-1004zM1075 1106q-33 31 -74 58t-87 46t-96 30t-101 11q-105 0 -197 -36.5t-164 -108.5v-373h719v373z" />
    <glyph glyph-name="down.arrow" unicode="&#x2193;" horiz-adv-x="901" 
d="M766 459q8 -11 9 -31t-13 -43l-313 -416l-308 416q-17 23 -15.5 43t9.5 31q16 23 34.5 29.5t47.5 -3.5l100 -28v977h267v-977l96 28q31 10 50.5 2.5t35.5 -28.5z" />
    <glyph glyph-name="leftright.arrow" unicode="&#x2194;" horiz-adv-x="1638" 
d="M1182 397q-23 -14 -43 -13t-31 9q-22 16 -29 35.5t2 50.5l29 96h-582l29 -100q9 -29 2.5 -47.5t-29.5 -34.5q-11 -8 -30.5 -9.5t-42.5 15.5l-416 308l416 313q23 14 42.5 13t30.5 -9q22 -15 29 -35t-2 -51l-29 -96h582l-29 100q-9 29 -2.5 48t29.5 34q14 10 34 9t40 -15
l415 -307z" />
    <glyph glyph-name="partialdiff" unicode="&#x2202;" horiz-adv-x="1128" 
d="M444 1270l35 194q181 -21 288 -85t170 -142.5t100.5 -193t37.5 -269.5q0 -145 -23.5 -260.5t-64 -204t-96 -151.5t-119 -103.5t-133 -59t-137.5 -18.5q-104 0 -185.5 32.5t-138 90t-86 136t-29.5 170.5q0 131 46 236.5t119 179.5t163.5 113.5t179.5 39.5q74 0 146 -19.5
t121 -58.5q-3 54 -24.5 110t-73 114.5t-126.5 96t-170 52.5zM766 537q0 40 -11 75t-33.5 60.5t-56.5 40t-81 14.5q-56 0 -100.5 -24t-76 -66t-48.5 -99t-17 -124q0 -89 47 -138t137 -49q56 0 100.5 26t75.5 69t47.5 99t16.5 116z" />
    <glyph glyph-name="Delta" unicode="&#x2206;" horiz-adv-x="1565" 
d="M-20 0l825 1434h278l320 -1434h-1423zM880 1078l-431 -797h591z" />
    <glyph glyph-name="product" unicode="&#x220f;" horiz-adv-x="1491" 
d="M874 -300l252 1439h-548l-253 -1439h-287l304 1734h1122l-304 -1734h-286z" />
    <glyph glyph-name="summation" unicode="&#x2211;" horiz-adv-x="1372" 
d="M638 1171l305 -569l-533 -617h746l-50 -285h-1115l44 256l558 654l-317 570l46 254h1062l-45 -263h-701z" />
    <glyph glyph-name="minus" unicode="&#x2212;" 
d="M1165 840v-271h-1020v271h1020z" />
    <glyph glyph-name="radical" unicode="&#x221a;" horiz-adv-x="1378" 
d="M639 0h-305l-228 696h300l114 -427l639 1165h303z" />
    <glyph glyph-name="infinity" unicode="&#x221e;" horiz-adv-x="1798" 
d="M596 1182q92 0 175 -30.5t146 -90.5q57 60 133 90.5t164 30.5q86 0 160.5 -30t129 -87.5t85.5 -142.5t31 -195q0 -109 -32 -195t-88 -145.5t-132.5 -91t-165.5 -31.5q-87 0 -164.5 33t-137.5 91q-59 -67 -140.5 -95.5t-175.5 -28.5q-86 0 -160.5 31t-129 89.5t-85.5 144
t-31 194.5q0 110 32 195.5t88 144t132.5 89t165.5 30.5zM760 725q0 61 -11.5 104.5t-33 71.5t-52.5 41.5t-69 13.5q-33 0 -64 -13t-54.5 -43t-35.5 -75t-12 -100q0 -58 13 -102t36.5 -74t56 -45t70.5 -15q28 0 53 6.5t49 20.5t42 35t29 45q-17 63 -17 129zM1047 727
q0 -54 9.5 -101t29.5 -77t49.5 -45t68.5 -15q38 0 69 15t51.5 43t33 72t12.5 106q0 58 -13 101t-36.5 72t-56 43.5t-70.5 14.5q-25 0 -46.5 -5t-44 -17t-40 -29.5t-32.5 -45.5q8 -31 12 -64t4 -68z" />
    <glyph glyph-name="integral" unicode="&#x222b;" horiz-adv-x="859" 
d="M838 1204q-19 10 -47.5 16.5t-65.5 6.5q-43 0 -64 -19t-30 -67l-221 -1254q-28 -149 -104.5 -215.5t-203.5 -66.5q-71 0 -125.5 13t-89.5 32l39 207q19 -10 47.5 -16.5t65.5 -6.5q43 0 64 19t30 67l221 1254q28 149 104.5 215.5t203.5 66.5q71 0 125.5 -13t89.5 -32z" />
    <glyph glyph-name="approxequal" unicode="&#x2248;" horiz-adv-x="1253" 
d="M823 768q-68 0 -115.5 19t-85.5 41.5t-70.5 41.5t-68.5 19q-39 0 -63 -29.5t-27 -85.5h-231q0 129 25 193t60 101.5t81 57t100 19.5q64 0 112 -18.5t87 -41t72.5 -41t68.5 -18.5q39 0 63 29.5t27 83.5h231q0 -127 -25 -191t-60 -102.5t-81 -58t-100 -19.5zM823 266
q-68 0 -115.5 19t-85.5 41.5t-70.5 41.5t-68.5 19q-39 0 -63 -29.5t-27 -85.5h-231q0 129 25 193t60 101.5t81 57t100 19.5q64 0 112 -18.5t87 -41t72.5 -41t68.5 -18.5q39 0 63 29.5t27 83.5h231q0 -127 -25 -191t-60 -102.5t-81 -58t-100 -19.5z" />
    <glyph glyph-name="notequal" unicode="&#x2260;" horiz-adv-x="1255" 
d="M903 1079h189v-264h-287l-82 -221h369v-264h-467l-80 -217h-279l80 217h-182v264h280l82 221h-362v264h461l80 217h278z" />
    <glyph glyph-name="lessequal" unicode="&#x2264;" horiz-adv-x="922" 
d="M117 844v192l678 418v-352l-342 -160l342 -141v-355zM113 61v250h682v-250h-682z" />
    <glyph glyph-name="greaterequal" unicode="&#x2265;" horiz-adv-x="922" 
d="M127 446v355l342 141l-342 160v352l678 -418v-192zM127 61v250h682v-250h-682z" />
    <glyph glyph-name="lozenge" unicode="&#x25ca;" horiz-adv-x="1126" 
d="M563 995l-225 -352l225 -352l225 352zM1067 641l-403 -641h-199l-406 641l404 641h199z" />
    <glyph glyph-name="apple" unicode="&#xf8ff;" horiz-adv-x="1638" 
d="M1253 446q-31 -19 -63 0q-34 27 -19 70l41 92h-288v-254l98 39q44 16 68 -22q15 -27 -7 -58l-264 -344l-270 344q-19 30 -4 58q23 38 71 22l95 -39v254h-285l41 -94q17 -43 -15 -66q-34 -22 -65 -2l-346 271l346 264q34 22 63 1q31 -22 17 -62l-41 -99h285v258l-95 -39
q-44 -17 -71 23q-16 29 4 57l270 344l264 -344q20 -30 7 -57q-23 -39 -68 -23l-98 39v-258h288l-41 99q-14 47 25 67q25 13 57 -6l344 -264z" />
    <glyph glyph-name="DEL" horiz-adv-x="0" 
 />
    <glyph glyph-name="bulletround" horiz-adv-x="1004" 
d="M903 750q0 -78 -28.5 -145t-78 -117t-117 -78.5t-144.5 -28.5q-78 0 -145 28.5t-117 78.5t-78.5 117t-28.5 145q0 77 28.5 145t78.5 118.5t117 79.5t145 29q77 0 144.5 -29t117 -79.5t78 -118.5t28.5 -145z" />
    <glyph glyph-name="quotedbl.lfprop" horiz-adv-x="1081" 
d="M934 764h-195l47 670h338zM424 764h-195l47 670h338z" />
    <glyph glyph-name="numbersign.lfprop" horiz-adv-x="1507" 
d="M1473 911h-246l-70 -389h246l-41 -235h-246l-51 -287h-250l51 287h-311l-51 -287h-250l51 287h-246l41 235h246l70 389h-246l41 236h246l51 287h250l-51 -287h311l51 287h250l-51 -287h245zM666 911l-70 -389h311l70 389h-311z" />
    <glyph glyph-name="dollar.lfprop" horiz-adv-x="1325" 
d="M1059 995q-62 85 -147 134t-193 49q-85 0 -130.5 -37t-45.5 -97q0 -27 11.5 -48t41 -40.5t80.5 -40.5t131 -47q91 -29 164 -66t124.5 -85t79 -109t27.5 -139q0 -91 -26.5 -173t-84 -146t-150 -106t-224.5 -52l-35 -197h-287l39 217q-68 18 -127.5 48t-108 67t-85 79.5
t-58.5 86.5l240 166q55 -93 142.5 -147t234.5 -54q106 0 165.5 41t59.5 117q0 30 -13 55.5t-45.5 49t-88.5 47t-142 50.5q-94 29 -162.5 64.5t-113.5 81.5t-66.5 105t-21.5 137q0 91 29.5 167t86.5 133t139 92.5t187 45.5l35 194h287l-39 -219q110 -35 193 -99t138 -142z
" />
    </font>
</defs>
</svg>
